<svg id="e687de5b-da31-4f0b-bae2-265082e75a81" data-name="Layer 1" xmlns="http://www.w3.org/2000/svg" viewBox="0 0 100 100"><rect width="100" height="100" fill="none"/><path d="M25.79,22.08l0,0A36.9,36.9,0,0,1,84.49,62.87" fill="none" stroke="#ffa300" stroke-miterlimit="10" stroke-width="2" fill-rule="evenodd"/><path d="M74.23,77.75,74,78a36.91,36.91,0,0,1-44.52,2.79A36.53,36.53,0,0,1,22,74.09a36,36,0,0,1-5.46-8.41,37,37,0,0,1-1.07-28.85" fill="none" stroke="#ffa300" stroke-miterlimit="10" stroke-width="2" fill-rule="evenodd"/><polyline points="6.95 42.51 15.56 36.76 21.31 45.37" fill="none" stroke="#ffa300" stroke-miterlimit="10" stroke-width="2" fill-rule="evenodd"/><polyline points="93.05 57.67 84.44 63.42 78.69 54.81" fill="none" stroke="#ffa300" stroke-miterlimit="10" stroke-width="2" fill-rule="evenodd"/><path d="M52.16,76H47.84A3,3,0,0,1,45,73.7L44,70a.56.56,0,0,0-.37-.39,21,21,0,0,1-3.08-1.28.57.57,0,0,0-.54,0L36.8,70.32a3,3,0,0,1-3.64-.44l-3-3a3,3,0,0,1-.45-3.64L31.61,60a.57.57,0,0,0,0-.55,20.58,20.58,0,0,1-1.27-3.07A.54.54,0,0,0,30,56l-3.66-.92A3,3,0,0,1,24,52.16V47.85A3,3,0,0,1,26.29,45L30,44a.57.57,0,0,0,.4-.37,19.3,19.3,0,0,1,1.27-3.09.55.55,0,0,0,0-.54l-1.94-3.23a3,3,0,0,1,.45-3.64l3.05-3.05a3,3,0,0,1,3.64-.45L40,31.61a.57.57,0,0,0,.55,0,20.22,20.22,0,0,1,3.07-1.27A.57.57,0,0,0,44,30L45,26.3A3,3,0,0,1,47.85,24h4.3a3,3,0,0,1,2.9,2.25L56,30a.55.55,0,0,0,.36.39,20.32,20.32,0,0,1,3.09,1.28.59.59,0,0,0,.56,0l3.23-1.94a3,3,0,0,1,3.64.45l3,3.05a3,3,0,0,1,.44,3.64L68.39,40a.55.55,0,0,0,0,.54,21,21,0,0,1,1.27,3.08A.54.54,0,0,0,70,44L73.7,45h0A3,3,0,0,1,76,47.84v4.31a3,3,0,0,1-2.26,2.9L70,56a.56.56,0,0,0-.39.37,20.46,20.46,0,0,1-1.28,3.08.57.57,0,0,0,0,.54l1.94,3.24a3,3,0,0,1-.45,3.64l-3,3a3,3,0,0,1-3.64.44L60,68.39a.57.57,0,0,0-.55,0,19.6,19.6,0,0,1-3.07,1.28A.57.57,0,0,0,56,70l-.91,3.66A3,3,0,0,1,52.16,76Z" fill="#4949e4"/><path d="M50,60A10,10,0,1,1,60,50,10,10,0,0,1,50,60Z" fill="#39c1d8"/><path d="M50,42.47A7.53,7.53,0,1,0,57.53,50,7.54,7.54,0,0,0,50,42.47Z" fill="#fff"/></svg>