<?xml version="1.0" encoding="UTF-8"?> <!-- Generator: Adobe Illustrator 25.2.0, SVG Export Plug-In . SVG Version: 6.00 Build 0) --> <svg xmlns="http://www.w3.org/2000/svg" xmlns:xlink="http://www.w3.org/1999/xlink" version="1.1" id="Layer_1" x="0px" y="0px" viewBox="0 0 216 216" style="enable-background:new 0 0 216 216;" xml:space="preserve"> <style type="text/css"> .st0{fill:#009FE3;} </style> <g> <path class="st0" d="M120.72,102.95c1.93,0,3.5-1.57,3.5-3.5s-1.57-3.5-3.5-3.5H64.67c-1.93,0-3.5,1.57-3.5,3.5s1.57,3.5,3.5,3.5 H120.72z"></path> <path class="st0" d="M124.22,116.55c0-1.93-1.57-3.5-3.5-3.5h-82.8c-1.93,0-3.5,1.57-3.5,3.5c0,1.93,1.57,3.5,3.5,3.5h82.8 C122.65,120.05,124.22,118.48,124.22,116.55z"></path> <path class="st0" d="M180.59,105.57L137.9,61.44c-0.99-1.02-2.51-1.34-3.83-0.81c-1.32,0.53-2.19,1.82-2.19,3.24v14.99H56.32 c-1.93,0-3.5,1.57-3.5,3.5s1.57,3.5,3.5,3.5h79.07c1.93,0,3.5-1.57,3.5-3.5v-9.84L173.21,108l-34.33,35.48v-9.84 c0-1.93-1.57-3.5-3.5-3.5H56.32c-1.93,0-3.5,1.57-3.5,3.5c0,1.93,1.57,3.5,3.5,3.5h75.57v14.99c0,1.43,0.86,2.71,2.19,3.24 c0.43,0.17,0.87,0.26,1.31,0.26c0.93,0,1.84-0.37,2.52-1.07l42.69-44.13C181.9,109.08,181.9,106.92,180.59,105.57z"></path> </g> </svg> 