<svg xmlns="http://www.w3.org/2000/svg" xmlns:xlink="http://www.w3.org/1999/xlink" width="600" height="600" fill="none" xmlns:v="https://vecta.io/nano"><style><![CDATA[.B{fill:#1c2525}.C{fill:#fff}.D{stroke:#1c2525}.E{fill:#e0e0e0}.F{fill:#010101}.G{fill:#3ca669}.H{fill:#e05555}.I{fill:#f0cc52}.J{fill:#f4f4f4}.K{fill:#2679c6}.L{stroke-width:4}]]></style><path d="M0 0h600v600H0z" class="C"/><g clip-path="url(#A)"><path d="M322.171 74.308L59.11 52.06a8 8 0 0 0-8.646 7.297l-16.348 193.31a8 8 0 0 0 7.297 8.645l263.061 22.248c4.402.372 8.273-2.895 8.646-7.298l16.348-193.309a8 8 0 0 0-7.297-8.646z" class="C"/><path d="M48.543 63.561l.361-3.081.118-1.395c.063-.535.175-1.063.334-1.578a9.4 9.4 0 0 1 3.087-4.456 8.4 8.4 0 0 1 3.548-1.607c.762-.155 1.544-.191 2.317-.105 1.088.192 1.071.392.149.615a7.5 7.5 0 0 0-2.26.612 8.6 8.6 0 0 0-2.992 2.156 7.9 7.9 0 0 0-1.557 2.98 5.9 5.9 0 0 0-.26 1.885c-.078.731-.107 1.466-.086 2.201l-.461 10.197-1.318 25.078-3.773 56.483-6.986 82.605-.984 10.455-.548 6.477c-.025.299.049.606.024.905.055.648.24 1.278.546 1.852.527 1.175 1.436 2.136 2.579 2.727.566.333 1.204.525 1.86.559l55.103 4.66 116.634 9.262 58.525 4.548 34.377 2.908 1.329-.289c.84-.352 1.6-.867 2.236-1.517a5.51 5.51 0 0 0 1.398-2.291 6.57 6.57 0 0 0 .218-1.386l1.095-12.954 12.087-151.22 1.324-16.848 1.07-12.655a7.49 7.49 0 0 0-.644-3.065 6.3 6.3 0 0 0-2.123-2.187 3.89 3.89 0 0 0-1.444-.724l-27.103-2.292-67.775-5.531-61.406-4.892-59.322-4.616c-53.601-4.633-62.216-8.373-29.232-6.788 25.286 1.235 83.071 6.223 115.862 8.895l70.067 5.725 59.487 5.031c.926.191 1.813.538 2.623 1.025a9.69 9.69 0 0 1 4.081 3.958 10.19 10.19 0 0 1 1.339 5.532l-13.686 168.948-2.132 25.21a11.01 11.01 0 0 1-.343 1.677 10.19 10.19 0 0 1-3.811 5.432c-1.84 1.335-4.074 2.017-6.346 1.938l-47.53-4.02-84.524-6.847-71.288-5.527-35.589-2.809-17.853-1.309-6.676-.565a13.28 13.28 0 0 1-2.765-.535 10.5 10.5 0 0 1-4.612-3.343c-1.2-1.519-1.957-3.339-2.187-5.26a11.89 11.89 0 0 1 .011-2.508l2.688-31.787 2.458-33.813 5.423-67.684c1.788-22.328 3.656-42.041 5.258-55.052z" class="B"/><path d="M51.486 47.752a7.9 7.9 0 0 1 2.746-5.439 7.9 7.9 0 0 1 5.8-1.867l61.805 4.926 201.366 16.026a8.1 8.1 0 0 1 5.444 2.77c1.384 1.598 2.088 3.674 1.961 5.785l-2.081 24.612L50.574 72.765l.591-21.226.32-3.787z" class="E"/><path d="M49.272 58.504l.673-6.767c.208-1.201.509-2.383.901-3.537.508-1.262.714-.14.867 3.987l.363 8.762.126 5.631.046 3.015-.05.598.1.008-.025.299a1.1 1.1 0 0 1 .058.507l3.388.287 5.398.256 10.995.528 21.756 1.438 106.495 9.308 64.105 5.02 62.228 4.661 1.51-19.04.253-2.989c.061-.432.065-.871.01-1.304.013-.374-.023-.748-.107-1.113a6.1 6.1 0 0 0-2.512-3.524c-.643-.437-1.369-.737-2.133-.883l-.498-.042c-.191-.116-.498-.042-.797-.067l-31.787-2.688-48.145-3.871-86.624-6.925-39.277-3.121-37.99-2.912-11.442-1.168-8.569-.725a7.6 7.6 0 0 0-4.777 1.904 9.9 9.9 0 0 0-2.038 2.738c-.358.672-.591 1.054-.881.929s-.34-.731-.347-1.836a8.2 8.2 0 0 1 2.082-4.44 8.2 8.2 0 0 1 2.901-2.264 9.9 9.9 0 0 1 4.502-1.024c16.309.577 53.169 3.794 74.095 5.564l89.696 7.385 68.382 5.482 32.185 2.722c.91.204 1.793.515 2.631.925 1.676.777 3.103 2.003 4.125 3.542a10 10 0 0 1 1.661 5.177c.044.467.038.938-.018 1.403l-2.25 26.605-81.543-6.495-91.142-6.905-86.542-6.717-10.961-.927-12.048-1.119c.002-1.204.103-2.4.112-3.704a19.29 19.29 0 0 0 .103-2.4l.312-3.687c.103-2.4.288-4.592.448-6.485z" class="B"/><path d="M51.502 47.553a7.9 7.9 0 0 1 2.746-5.439 7.9 7.9 0 0 1 5.8-1.867l56.424 4.471a5.4 5.4 0 0 1 2.025.584 5.41 5.41 0 0 1 1.647 1.314 5.42 5.42 0 0 1 1.019 1.844 5.4 5.4 0 0 1 .235 2.094 5.5 5.5 0 0 0 5.017 5.944l203.948 16.345-1.913 22.619L50.406 74.758l.776-23.418.32-3.787z" class="J"/><path d="M186.843 59.903l71.786 5.569 73.58 5.721-2.217 26.206-22.22-1.879-53.933-4.26-102.769-7.085-56.341-4.263c-6.577-.556-13.369-.93-19.664-1.261l-18.394-.853-9.068-.767.299-7.1c.035-1.603.07-3.205.205-4.8l.41-9.6c.072-1.302.249-2.596.528-3.869.689.159 1.781-3.261 2.646-3.991s1.186 1.405 1.537 12.675l.042 6.627-.021 3.812c-.025.299.049.606.015 1.005l-.017.199.299.025s-.1-.008.108-.091l3.388.287 6.693.365 13.27.921 162.837 12.366 86.243 6.692 1.466-17.338-60.285-5.098-62.9-5.018-48.552-3.805-30.492-2.579c-1.451-.308-2.786-1.017-3.852-2.048a7.9 7.9 0 0 1-2.178-3.781c-.218-.652-.296-1.342-.23-2.027l.093-1.096a3.79 3.79 0 0 0-.771-1.571 2.9 2.9 0 0 0-1.327-.915l-2.691-.228-41.435-3.705-9.034-1.165-3.969-.536a7 7 0 0 0-2.923.154 8.5 8.5 0 0 0-4.156 2.86 23.71 23.71 0 0 0-1.648 2.871 5.5 5.5 0 0 1 .018-1.404 7.7 7.7 0 0 1 1.633-3.876 8.7 8.7 0 0 1 5.601-3.34c.635-.096 1.276-.142 1.919-.139l1.694.143 3.612.005c9.534.003 19.856.174 22.247.376 8.379.608 21.739 1.638 25.392 2.348l3.072.46.997.084 1.179.3a9.1 9.1 0 0 1 2.099 1.282 7.9 7.9 0 0 1 2.678 3.94 10.1 10.1 0 0 1 .287 2.533l-.118 1.395c.11.814.51 1.561 1.127 2.102a2.4 2.4 0 0 0 1.046.691l61.181 5.174-.025.299z" class="B"/><path d="M85.187 59.836L227.53 71.272a4.7 4.7 0 0 1 4.287 5.079c-.129 1.223-.733 2.346-1.681 3.128a4.7 4.7 0 0 1-3.39 1.059L84.395 69.202a4.8 4.8 0 0 1-4.287-5.079 4.8 4.8 0 0 1 5.079-4.287z" class="E"/><g class="B"><path d="M79.114 61.63a5.5 5.5 0 0 1 3.624-2.504 3.4 3.4 0 0 1 2.201.086c.382.233.365.432.049.606a11.1 11.1 0 0 0-1.787.953 4.2 4.2 0 0 0-1.447 1.684 3.9 3.9 0 0 0-.302 2.383 3.2 3.2 0 0 0 1.625 2.145l1.179.3 1.993.168c6.021.007 12.722.273 18.502.762 17.654 1.292 35.921 3.64 54.255 5.191l38.081 3.02 19.049 1.41 11.459.969c.42-.064.816-.238 1.147-.505a2.6 2.6 0 0 0 .894-2.754c-.141-.496-.426-.939-.82-1.272a2.6 2.6 0 0 0-1.389-.6l-18.434-1.559-24.529-1.874-44.151-3.633-20.029-1.694-19.348-1.436c-17.52-1.682-20.149-5.016-9.303-5.102 8.238-.106 27.054 1.686 37.816 2.596l45.637 3.86 53.708 4.542a5.4 5.4 0 0 1 2.316 1.099 6.4 6.4 0 0 1 1.8 1.794c.474.712.801 1.513.96 2.353a7.2 7.2 0 0 1-.72 4.957 6.7 6.7 0 0 1-3.874 3.085 7.1 7.1 0 0 1-2.541.387l-43.047-3.641-46.476-3.429-44.168-3.434-8.968-.758a4.7 4.7 0 0 1-1.669-.442 6.8 6.8 0 0 1-4.005-4.855 6.7 6.7 0 0 1 .712-4.857zm231.491 26.502a5.5 5.5 0 1 0 .927-10.961 5.5 5.5 0 1 0-.927 10.961z"/><path d="M318.318 82.362c-.074-.307.034-.399.059-.698s-.265-.424-.248-.623l-.514-1.047a8.3 8.3 0 0 0-1.89-2.568l-.846-.674-.1-.008a4.2 4.2 0 0 0-1.344-.716l-.997-.084c-.091-.108-.697-.059-.797-.067l-1.013.115-.698-.059a2.8 2.8 0 0 0-1.645.463l-.415.166-.1-.008-.315.174a6.5 6.5 0 0 0-2.687 3.285c-.142.49-.184.988-.326 1.478a6.21 6.21 0 0 0-.028 2.707 6.66 6.66 0 0 1 .497 1.246c.064.323.173.637.323.93l.829.873a7.2 7.2 0 0 0 2.473 1.614l.772.366a2.5 2.5 0 0 0 1.187.201l1.113-.107a4.2 4.2 0 0 0 1.944-.438 7.9 7.9 0 0 0 2.651-1.683 1.6 1.6 0 0 0 .757-.639 23.57 23.57 0 0 0 1.181-2.108 1.5 1.5 0 0 0-.588-1.355c-.301.025-.604-.001-.896-.076-.59-.15-1.72.156-1.737.355-.006.271-.063.538-.167.789a2.98 2.98 0 0 1-.466.763c-.016.199-.05.598-.258.681s-.332.373-.64.448a3.3 3.3 0 0 0-1.047.514 3.9 3.9 0 0 1-2.591-.219 4.1 4.1 0 0 1-1.435-.824c-.578-.519-1.001-1.188-1.222-1.933a4.2 4.2 0 0 1-.027-2.287 4.94 4.94 0 0 1 .491-1.062 2.3 2.3 0 0 1 .99-1.02l.099.008.632-.348a2.5 2.5 0 0 1 1.429-.281 4.9 4.9 0 0 1 1.702.044 3.9 3.9 0 0 1 2.348 1.905c.257.523-.002 1.204.056 1.711s.083.208.274.324l.282.225.797.067c.88.275 2.209-.014 2.151-.521zM108.702 55.903l-45.363-3.535a3.5 3.5 0 1 1 .59-6.976l45.363 3.535a3.5 3.5 0 0 1 2.38 1.23c.598.709.891 1.628.813 2.553a3.41 3.41 0 0 1-1.202 2.413c-.355.299-.766.522-1.21.656a3.4 3.4 0 0 1-1.371.123z"/><path d="M82.047 54.251L64.991 53.01l-2.192-.185a4.1 4.1 0 0 1-2.199-1.29 4.2 4.2 0 0 1-.617-4.568 4.3 4.3 0 0 1 1.754-1.758 3.5 3.5 0 0 1 2.442-.396L78.229 46l18.758 1.285 12.057 1.02a3.5 3.5 0 0 1 1.968.467 4.2 4.2 0 0 1 2.337 3.208 3.9 3.9 0 0 1-.634 2.756c-.533.838-1.328 1.477-2.261 1.816l-.797-.067c-.083-.208-.764-.466-.946-.682s.025-.299.332-.373c.512-.218 1.004-.478 1.471-.779.344-.276.615-.633.789-1.038a2.7 2.7 0 0 0 .211-1.286 2.6 2.6 0 0 0-.446-1.33c-.267-.394-.638-.707-1.071-.905l-46.634-3.944-1.03.314a3.6 3.6 0 0 0-1.231 1.502 2.8 2.8 0 0 0 1.723 3.357l33.779 2.857c4.783.404 11.26.952 12.089 1.825s-6.462.457-7.358.381a36.29 36.29 0 0 1-4.684-.396c-2.848-.743-7.24-1.014-11.317-1.459l-3.288-.278z"/></g></g><g clip-path="url(#B)"><path d="M229.698 216.589a46.43 46.43 0 0 1-6.142 1.925c-6.615 1.651-13.426 2.057-20.219 1.298-26.122-2.915-46.886-23.285-44.326-46.217.753-6.248 4.869-11.566 10.729-13.966-23.748-1.651-32.554 22.139-34.152 36.458-4.532 40.597 32.625 48.855 40.743 49.761s11.076-.041 15.194-.859l.742-.139c15.825-3.511 29.887-12.273 40.015-24.862.724-.974.539-2.328-.436-3.103-.62-.458-1.443-.606-2.148-.296z" class="K"/><use xlink:href="#H" class="F"/><g opacity=".3" class="F"><use xlink:href="#H"/></g><path d="M157.331 236.728c-4.578-3.566-8.384-8.045-11.232-13.085-12.321-21.371-4.865-48.589 16.627-60.798 2.27-1.302 4.627-2.372 7.013-3.217 1.859-.625 4.946-1.725 8.861-1.233 5.578.623 10.524 3.897 13.397 8.717 1.879 3.209 2.689 6.965 2.334 10.647.013-.109 18.406-42.159-39.307-48.601s-46.73 17.891-48.971 37.97c-1.292 10.576-.149 21.368 3.253 31.468 11.642 33.96 46.992 53.903 82.273 46.399-12.063 2.375-24.526-.683-34.193-8.261l-.055-.006z" fill="#bfdaf3"/><use xlink:href="#I" class="F"/><g opacity=".4" class="F"><use xlink:href="#I"/></g><use xlink:href="#J" class="G"/><use xlink:href="#K" class="F"/><use xlink:href="#J" class="G"/><use xlink:href="#K" class="F"/></g><g clip-path="url(#C)" class="D L"><path d="M350.746 238.913l6.845 85.636 31.241-2.497 23.632-49.769 69.778-5.578-3.043-38.06-128.453 10.268z" class="H"/><path d="M350.8 379.355l66.447-5.311 28.379-33.311-1.844-23.074-55.029 4.399-48.063-69.174 10.11 126.471z" class="G"/><path d="M412.464 272.283l31.239 45.383-26.535 56.384 73.187-5.85-8.113-101.495-69.778 5.578z" class="I"/><path d="M417.535 335.717c17.517-1.4 30.582-16.736 29.182-34.252s-16.736-30.582-34.252-29.182-30.582 16.736-29.182 34.252 16.735 30.582 34.252 29.182z" class="C"/><path d="M438.38 302.131c1.032 12.913-8.599 24.217-21.511 25.249a23.46 23.46 0 0 1-25.249-21.511 23.46 23.46 0 0 1 21.511-25.249c12.913-1.032 24.217 8.599 25.249 21.511z" class="K"/></g><rect x="341.798" y="241.635" width="136" height="136" rx="68" transform="rotate(355.43 341.798 241.635)" class="D L"/><g clip-path="url(#D)"><path d="M537.744 180.092L274.67 202.177a8 8 0 0 0-7.303 8.641l16.229 193.32a8 8 0 0 0 8.641 7.303l263.075-22.085a8 8 0 0 0 7.302-8.641l-16.228-193.32c-.37-4.403-4.239-7.672-8.642-7.303z" class="C"/><path d="M266.177 215.284l-.16-3.098-.117-1.395c-.028-.538-.006-1.077.065-1.611a9.39 9.39 0 0 1 2.298-4.909c.89-.969 1.997-1.715 3.229-2.178a7.5 7.5 0 0 1 2.267-.492c1.104.008 1.121.207.249.582a7.48 7.48 0 0 0-2.125.981c-1.043.678-1.927 1.573-2.59 2.626-.571.979-.924 2.07-1.036 3.198-.083.633-.063 1.275.059 1.901a16.21 16.21 0 0 0 .284 2.184l1.252 10.131 2.897 24.945 5.731 56.318 6.935 82.609.779 10.472.543 6.477c.026.299.15.59.175.889.163.63.451 1.22.849 1.735a5.7 5.7 0 0 0 2.999 2.257c.614.233 1.274.315 1.927.24l55.106-4.627 116.54-10.385 58.46-5.309 34.379-2.886 1.262-.507c.769-.487 1.432-1.123 1.951-1.87.532-.736.874-1.592.995-2.492a6.58 6.58 0 0 0-.018-1.403l-1.087-12.955-13.388-151.11-1.513-16.832-1.063-12.655a7.49 7.49 0 0 0-1.148-2.915 6.3 6.3 0 0 0-2.459-1.8 3.89 3.89 0 0 0-1.545-.473l-27.104 2.276-67.745 5.887-61.359 5.452-59.258 5.376c-53.62 4.401-62.74 2.156-29.956-1.8 25.136-3.013 82.941-7.766 115.718-10.617l70.036-6.081 59.491-4.994a8.39 8.39 0 0 1 2.758.572c1.848.581 3.48 1.702 4.685 3.219 1.23 1.495 2.009 3.309 2.246 5.23l14.777 168.856 2.116 25.212c.025.57.006 1.142-.057 1.71-.255 2.26-1.257 4.369-2.848 5.993a10.2 10.2 0 0 1-5.932 2.973l-47.533 3.991-84.478 7.392-71.207 6.48-35.559 3.185-17.82 1.697-6.677.561c-.938.078-1.881.056-2.815-.065a10.5 10.5 0 0 1-8.143-7.345 11.85 11.85 0 0 1-.408-2.474l-2.669-31.788-3.234-33.748-5.979-67.637c-1.974-22.313-3.431-42.06-4.028-55.156z" class="B"/><path d="M266.432 199.206a7.92 7.92 0 0 1 .315-3.091c.309-1 .813-1.928 1.483-2.731s1.493-1.465 2.421-1.948a7.9 7.9 0 0 1 2.984-.863l61.758-5.485 201.208-17.895c2.107-.177 4.199.476 5.831 1.82a8.1 8.1 0 0 1 2.902 5.375l2.066 24.613-277.68 25.017-2.97-21.025-.318-3.787z" class="E"/><path d="M266.049 210.176l-.47-6.784c.005-1.218.104-2.435.297-3.638.29-1.329.681-.257 1.522 3.786l1.824 8.578 1.067 5.53.549 2.964.051.598.099-.008.025.299a1.1 1.1 0 0 1 .142.49l3.388-.285 5.364-.651 10.928-1.319 21.69-2.222 106.551-8.643 64.041-5.778 62.131-5.818-1.697-19.024-.251-2.99a4.89 4.89 0 0 0-.209-1.287c-.049-.371-.147-.734-.291-1.079a6.1 6.1 0 0 0-3.066-3.055c-.708-.323-1.474-.497-2.251-.513l-.498.042c-.208-.083-.499.042-.798.067l-31.788 2.668-48.114 4.24-86.562 7.668-39.245 3.495-37.941 3.486-11.477.763-8.57.72c-1.73.354-3.283 1.301-4.391 2.676a9.9 9.9 0 0 0-1.551 3.041c-.24.722-.406 1.138-.714 1.063s-.457-.664-.648-1.752c-.056-1.672.4-3.321 1.309-4.726.61-1.082 1.459-2.011 2.481-2.717a9.9 9.9 0 0 1 4.268-1.763c16.176-2.161 53.054-5.156 73.981-6.913l89.667-7.728 68.335-6.038 32.187-2.702c.931.049 1.854.207 2.749.472 1.782.486 3.394 1.456 4.659 2.802s2.131 3.017 2.504 4.825c.121.454.194.918.217 1.387l2.233 26.607-81.48 7.241-91.012 8.443-86.446 7.859-10.961.92-12.066.913c-.2-1.188-.301-2.383-.509-3.67a19.51 19.51 0 0 0-.3-2.384l-.31-3.687c-.3-2.383-.484-4.575-.643-6.469z" class="B"/><path d="M266.416 199.007c-.101-1.041.006-2.092.315-3.091s.812-1.928 1.482-2.731 1.493-1.465 2.421-1.948a7.9 7.9 0 0 1 2.985-.863l56.376-5.034a5.4 5.4 0 0 1 2.094.237c.675.215 1.302.562 1.844 1.02s.987 1.017 1.313 1.648.523 1.318.582 2.024a5.5 5.5 0 0 0 1.931 3.741c1.114.942 2.556 1.402 4.01 1.28l203.807-18.012 1.899 22.62-277.588 26.113-3.153-23.218-.318-3.786z" class="J"/><path d="M401.914 188.535l71.706-6.522 73.5-6.671 2.2 26.207-22.222 1.866-53.885 4.824-102.505 10.211-56.261 5.225c-6.576.552-13.336 1.32-19.597 2.046l-18.277 2.237-9.068.761-.893-7.05c-.233-1.586-.467-3.172-.601-4.766l-1.201-9.533a24.35 24.35 0 0 1-.127-3.903c.705.041 1.21-3.514 1.94-4.378s1.404 1.187 3.637 12.239l1.15 6.527.617 3.761c.025.299.149.59.183.988l.017.2.299-.025s-.1.008.091-.108l3.388-.285 6.66-.76 13.236-1.312 162.611-15.055 86.146-7.834-1.455-17.339-60.288 5.061-62.854 5.577-48.504 4.373-30.493 2.56c-1.482-.06-2.917-.537-4.141-1.375s-2.187-2.003-2.779-3.363a4.9 4.9 0 0 1-.566-1.959l-.092-1.096c-.226-.547-.576-1.033-1.023-1.42a2.9 2.9 0 0 0-1.462-.68l-2.69.226-41.471 3.281-9.102.362-4.002.136a7 7 0 0 0-2.857.641 8.49 8.49 0 0 0-3.618 3.515 23.54 23.54 0 0 0-1.144 3.106c-.132-.451-.204-.917-.217-1.386a7.7 7.7 0 0 1 .961-4.095 8.7 8.7 0 0 1 4.963-4.23 12.51 12.51 0 0 1 1.868-.458l1.694-.142 3.563-.6c9.399-1.592 19.605-3.151 21.996-3.352 8.363-.802 21.707-2.023 25.428-1.934l3.106-.06.996-.084 1.213.099c.799.2 1.567.506 2.284.912 1.427.779 2.579 1.979 3.299 3.436a10.11 10.11 0 0 1 .707 2.45l.117 1.395a3.4 3.4 0 0 0 1.463 1.884 2.4 2.4 0 0 0 1.147.506l61.184-5.136.025.299z" class="B"/><path d="M301.68 205.479l142.25-12.543a4.7 4.7 0 0 1 5.076 4.29 4.7 4.7 0 0 1-4.298 4.977l-142.241 12.643c-1.236.078-2.455-.325-3.401-1.124a4.8 4.8 0 0 1-1.676-3.166c-.078-1.236.325-2.455 1.124-3.401a4.8 4.8 0 0 1 3.166-1.676z" class="E"/><g class="B"><path d="M295.994 208.265c.285-.703.713-1.338 1.255-1.867a5.5 5.5 0 0 1 1.898-1.208c.677-.334 1.445-.434 2.184-.284.416.166.432.365.15.59-.57.363-1.107.777-1.602 1.238a4.2 4.2 0 0 0-1.145 1.903 3.91 3.91 0 0 0 .101 2.4 3.2 3.2 0 0 0 1.961 1.842l1.213.099 1.993-.167c5.937-1.001 12.588-1.86 18.368-2.345 17.621-1.68 36.024-2.422 54.359-3.961l38.05-3.395 19.016-1.797 11.46-.962a2.42 2.42 0 0 0 1.046-.69c.346-.382.571-.859.646-1.369s-.004-1.031-.226-1.496a2.6 2.6 0 0 0-1.021-1.118c-.444-.263-.955-.388-1.47-.359l-18.435 1.547-24.497 2.257-44.136 3.806-20.03 1.681-19.315 1.823c-17.555 1.273-20.704-1.574-10.026-3.474 8.104-1.483 26.955-2.865 37.717-3.768l45.64-3.832 53.711-4.509c.866.031 1.712.27 2.466.697.783.345 1.489.844 2.076 1.467a6.39 6.39 0 0 1 1.34 2.16c.638 1.601.68 3.377.119 5.007a6.69 6.69 0 0 1-3.303 3.689 7.08 7.08 0 0 1-2.441.807l-43.048 3.614-46.395 4.397-44.12 4.005-8.968.752a4.68 4.68 0 0 1-1.719-.156 6.81 6.81 0 0 1-2.886-1.474c-.829-.717-1.472-1.624-1.875-2.642-.657-1.564-.697-3.317-.111-4.908zm232.66-12.607c3.027-.255 5.275-2.914 5.021-5.941a5.5 5.5 0 1 0-5.021 5.941z"/><path d="M535.294 188.678c-.125-.291-.034-.399-.059-.698s-.332-.373-.349-.573l-.681-.946a8.3 8.3 0 0 0-2.294-2.216l-.947-.523-.1.009a4.2 4.2 0 0 0-1.445-.481l-.996.084c-.108-.092-.698.058-.797.067l-.98.283-.698.058a2.8 2.8 0 0 0-1.544.732l-.382.233-.1.008-.282.224a6.51 6.51 0 0 0-2.099 3.689c-.057.507-.016 1.005-.073 1.511a6.2 6.2 0 0 0 .425 2.674c.27.358.504.742.698 1.146a3.61 3.61 0 0 0 .474.863l.964.722a7.21 7.21 0 0 0 2.708 1.178l.822.232a2.5 2.5 0 0 0 1.204-.001l1.08-.291a4.21 4.21 0 0 0 1.843-.757c.91-.538 1.703-1.253 2.332-2.103a1.6 1.6 0 0 0 .639-.756 23.51 23.51 0 0 0 .813-2.276 1.51 1.51 0 0 0-.241-.724 1.5 1.5 0 0 0-.566-.513c-.292.076-.596.101-.897.076-.606-.05-1.669.441-1.652.64.039.268.028.542-.033.806-.068.292-.18.572-.331.83.016.2.05.598-.141.715s-.265.423-.556.548c-.353.169-.674.4-.946.682-.814.366-1.728.443-2.591.217-.552-.083-1.08-.278-1.554-.572a4.2 4.2 0 0 1-1.937-3.952c.057-.387.16-.766.307-1.129a2.3 2.3 0 0 1 .804-1.172l.1-.008.565-.449a2.5 2.5 0 0 1 1.361-.516c.544-.178 1.114-.26 1.686-.241a3.88 3.88 0 0 1 1.466.476c.453.255.849.598 1.167 1.008.341.474.2 1.188.342 1.678s.116.191.324.274l.316.174.797-.067c.913.124 2.175-.383 2.034-.873zm-211.088 8.989l-45.316 4.106c-.925.077-1.843-.216-2.552-.815a3.5 3.5 0 0 1-.414-4.932c.6-.709 1.456-1.151 2.381-1.229l45.315-4.105a3.5 3.5 0 0 1 2.552.814c.709.6 1.151 1.456 1.229 2.381.052.461.01.927-.124 1.371s-.358.855-.657 1.209a3.42 3.42 0 0 1-1.083.85c-.415.206-.868.325-1.331.35z"/><path d="M297.65 200.499l-17.023 1.629-2.193.184a4.1 4.1 0 0 1-2.384-.903 4.2 4.2 0 0 1-1.344-1.995c-.244-.782-.254-1.618-.029-2.406a4.3 4.3 0 0 1 1.436-2.027c.657-.542 1.49-.826 2.341-.799l14.051-1.179 18.709-1.872 12.057-1.012c.671-.156 1.373-.11 2.018.132a4.2 4.2 0 0 1 1.77 1.029c.495.483.864 1.082 1.072 1.743.301.928.242 1.936-.164 2.823-.385.916-1.062 1.678-1.925 2.169l-.798.067c-.116-.191-.83-.332-1.046-.514s-.025-.299.265-.424c.468-.3.909-.64 1.32-1.014a2.7 2.7 0 0 0 .596-2.459c-.103-.465-.331-.893-.661-1.237s-.748-.59-1.208-.713l-46.636 3.915-.963.482a3.61 3.61 0 0 0-.963 1.687c-.067.694.127 1.389.545 1.948a2.8 2.8 0 0 0 1.716 1.073l33.781-2.836c4.783-.401 11.261-.945 12.224-.223s-6.293 1.532-7.19 1.607a36.37 36.37 0 0 1-4.684.393c-2.932-.255-7.308.212-11.402.456l-3.288.276z"/></g></g><g clip-path="url(#E)"><path d="M342.435 232.435l7.721 95.896 34.912-2.798 26.519-55.724 77.993-6.267-3.357-42.521-143.788 11.414z" class="H"/><path d="M343.106 232.658c-2.35-1.118 1.007-2.909 22.156-5.035 1.566-.224 7.161-.224 10.966-.559l93.658-7.498 18.91-1.566 4.028 48.228-20.924 1.678-41.178 2.909-10.743.896-4.252.447h-2.461v.224l-.224.448-1.007 2.238-2.238 4.699-5.259 11.302-17.568 36.702-31.779 2.462-7.273.559-1.903-23.162-1.79-20.59c-1.758-17.287-2.617-34.655-2.574-52.032.112-5.595 3.022-1.79 3.917 2.238 1.566 6.826 1.902 18.463 2.35 26.856.783 19.022 2.126 39.611 3.692 59.641.112 1.231.112 2.35.112 2.461l19.023-1.454 13.427-1.119 20.589-43.864 5.707-12.085 53.151-4.028 16.673-1.455 5.259-.447h2.238c-.092-.328-.129-.668-.112-1.007-.13-.815-.204-1.637-.224-2.462-.223-1.902-.335-3.805-.559-6.043l-1.567-18.91-.895-10.183-11.525.895-17.792 1.455-26.967 2.462-17.792 1.454-23.722 1.791c-3.692.559-44.423 5.035-43.528 1.454z" class="B"/><path d="M342.547 389.65l74.299-5.93 31.779-37.262-2.014-25.848-61.655 4.923-53.711-77.432 11.302 141.549z" class="G"/><path d="M343.442 387.3c-.112 3.133-1.119 2.909-1.679.671s-1.678-8.952-2.797-18.91c-3.133-28.31-6.154-63.446-8.616-98.806l-.783-10.518L328 239.148l32.114 46.437 26.184 37.374 12.869-1.007 49.794-4.14 2.462 29.541-33.234 38.828-23.946 1.678c-20.477 1.455-42.968 2.91-48.451 2.574-10.742-.671 7.497-2.909 23.834-4.924l23.051-2.238 22.938-2.014 30.325-35.695-1.567-20.029c0-.672-.112-1.231-.112-1.903v-.223l-60.424 4.699-27.639-39.723-13.54-19.47-6.825-9.624-.672-1.007h-.111v-.223l-.336-.336c.092.25.13.517.112.783l.671 7.05 1.455 17.008 4.699 62.551c1.008 20.365 2.126 33.009 1.791 42.185z" class="B"/><path d="M411.587 269.809l34.912 50.801-29.652 63.11 81.796-6.602-9.063-113.576-77.993 6.267z" class="I"/><path d="M433.295 352.5l-7.497 16.002-6.154 13.315 38.045-3.244 20.365-1.679 18.575-1.455-.224-3.468-2.573-35.248-5.931-67.25c0-.336-.112-1.119-.336-3.469l-28.869 2.238c-4.364.336-8.84.783-12.868 1.343l-11.973 1.566c-5.483.448-11.19.783-16.785 1.007-1.007.112-2.573 0-2.573-.223s-9.4-2.798 5.147-5.372c6.602-1.119 17.568-2.237 26.631-3.021l21.597-1.678 24.953-2.014 5.147 67.138L502 380.027l-43.975 3.245-45.654 3.581 11.973-25.624 9.847-21.037 9.175-19.246-9.064-13.316c-9.735-14.323-22.827-33.569-22.491-37.933 0-.672 15.778 17.344 17.568 19.917 3.245 4.476 8.168 11.638 9.287 13.875 1.234 2.614 2.616 5.155 4.141 7.61l2.461 4.14a24.04 24.04 0 0 0 1.455 2.126c.559 1.007 1.343 2.014 2.014 3.133s-2.014 3.916-2.909 5.93l-2.574 5.148-4.811 10.294-5.148 10.63z" class="B"/><path d="M417.294 340.862c7.042-.555 13.762-3.187 19.307-7.563a35.7 35.7 0 0 0 12.231-37.753c-1.926-6.796-5.825-12.869-11.204-17.448s-11.996-7.46-19.013-8.276a35.69 35.69 0 0 0-20.406 3.689c-6.287 3.222-11.476 8.237-14.911 14.41a35.7 35.7 0 0 0-4.385 20.268c.367 4.668 1.652 9.218 3.781 13.388s5.061 7.88 8.626 10.916a35.59 35.59 0 0 0 12.153 6.773 35.56 35.56 0 0 0 13.821 1.596z" class="C"/><path d="M413.378 339.073c3.692.559 5.259 1.454 2.238 2.461l-1.902.448-2.35.336h-3.022c-1.007-.112-2.126 0-3.244-.224a32 32 0 0 1-12.981-5.147c-2.84-2.002-5.367-4.416-7.497-7.162-2.162-2.703-3.898-5.722-5.147-8.952l-.559-1.23-.336-1.231c-.224-.895-.56-1.679-.783-2.462l-.448-2.574a5.6 5.6 0 0 1-.224-1.342v-1.231c-.125-.853-.2-1.712-.224-2.574v-2.574l.448-5.259c1.279-9.572 6.162-18.296 13.651-24.393a38.48 38.48 0 0 1 12.645-6.826 40.63 40.63 0 0 1 14.211-1.567c6.286.513 12.336 2.632 17.568 6.155l.895.559 1.007.784 1.79 1.454 1.679 1.567 1.678 1.678 1.567 1.679 1.342 1.902c1.008 1.231 1.679 2.574 2.574 3.916a37.04 37.04 0 0 1 1.79 32.227 40.29 40.29 0 0 1-8.392 12.644c-3.332 3.608-7.421 6.436-11.973 8.28l-4.252 1.231-3.469.224a6.6 6.6 0 0 1-3.804-.895c-.56-.448-.56-1.007.112-1.566.357-.336.775-.602 1.231-.784l2.237-.895c3.715-1.242 7.281-2.893 10.631-4.923a33.48 33.48 0 0 0 9.287-8.728c2.877-4.121 4.824-8.817 5.707-13.764a32 32 0 0 0-1.119-14.882l-.671-2.126c-.345-.65-.644-1.323-.896-2.014l-.559-1.007c-.144-.358-.332-.697-.56-1.007a18 18 0 0 0-1.119-2.015c-1.699-2.502-3.69-4.793-5.93-6.825a33.68 33.68 0 0 0-16.225-7.721c-1.479-.26-2.975-.41-4.476-.448h-4.588l-2.238.224-2.238.559-1.119.224-1.119.336-2.126.783c-2.822 1.16-5.49 2.663-7.944 4.476l-1.679 1.567-.895.671-.783.895-1.567 1.679-1.455 1.79c-2.903 4.077-4.849 8.757-5.69 13.691a33.23 33.23 0 0 0 .829 14.804c1.388 4.809 3.844 9.242 7.186 12.969s7.481 6.651 12.11 8.554a70.48 70.48 0 0 0 11.19 3.581z" class="B"/><path d="M439.002 303.378c.383 4.852-.682 9.708-3.058 13.955a24.62 24.62 0 0 1-24.357 12.428 24.61 24.61 0 0 1-13.094-5.713 24.62 24.62 0 0 1-7.456-26.309 24.62 24.62 0 0 1 8.151-11.733c3.817-3.02 8.444-4.84 13.295-5.232 6.508-.495 12.949 1.604 17.917 5.838s8.06 10.261 8.602 16.766z" class="K"/><path d="M440.456 300.356c-.335 3.021-1.23 3.916-2.237 2.014l-.672-1.119-.671-1.454c-.191-.236-.342-.5-.448-.784-.124-.274-.274-.536-.447-.783l-1.008-1.678a35.74 35.74 0 0 0-5.147-6.267 32.95 32.95 0 0 0-4.476-3.58c-1.675-1.081-3.479-1.945-5.371-2.574l-.671-.224-.783-.224-1.455-.335-3.021-.336a23.07 23.07 0 0 0-6.155.671 22.27 22.27 0 0 0-13.092 10.519c-2.769 5.058-3.49 10.986-2.014 16.56.866 3.594 2.621 6.912 5.104 9.649a22.04 22.04 0 0 0 9.107 6.017 23.61 23.61 0 0 0 9.725 1.006 23.62 23.62 0 0 0 9.298-3.02 19.36 19.36 0 0 0 6.49-5.931 27.11 27.11 0 0 0 3.469-7.832c1.119-3.805 1.678-6.155 2.797-6.938a1.12 1.12 0 0 1 1.567 0c.693.814 1.087 1.841 1.119 2.909.447 2.238-.112 6.043-1.567 9.623-2.412 5.578-6.617 10.192-11.947 13.111a27.31 27.31 0 0 1-17.482 3.003 28.43 28.43 0 0 1-7.273-2.126c-2.253-1.023-4.36-2.34-6.267-3.917a28.65 28.65 0 0 1-8.28-12.308c-.447-1.231-.559-2.462-.895-3.693s-.112-1.231-.224-1.79a10.92 10.92 0 0 1-.112-1.903v-1.79l.224-1.902v-.895l.224-1.008.335-1.79a40.39 40.39 0 0 1 2.686-6.938c1.2-2.147 2.708-4.108 4.476-5.818 2.951-3.016 6.551-5.319 10.526-6.735s8.22-1.906 12.413-1.434a27.2 27.2 0 0 1 11.231 4.167 27.19 27.19 0 0 1 8.351 8.59 16.78 16.78 0 0 1 2.573 9.287z" class="B"/></g><path d="M408.422 230.223c20.207-1.596 40.228 4.796 55.665 17.773s25.027 31.476 26.662 51.432h0c.814 9.894-.356 19.85-3.445 29.296s-8.034 18.197-14.554 25.751-14.486 13.763-23.44 18.271-18.721 7.224-28.741 7.996h0c-20.207 1.596-40.228-4.797-55.665-17.773s-25.027-31.476-26.661-51.432h0c-.8-9.891.381-19.841 3.475-29.281s8.042-18.185 14.559-25.736 14.477-13.76 23.424-18.273a77.21 77.21 0 0 1 28.721-8.024z" stroke-width="5" class="D"/><g clip-path="url(#F)"><path d="M341.939 320.473L78.291 306.844a8 8 0 0 0-8.402 7.576L59.873 508.162a8 8 0 0 0 7.576 8.402l263.648 13.629a8 8 0 0 0 8.402-7.576l10.016-193.741c.228-4.413-3.164-8.174-7.576-8.403z" class="C"/><path d="M68.106 318.685l.26-3.091.072-1.398c.045-.537.14-1.068.282-1.588.511-1.774 1.533-3.358 2.939-4.554 1.014-.84 2.21-1.43 3.494-1.722.757-.18 1.537-.241 2.312-.181 1.093.157 1.083.356.169.61a7.48 7.48 0 0 0-2.238.685c-1.125.531-2.121 1.299-2.92 2.252-.698.893-1.195 1.926-1.458 3.029a5.9 5.9 0 0 0-.198 1.892 16.2 16.2 0 0 0-.014 2.202l-.127 10.207-.497 25.108-1.923 56.576-4.28 82.79-.642 10.481-.336 6.491c-.015.3.069.604.053.904.076.646.282 1.27.606 1.834a5.7 5.7 0 0 0 2.667 2.641c.577.314 1.22.484 1.877.498l55.226 2.854 116.875 5.442 58.643 2.631 34.454 1.781 1.319-.333c.827-.378 1.57-.918 2.185-1.589a5.5 5.5 0 0 0 1.322-2.335c.107-.457.164-.924.172-1.393l.671-12.983 7.133-151.533.772-16.883.656-12.683c-.031-1.055-.284-2.092-.744-3.043a6.31 6.31 0 0 0-2.193-2.116c-.437-.325-.937-.556-1.468-.676l-27.163-1.404-67.92-3.311-61.533-2.881-59.442-2.672c-53.723-2.878-62.456-6.333-29.438-5.828 25.313.408 83.23 3.502 116.092 5.1l70.216 3.43 59.621 3.082a8.4 8.4 0 0 1 2.655.938c1.753.826 3.218 2.157 4.208 3.823a10.21 10.21 0 0 1 1.519 5.485l-8.152 169.305-1.306 25.267c-.052.569-.148 1.133-.287 1.687-.558 2.204-1.836 4.159-3.632 5.554s-4.005 2.15-6.279 2.145l-47.636-2.463-84.703-4.078-71.43-3.192-35.663-1.643-17.886-.725-6.691-.346a13.29 13.29 0 0 1-2.781-.444c-1.837-.608-3.47-1.713-4.719-3.191a10.5 10.5 0 0 1-2.358-5.185c-.112-.831-.135-1.672-.071-2.507l1.647-31.858 1.351-33.875 3.206-67.825c1.057-22.376 2.279-42.139 3.454-55.195z" class="B"/><path d="M70.53 302.788a7.9 7.9 0 0 1 .729-3.02c.441-.949 1.065-1.8 1.838-2.506s1.677-1.25 2.662-1.603a7.9 7.9 0 0 1 3.074-.452l61.933 2.901 201.782 9.43c2.112.108 4.097 1.038 5.532 2.59a8.1 8.1 0 0 1 2.15 5.717l-1.276 24.667-278.515-12.695-.104-21.234.196-3.795z" class="E"/><path d="M68.669 313.606l.451-6.785c.169-1.207.431-2.399.785-3.565.467-1.277.709-.163.997 3.957l.649 8.745.31 5.624.145 3.011-.031.6.1.005-.016.299a1.1 1.1 0 0 1 .074.505l3.395.175 5.403.079 11.006.169 21.792.726 106.742 5.818 64.234 2.92 62.348 2.623.886-19.08.155-2.996a4.9 4.9 0 0 0-.032-1.303 4.36 4.36 0 0 0-.143-1.109c-.426-1.429-1.36-2.653-2.626-3.44-.658-.416-1.393-.692-2.161-.813l-.5-.026c-.194-.11-.499-.026-.798-.041l-31.858-1.647-48.246-2.294-86.805-4.087-39.357-1.834-38.065-1.667-11.474-.794-8.589-.444c-1.762.118-3.429.846-4.713 2.06a9.89 9.89 0 0 0-1.947 2.803c-.336.683-.556 1.072-.85.957s-.363-.72-.406-1.823c.17-1.665.846-3.237 1.935-4.506.751-.99 1.717-1.796 2.825-2.358a9.9 9.9 0 0 1 4.466-1.171c16.32.043 53.265 2.053 74.237 3.137l89.891 4.447 68.524 3.242 32.257 1.667a11.89 11.89 0 0 1 2.66.839c1.7.722 3.167 1.9 4.238 3.405s1.704 3.277 1.83 5.119a6.59 6.59 0 0 1 .027 1.404l-1.378 26.664-81.712-3.824-91.319-3.919-86.715-3.882-10.985-.568-12.079-.725c-.038-1.203.024-2.402-.009-3.705a19.29 19.29 0 0 0 .024-2.402l.191-3.695c.024-2.402.138-4.599.236-6.497z" class="B"/><path d="M70.54 302.588a7.9 7.9 0 0 1 .729-3.02 7.89 7.89 0 0 1 1.838-2.505c.772-.706 1.677-1.251 2.662-1.604a7.92 7.92 0 0 1 3.074-.452l56.54 2.622a5.42 5.42 0 0 1 2.043.517c.64.305 1.214.733 1.689 1.26a5.42 5.42 0 0 1 1.079 1.81c.237.668.34 1.377.303 2.085-.075 1.457.432 2.884 1.408 3.967a5.5 5.5 0 0 0 3.801 1.809l204.374 9.664-1.172 22.67-278.573-11.597.01-23.431.196-3.795z" class="J"/><path d="M206.212 310.504l71.93 3.217 73.727 3.311-1.357 26.265-22.271-1.151-54.043-2.494-102.945-3.719-56.451-2.418c-6.591-.341-13.392-.492-19.694-.617l-18.412-.251-9.088-.47.067-7.106c-.017-1.603-.034-3.206.048-4.804l.096-9.608c.03-1.303.164-2.602.401-3.884.694.136 1.674-3.318 2.514-4.076s1.231 1.365 1.951 12.617l.258 6.623.103 3.81c-.016.3.069.604.048 1.004l-.01.2.3.015s-.1-.005.105-.095l3.395.176 6.701.146 13.292.487 163.154 7.032 86.416 3.867.898-17.377-60.419-3.123-63.032-2.958-48.65-2.215-30.559-1.58c-1.461-.26-2.818-.925-3.918-1.921a7.9 7.9 0 0 1-2.3-3.707c-.239-.645-.34-1.332-.296-2.018l.056-1.099c-.15-.571-.431-1.1-.821-1.544-.361-.413-.831-.715-1.357-.871l-2.696-.14-41.534-2.347-9.067-.869-3.984-.407c-.979-.123-1.973-.038-2.917.25a8.5 8.5 0 0 0-4.06 2.995 23.72 23.72 0 0 0-1.553 2.923c-.069-.464-.078-.936-.028-1.403a7.7 7.7 0 0 1 1.505-3.928 8.7 8.7 0 0 1 5.489-3.521c.632-.116 1.271-.183 1.913-.201l1.698.087 3.611-.113c9.529-.309 19.851-.476 22.248-.352 8.394.333 21.781.925 25.455 1.516l3.086.36.999.051 1.188.262a9.08 9.08 0 0 1 2.14 1.212c1.309.964 2.288 2.309 2.805 3.85.229.822.354 1.669.37 2.523l-.072 1.398c.136.81.56 1.543 1.195 2.064.291.309.66.536 1.068.656l61.318 3.17-.016.3z" class="B"/><path d="M104.609 313.762l142.64 6.773c1.245.065 2.413.621 3.248 1.547s1.268 2.145 1.203 3.39c-.089 1.226-.656 2.368-1.578 3.181s-2.125 1.234-3.353 1.17l-142.646-6.673c-1.235-.09-2.388-.653-3.218-1.573s-1.271-2.125-1.233-3.364a4.8 4.8 0 0 1 1.573-3.218c.92-.829 2.125-1.271 3.364-1.233z" class="E"/><g class="B"><path d="M98.598 315.755a5.51 5.51 0 0 1 1.496-1.681 5.49 5.49 0 0 1 2.044-.94c.715-.24 1.49-.235 2.202.014.389.22.379.42.069.604a11.08 11.08 0 0 0-1.755 1.011 4.2 4.2 0 0 0-1.391 1.73c-.324.754-.403 1.591-.224 2.392.114.45.324.871.617 1.232a3.19 3.19 0 0 0 1.078.858l1.188.262 1.997.103c6.018-.189 12.724-.143 18.517.156 17.686.714 36.021 2.463 54.396 3.413l38.159 1.772 19.085.787 11.485.594c.418-.078.808-.265 1.129-.543.395-.332.682-.773.825-1.269a2.6 2.6 0 0 0-.021-1.513c-.157-.491-.457-.924-.861-1.245a2.61 2.61 0 0 0-1.408-.555l-18.475-.955-24.578-1.07-44.246-2.187-20.073-1.038-19.385-.802c-17.566-1.108-20.302-4.354-9.465-4.795 8.231-.375 27.095.8 37.881 1.358l45.739 2.364 53.828 2.783a5.39 5.39 0 0 1 2.35 1.023 6.39 6.39 0 0 1 1.858 1.734 6.4 6.4 0 0 1 1.037 2.32 7.2 7.2 0 0 1-.558 4.978 6.7 6.7 0 0 1-3.771 3.21 7.11 7.11 0 0 1-2.527.47l-43.143-2.23-46.563-1.907-44.257-1.987-8.988-.465a4.69 4.69 0 0 1-1.682-.387 6.81 6.81 0 0 1-2.66-1.85 6.8 6.8 0 0 1-1.502-2.871 6.7 6.7 0 0 1 .552-4.878zm232.233 18.914a5.5 5.5 0 1 0 .568-10.985 5.5 5.5 0 1 0-.568 10.985z"/><path d="M338.352 328.649c-.085-.305.02-.399.036-.699s-.279-.415-.269-.615l-.548-1.029a8.27 8.27 0 0 0-1.973-2.505l-.868-.646-.1-.005a4.2 4.2 0 0 0-1.367-.672l-.998-.051c-.095-.105-.699-.036-.799-.042l-1.009.148-.699-.036c-.584-.001-1.153.179-1.629.517l-.41.179-.1-.005-.31.184a6.5 6.5 0 0 0-2.577 3.372c-.126.494-.152.993-.277 1.487a6.2 6.2 0 0 0 .06 2.707c.22.391.4.803.537 1.229.075.322.194.631.353.92l.858.845c.726.68 1.586 1.202 2.524 1.533l.783.34c.379.151.789.206 1.194.162l1.108-.143c.674-.01 1.336-.181 1.929-.501a7.91 7.91 0 0 0 2.595-1.768c.309-.138.566-.37.735-.663.407-.696.778-1.412 1.112-2.146.019-.258-.03-.516-.14-.75a1.49 1.49 0 0 0-.492-.584c-.3.035-.604.019-.899-.046-.594-.131-1.713.211-1.723.411a2.22 2.22 0 0 1-.141.794c-.108.28-.256.542-.441.778-.01.2-.031.599-.236.689s-.32.384-.625.468a3.31 3.31 0 0 0-1.03.548c-.855.253-1.771.206-2.596-.134-.535-.157-1.033-.421-1.462-.777a4.2 4.2 0 0 1-1.386-4.177 4.87 4.87 0 0 1 .456-1.078 2.3 2.3 0 0 1 .956-1.052l.099.005.62-.368a2.49 2.49 0 0 1 1.419-.327c.563-.104 1.139-.108 1.703-.013a3.9 3.9 0 0 1 1.389.671 3.92 3.92 0 0 1 1.02 1.156c.274.515.038 1.204.112 1.708s.089.205.284.315l.289.216.799.041c.889.246 2.208-.086 2.134-.591zm-210.37-19.586l-45.454-2.05a3.5 3.5 0 0 1-3.315-3.676c.048-.927.462-1.797 1.152-2.418a3.5 3.5 0 0 1 2.524-.896l45.455 2.049c.927.048 1.797.462 2.418 1.152a3.5 3.5 0 0 1 .896 2.524 3.4 3.4 0 0 1-.307 1.342c-.193.421-.471.799-.815 1.109a3.41 3.41 0 0 1-2.554.864z"/><path d="M101.287 308.284l-17.088-.683-2.197-.114a4.1 4.1 0 0 1-2.24-1.217c-.557-.601-.926-1.351-1.062-2.159a4.2 4.2 0 0 1 .296-2.387 4.3 4.3 0 0 1 1.696-1.815c.725-.448 1.588-.617 2.428-.475l14.081.728 18.79.671 12.084.624a3.51 3.51 0 0 1 1.982.403c.633.28 1.188.713 1.614 1.259s.71 1.189.828 1.872a3.9 3.9 0 0 1-.544 2.775 4.5 4.5 0 0 1-2.201 1.889l-.799-.041c-.089-.205-.778-.441-.968-.651s.016-.3.321-.384c.504-.234.987-.511 1.444-.827a2.69 2.69 0 0 0 .755-1.063 2.7 2.7 0 0 0 .168-1.292c-.039-.475-.208-.93-.488-1.315a2.6 2.6 0 0 0-1.101-.87l-46.738-2.416-1.019.348a3.6 3.6 0 0 0-1.181 1.541 2.8 2.8 0 0 0 1.832 3.299l33.855 1.75c4.793.248 11.285.583 12.142 1.429s-6.443.668-7.342.621c-1.568.021-3.136-.06-4.693-.242-2.871-.649-7.27-.776-11.359-1.088l-3.296-.17z"/></g></g><g clip-path="url(#G)"><g class="H"><path d="M272.199 413.064c-2.395-7.684-7.852-16.215-12.385-19.202a72.84 72.84 0 0 1 4.987 22.153c-6.049-20.719-18.764-30.052-28.18-48.628l-1.422-2.889c-.208-.504-.389-1.019-.543-1.541-.374-.914-.636-1.87-.78-2.847.007-.107-.1-.114-.093-.221l-.321-.021c-18.741 8.652-26.636 27.268-28.129 36.845a35.51 35.51 0 0 0-20.156 5.656l-1.72-1.618a33.69 33.69 0 0 1 1.459-17.213 52.26 52.26 0 0 0-18.282 11.478c-2.436-3.816-1.122-15.555-.746-18.003l-2.432 1.022c-2.668 1.546-5.195 3.321-7.554 5.306a67.77 67.77 0 0 0-7.36 7.255c-5.137 6.035-9.065 13.003-11.569 20.522l-.029.429-1.039 4.339c-.007.107-.114.1-.121.207a73.67 73.67 0 0 0-2.035 9.649l-.021.321c-1.644 17.669 3.388 35.313 14.103 49.458a71.01 71.01 0 0 0 43.79 26.968 71.02 71.02 0 0 0 81.258-50.892c.163-.849.441-1.798.605-2.647a72.73 72.73 0 0 0-1.171-35.986l-.114.1zm-86.78 47.484l.935.492-.928-.599-.007.107z"/><path d="M272.199 413.064c-2.395-7.684-7.852-16.215-12.385-19.202 2.81 7.078 4.493 14.554 4.987 22.154 4 16.114 1.563 33.153-6.794 47.5-9.801 16.554-31.064 32.459-61.772 28.602-33.056-4.119-59.839-31.583-62.192-64.314-.517-5.195.723-7.693 1.634-11.718a48.69 48.69 0 0 0-2.035 9.649l-.021.321c-1.644 17.669 3.388 35.313 14.102 49.458a71.02 71.02 0 0 0 43.791 26.969c17.454 3.202 35.475-.245 50.514-9.664a71.02 71.02 0 0 0 30.744-41.228c.163-.85.441-1.799.605-2.648a72.73 72.73 0 0 0-1.171-35.986l-.007.107z"/></g><path d="M237.037 418.052l.407.349a38.96 38.96 0 0 0-5.736-9.195c-19.802-24.1-1.121-48.131 1.747-49.231-18.741 8.653-26.636 27.268-28.129 36.845l2.462.163c6.299.625 12.321 2.902 17.457 6.602a35.94 35.94 0 0 1 11.792 14.467z" class="I"/><path d="M237.649 416.909c.137 1.192-.848 1.449-1.455.872a64.55 64.55 0 0 1-4.192-4.9c-3.33-3.839-7.35-7.022-11.851-9.384-2.401-1.235-4.934-2.196-7.551-2.864-1.353-.409-2.734-.716-4.133-.918l-6.208-.41.057-.857.284-1.056.477-2.334c.046-.398.144-.789.292-1.163l.064-.963.819-2.634c.391-.854.736-1.728 1.033-2.619l1.147-2.72a57.01 57.01 0 0 1 6.174-10.45A50.52 50.52 0 0 1 230.4 359.02l1.891-.95 2.764 3.73-1.564-.748.365.992.293.449-.107-.007c-.007.107-.229.2-.343.3l-.813.914a17.65 17.65 0 0 0-1.654 2.256c-1.039 1.542-1.938 3.173-2.687 4.875-1.633 3.429-2.709 7.096-3.191 10.863a33.6 33.6 0 0 0-.267 5.68 32.79 32.79 0 0 0 .709 5.53c.798 3.564 2.13 6.987 3.953 10.152.871 1.455 1.743 2.91 2.728 4.266l1.579 2.147 1.371 2.026a17.49 17.49 0 0 1 2.494 6.185c-.021.321.072.542-.042.642l-.949 1.335-.178-.549c-.272-.771.063-.964.691-.707l-.563.393c-1.114-1.042-3.271-4.194-5.691-6.612l-1.5-1.712-1.592-1.933-1.586-2.04c-.493-.677-.871-1.455-1.357-2.239a33.4 33.4 0 0 1-4.188-9.845c-.923-3.636-1.255-7.397-.984-11.139a40.89 40.89 0 0 1 2.427-10.698 41.59 41.59 0 0 1 3.499-7.402c.827-1.128 1.554-2.37 2.489-3.491l1.519-1.835.912-.8.571-.499 1.006-.579-1.013.686.107.007 2.771 3.623a47.51 47.51 0 0 0-10.101 6.428 45.61 45.61 0 0 0-8.35 9.232 53.09 53.09 0 0 0-5.774 10.907c-.385.942-.662 1.892-1.047 2.834l-.42 1.477c-.022.321-.143.528-.157.742l-.028.429-.014.214.428.028c4.07.424 8.034 1.559 11.712 3.354 3.348 1.532 6.41 3.625 9.052 6.188 2.18 2.202 4.11 4.637 5.756 7.261 1.101 1.688 1.887 3.561 2.322 5.529z" class="B"/><g fill="#7488ee"><path d="M205.661 419.419c-.227 1.812-7.039 7.276-9.173 7.027-20.188-1.979-24.627 9.877-24.627 9.877-.037 10.318 6.241 19.441 14.494 24.717l1.135.72 1.97 1.098a33.08 33.08 0 0 0 8.964 2.635c35.14 5.116 46.161-38.02 22.011-53.269a24.57 24.57 0 0 1 16.602 5.827c-2.588-5.776-6.656-10.767-11.792-14.467s-11.158-5.977-17.457-6.602l-2.462-.162c-7.134-.183-14.158 1.788-20.155 5.656 1.007 1.034 2.106 2.29 4.391 5.128 4.392 5.128 16.134 11.28 16.099 11.815z"/><path d="M169.87 435.546l1.991.777c-2.506-1.133-2.027-.241-1.621-1.505 4.96-11.606 17.949-8.06 30.199-12.841 4.757-3.664-24.029-15.456-18.68-19.941 35.505-29.692 79.496 26.969 45.678 13.231 31.99 47.913-42.19 78.813-57.567 20.279zm0 0l-.029.429.029-.429zm.107.007l-.029.429.029-.429zm-.029.429l-.021.321.021-.321zm0 0l-.021.321.021-.321zm-.021.321c-.1 11.282 6.785 20.982 15.444 26.607l-15.444-26.607z"/></g><g class="B"><path d="M168.729 438.159c.085-1.285.677-2.106 1.726-1.714 2.199.868 4.057 2.424 5.298 4.436 1.957 2.924 2.894 6.641 4.616 9.873s4.35 7.383 6.685 11.085l-3.095 2.913-2.056-1.426a42.65 42.65 0 0 1-7.368-7.26 27.13 27.13 0 0 1-4.729-8.16c-.271-.674-.477-1.371-.615-2.083-.255-.643-.463-1.304-.622-1.977a11.37 11.37 0 0 1-.615-2.083l-.258-.985a3.33 3.33 0 0 1-.036-1.077c-.059-.784.144-1.564.577-2.22.196-.358.486-.655.839-.861s.754-.312 1.162-.307a2.25 2.25 0 0 1 1.155.335c.348.214.63.518.818.881.23.422.417.867.558 1.327.054.588.159 1.171.315 1.741.085 1.191.333 2.365.737 3.489.677 2.688 1.818 5.237 3.373 7.533a36.46 36.46 0 0 0 9.275 9.321l-3.324 3.114-3.843-6.92c-1.543-2.682-3.307-5.272-4.964-7.854s-3-5.036-4.55-7.611a8.58 8.58 0 0 1-1.059-3.51z"/><use xlink:href="#L"/><use xlink:href="#L"/><use xlink:href="#M"/><use xlink:href="#M"/><g class="D"><path d="M169.63 440.798c-.852-5.001-.411-6.8 1.411-3.454l1.05 2.004.672 1.227.671 1.227c.586.899 1.057 1.898 1.636 2.904l1.95 3.031c2.806 4.159 6.267 7.836 10.247 10.891 2.826 2.14 5.985 3.801 9.351 4.918a33.35 33.35 0 0 0 10.768 1.356c7.477-.379 14.5-3.703 19.533-9.245 2.347-2.649 4.126-5.752 5.225-9.116 1.064-3.378 1.445-6.935 1.121-10.462a29.7 29.7 0 0 0-.838-5.216l-.343-1.312a6.59 6.59 0 0 0-.45-1.32l-.908-2.533c-.333-.832-.71-1.647-1.129-2.44l-.764-1.448c-.311-.799-.732-1.55-1.251-2.233l-2.514-4.251-1.364-2.133-.679-1.12-.286-.556-.192-.336 4.825 1.824 2.519.919 2.313.798 2.226.47a4.43 4.43 0 0 0 1.178.078l1.391.091a.53.53 0 0 0 .261-.199c.064-.092.098-.202.096-.315a.86.86 0 0 0-.079-.435l-.265-.877a14.79 14.79 0 0 0-2.535-3.931c-2.212-2.564-4.779-4.797-7.625-6.632-2.785-1.993-5.824-3.604-9.037-4.79-6.308-2.561-13.248-3.133-19.889-1.636-2.609.568-5.129 1.487-7.491 2.73a37.95 37.95 0 0 0-3.574 2.022l-1.583 1.186-.899.585-.457.4c-.114.1-.342.3-.249.521l.193.335.107.008.4.456a42.33 42.33 0 0 0 3.769 3.152l8.852 5.96 1.735 1.405.921.706.507.463.714.585c.88.761 1.555 1.729 1.964 2.817a4.28 4.28 0 0 1 .215 1.627 3.54 3.54 0 0 1-.527 1.471l-.335.192-.335.193-.778.379-1.448.764a10.8 10.8 0 0 1-1.655.644l-1.092.25c-1.431.434-2.89.768-4.366 1.002l-8.277 1.603c-2.53.424-4.979 1.242-7.256 2.424-1.751 1.007-3.27 2.372-4.458 4.005l-.712 1.028-.015.214a.55.55 0 0 0-.17.179.54.54 0 0 0-.072.236l-.228.2-.521-.25-.414-.242-.321-.022.235-.307c.014-.214.128-.314.142-.528l.022-.321 1.035.606a1.95 1.95 0 0 1 .714.585l-.656 1.784c-2.349-1.875-1.957-2.924.926-2.626l-1.297 3.354-2.247-.148-.522-.25-.299-.342-.108-.007-.199-.228a3.33 3.33 0 0 1-.23-1.413c.015-.214.022-.321.136-.421a2.4 2.4 0 0 1 .135-.421l.014-.214-.107-.007c.07-.216.156-.426.257-.629.939-2.559 2.535-4.826 4.627-6.575 2.74-1.981 5.873-3.35 9.189-4.015 3.267-.645 6.407-.975 9.233-1.433l4.031-.809 1.534-.436.107.007c.107.007.114-.1.007-.107l-.214-.014-.3-.343-.714-.584-6.268-4.392c-2.234-1.428-4.393-2.97-6.468-4.62l-1.621-1.505c-.706-.622-1.311-1.352-1.792-2.161-.732-.932-1.078-2.11-.965-3.289.052-.583.22-1.15.494-1.667a4.4 4.4 0 0 1 1.102-1.346l1.248-.992.906-.693 1.912-1.271 2.019-1.265 2.118-1.15a36.69 36.69 0 0 1 18.958-3.8 44.09 44.09 0 0 1 18.229 5.612 49.46 49.46 0 0 1 7.917 5.469 30.24 30.24 0 0 1 6.505 7.31c.503.729.92 1.514 1.243 2.34a5.36 5.36 0 0 1 .443 1.427 5.05 5.05 0 0 1 .201 1.841c.034.669-.086 1.337-.351 1.954s-.666 1.163-1.174 1.6a6.01 6.01 0 0 1-3.531 1.38l-3.105-.206c.107.008.007-.107.007-.107l-.428-.028-.942-.385.107.007-.014.214.393.564.65 1.548.657 1.441a5.6 5.6 0 0 1 .551 1.434l1.101 2.868.765 3.061c.079.435.257.985.329 1.527l.222 1.52a26.66 26.66 0 0 1 .33 3.139l.038 2.69-.184 2.784c-.122 1.803-.456 3.585-.996 5.309a34.86 34.86 0 0 1-4.947 9.779c-2.298 2.818-4.996 5.284-8.009 7.32a33.79 33.79 0 0 1-10.073 4.387 32.84 32.84 0 0 1-10.289 1.148c-1.718-.114-3.427-.335-5.117-.661l-2.541-.598-2.527-.812c-5.82-2.249-10.987-5.918-15.029-10.672a37.44 37.44 0 0 1-8.114-16.551l.149-.636z"/></g></g><path d="M171.954 436.544c-.1-.114.021-.321.028-.428s6.023-11.428 24.506-9.67c1.499.099 5.215-2.45 7.397-4.564a1.07 1.07 0 0 0 .325-1.347 1.07 1.07 0 0 0-1.275-.543 35.51 35.51 0 0 1-23.701-4.146 26.38 26.38 0 0 0-12.84-4.181 26.81 26.81 0 0 0-12.301 2.305c-.13.047-.248.122-.347.219a.96.96 0 0 0-.224.344c-.049.129-.07.267-.061.405a.96.96 0 0 0 .112.395c1.242 2.911 3.176 5.475 5.635 7.468a18.77 18.77 0 0 0 8.579 3.577c.147.006.291.045.42.115s.241.169.327.289a.97.97 0 0 1 .139.837c-1.927 11.269 3.105 24.61 16.746 32.929l.935.492c-8.145-5.268-14.43-14.284-14.4-24.496z" class="D I L"/><path fill-rule="evenodd" d="M186.348 461.147c-13.992-7.912-19.723-22.052-17.675-33.528.024-.14.021-.283-.011-.421s-.09-.269-.173-.384a1.06 1.06 0 0 0-.307-.289c-.12-.074-.254-.124-.394-.147a18.78 18.78 0 0 1-8.58-3.577c-1.442-.956-7.554-7.703-5.114-8.831a26.82 26.82 0 0 1 12.3-2.306c4.561.308 8.973 1.745 12.841 4.182a35.4 35.4 0 0 0 24.128 4.174c.196-.071.369-.193.503-.352s.223-.352.258-.557a1.18 1.18 0 0 0-.057-.611c-.072-.195-.195-.367-.355-.5l-1.142-.613c-4.126-2.638-10.637-6.616-13.6-10.574-2.8-3.195-3.178-3.973-5.52-5.955a32.71 32.71 0 0 1 .783-15.108 1.07 1.07 0 0 0-.32-1.072c-.147-.132-.328-.221-.522-.257a1.07 1.07 0 0 0-.579.053c-5.279 2.211-10.165 5.265-14.466 9.043-.157.14-.269.322-.322.525a1.07 1.07 0 0 0 .02.617c.067.199.191.374.356.503a1.08 1.08 0 0 0 .575.224c3.09.419 11.584 3.668 15.196 5.949-4.999-5.705-17.116-6.183-17.544-6.212-2.043-3.252-1.463-12.03-.973-16.19.092-1.392-1.306-1.377-2.212-.684-15.579 9.614-24.506 22.678-28.47 40.37-9.361 37.548 18.493 78.092 56.474 84.149 35.855 7.314 74.032-17.256 81.774-53.083 3.957-17.585 2.168-39.313-10.257-53.035-.169-.171-.389-.28-.627-.311s-.479.019-.685.142a1.07 1.07 0 0 0-.452.534c-.087.223-.096.47-.027.699a74.16 74.16 0 0 1 2.976 11.915c.04.137.053.28.038.422a1.07 1.07 0 0 1-.126.405c-.068.125-.16.236-.271.325a1.07 1.07 0 0 1-.375.197c-.137.041-.28.054-.422.039s-.279-.058-.405-.126-.236-.161-.325-.272a1.07 1.07 0 0 1-.197-.375c-3.322-6.67-8.938-17.684-13.073-23.441s-10.843-18.133-13.908-23.818a2.13 2.13 0 0 0-.729-.794 2.14 2.14 0 0 0-1.024-.339 2.15 2.15 0 0 0-1.059.201c-.33.156-.615.394-.827.692-4.884 7.203-15.555 27.14.263 46.461a32.85 32.85 0 0 1 4.121 5.97 1.07 1.07 0 0 1 .092.664 1.06 1.06 0 0 1-.319.589c-.167.157-.379.257-.606.285a1.07 1.07 0 0 1-.658-.131c-2.905-1.589-7.38-3.82-10.263-4.118-.225-.015-.449.041-.64.16s-.339.296-.424.505a1.07 1.07 0 0 0-.05.657c.053.219.173.415.344.562 25.853 23.64-1.345 65.922-36.957 46.798zm10.08 31.306c-34.869-4.346-65.423-36.575-61.79-72.028a19.19 19.19 0 0 0-.602 7.486c1.24 33.302 33.233 61.648 62.392 64.542zm-13.485-92.059l-.514-.356.514.356z" class="H"/><g class="B"><path d="M183.535 399.573l-1.056 1.328-.813.914c-.584.714-.805.807-.563.393s.021-.322-.086-.329l2.924-3.569.107.007c.114-.1.335-.193.2.228a7.18 7.18 0 0 1-.72 1.135l-1.869 2.242c-.57.5-.67.386-.549.179s-.1-.115-.093-.222l2.924-3.569.428.028c.114-.1.221-.093-.014.214-.222.378-.499.722-.82 1.021zm12 91.746c1.364.52 1.086 1.47-.006 1.72a27.36 27.36 0 0 1-9.205-.608c-7.362-1.653-14.374-4.591-20.714-8.679-7.131-4.508-13.412-10.237-18.556-16.923-5.081-6.333-9.078-13.462-11.83-21.1-1.453-4.106-2.47-8.353-3.033-12.672-.287-2.169-.367-4.217-.539-6.486-.107-2.228.113-4.459.652-6.623l4.682.74c-.447 4.008-.389 8.057.171 12.052a58.37 58.37 0 0 0 4.241 15.547c2.181 5.054 4.971 9.823 8.308 14.202a75.33 75.33 0 0 0 5.391 6.269c2.021 1.962 3.934 3.916 6.076 5.67 4.131 3.449 8.618 6.449 13.385 8.947a82.88 82.88 0 0 0 12.441 5.338c3.79 1.218 6.966 1.965 8.115 2.471s1.4 1.598-1.183 1.642c-3.561-.008-7.106-.459-10.555-1.342a70.79 70.79 0 0 1-24.448-12.367 75.63 75.63 0 0 1-18.759-21.988c-.772-1.341-1.329-2.668-2.093-4.116s-1.215-2.769-1.766-4.202a58.63 58.63 0 0 1-2.731-9.104 54.74 54.74 0 0 1-1.411-9.554 60.3 60.3 0 0 1 .115-9.884l4.574.733c-.488 1.955-.657 3.977-.503 5.987.137 1.192.173 2.269.209 3.347l.43 3.253c.66 4.353 1.821 8.615 3.462 12.7a69.32 69.32 0 0 0 14.377 21.592 90.65 90.65 0 0 0 11.295 9.669c3.65 2.606 7.484 4.943 11.472 6.994a59.75 59.75 0 0 0 10.564 4.461c2.954.84 5.381 1.538 7.372 2.314z"/><path d="M189.61 463.836c-2.491-1.348-3.505-2.275-3.377-2.589l.236-.307-.236.307c.129-.314 1.299-.129 3.183.64 3.758 1.362 7.675 2.235 11.655 2.598 3.121.23 6.259-.034 9.297-.783 3.737-.961 7.226-2.71 10.23-5.13a27.35 27.35 0 0 0 9.745-28.706 27.66 27.66 0 0 0-3.58-7.655l-1.178-1.691-1.393-1.704a9.97 9.97 0 0 0-1.513-1.498l-.7-.799-.4-.456a2.9 2.9 0 0 1-1.079-1.577 3.54 3.54 0 0 1-.038-1.864 3.55 3.55 0 0 1 .914-1.626c.488-.512 1.108-.88 1.791-1.064l1.498.099 2.641.712 2.419.805.536.035.014-.214-.2-.228-.107-.007-.3-.342-.593-.792-1.185-1.583c-.325-.549-.685-1.076-1.079-1.577l-.964-1.676-.964-1.677c-.326-.571-.61-1.164-.851-1.776-2.287-4.834-3.41-10.137-3.277-15.483a42.7 42.7 0 0 1 3.387-15.473c1.026-2.475 2.227-4.875 3.592-7.18l.485-.828.713-1.028c.54-1.081 1.483-1.907 2.625-2.3 1.107-.428 2.335-.424 3.439.012 1.096.391 2.004 1.18 2.542 2.211l3.079 5.471c.857 1.67 1.822 3.346 2.786 5.022l5.793 9.952 3.228 4.836c1.072 1.683 2.143 3.367 3.1 5.15l5.551 10.365 2.193 4.23 1.044 2.112-.029.428-1.22.565c-.114.1-.221.093-.114.1l-.214-.015-1.191.137-.244-1.199-.143-1.085-.172-.656-.243-1.199c-.329-1.526-.659-3.053-1.095-4.587s-.536-1.648-.7-2.412l-.172-.656c-.1-.114.014-.214-.086-.328l.05-.75c.107-.547.287-1.077.534-1.577l.242-.414a1.83 1.83 0 0 1 .692-.707 4.81 4.81 0 0 1 1.327-.557l.535.035.414.242 1.784.656.215.014.292.449.6.685 1.3 1.484 1.185 1.583 1.165 1.905 1.164 1.904.586.899.193.335.192.335 1.129 2.44a54.67 54.67 0 0 1 3.296 10.324c.846 3.562 1.362 7.195 1.541 10.853a94.17 94.17 0 0 1-.086 11.068c-.359 3.718-.926 7.413-1.699 11.068l.028-.428-.028.428c-3.01 13.238-9.824 25.306-19.603 34.721a76.17 76.17 0 0 1-35.147 19.395c-6.508 1.599-13.214 2.243-19.908 1.91a58.25 58.25 0 0 1-9.706-1.178 75.52 75.52 0 0 1-9.527-2.243c-6.034-1.976-11.78-4.741-17.089-8.224-5.057-3.372-9.703-7.324-13.843-11.773-3.955-4.29-7.394-9.028-10.249-14.116-2.928-5.092-5.24-10.514-6.888-16.152-3.404-11.493-3.638-23.692-.678-35.308 1.314-5.877 3.388-11.559 6.17-16.901a48.24 48.24 0 0 1 4.812-7.745 57.71 57.71 0 0 1 5.933-6.812 60.61 60.61 0 0 1 6.847-5.998l1.804-1.278.45-.293.228-.2.335-.193 1.562-.864 3.125-1.729c1.008-.112 2.023.146 2.855.726.385.3.691.689.892 1.134l.172.656c.093.222.072.543.157.871s.072.542.044.97l-.191 2.891c-.092 1.391-.184 2.783-.169 4.181a39.53 39.53 0 0 0 .274 3.996c.039.625.142 1.244.308 1.848-.008.107.1.114.093.221l.963.064 2.555.384c1.655.202 3.287.562 4.874 1.075a20.38 20.38 0 0 1 9.323 5.346l-3.266 3.869a27.21 27.21 0 0 0-4.261-2.216l-4.611-1.81a9.66 9.66 0 0 0-2.313-.798l-.856-.057-1.056-.284a11.08 11.08 0 0 1-2.32-.691l-.414-.242-.307-.236c-.2-.228-.407-.349-.5-.57-.365-.481-.588-1.054-.643-1.655a2.67 2.67 0 0 1-.051-.864c.022-.264.113-.518.264-.735l.378-.835.699-.814 1.818-1.493.906-.692.457-.4 2.139-1.471c1.411-.981 2.87-1.889 4.373-2.722l1.12-.678.557-.286.442-.186.549-.179a9.36 9.36 0 0 1 2.105-.936 5.38 5.38 0 0 1 1.862-.522l.749.05.735.263c.545.255 1.033.616 1.435 1.063a3.54 3.54 0 0 1 .279.663l.272.771c.193.335-.078 1.177-.121 1.819s-.441 1.799-.605 2.648l-.092 1.392c-.145.811-.235 1.631-.269 2.455-.128 1.685-.096 3.379.096 5.059.002.401.048.8.136 1.192l-.021.321.107.007.4.456 1.006 1.034 3.599 4.108.529 1.756-.429-1.641a35.85 35.85 0 0 0 7.525 6.517l2.163 1.433 3.927 2.41.514.356.3.343.599.684.572 1.113c.111.532.111 1.081.001 1.613-.145.519-.437.985-.841 1.342l-1.127.786-.443.185-.535-.035-1.091.25-.443.186-1.819-.12-1.192.136-.964-.063c-1.861.021-3.722-.066-5.573-.261a36.81 36.81 0 0 1-10.556-2.955l-2.498-1.24-1.249-.62-1.028-.713a38.53 38.53 0 0 0-4.383-2.01c-3.056-1.003-6.271-1.434-9.484-1.272-1.61.138-3.208.392-4.781.76l-1.098.357-.878.265c-.221.093-.542.071-.564.392a.97.97 0 0 0 .286.557l1.172 1.797 1.492 1.819.807.806.407.35.214.014-.235.307.428.028a16.53 16.53 0 0 0 4.668 2.566l1.371.413.856.057 1.163.292c.728.246 1.343.744 1.735 1.404.285.684.348 1.441.18 2.162l-.212 3.212c-.064.963-.013 1.826-.07 2.683a36.23 36.23 0 0 0 .838 5.216c.726 2.97 1.917 5.806 3.53 8.404a37.02 37.02 0 0 0 7.77 9.329l2.027 1.854 1.435 1.062c.714.585.907.92.686 1.013a19.19 19.19 0 0 1-5.504-2.944c-1.786-1.247-3.457-2.652-4.99-4.2a31.68 31.68 0 0 1-4.828-6.662c-1.627-2.703-2.812-5.648-3.509-8.725-.211-.824-.371-1.661-.48-2.504a10.04 10.04 0 0 1-.265-2.491l-.129-1.298.092-1.392c-.061-.428-.068-.862-.023-1.291l.057-.857c-.1-.114.021-.321-.079-.435s-.093-.221-.307-.235l-1.377-.306c-1.721-.422-3.378-1.074-4.925-1.938l-2.163-1.433.214.014a7.86 7.86 0 0 1-1.328-1.056l-.907-.92-1.799-2.054c-.611-.686-1.139-1.443-1.571-2.254a5.47 5.47 0 0 1-1.03-3.938c.013-.334.108-.66.277-.949s.407-.532.692-.707l.792-.593.999-.471.549-.179.428.028.664-.279 1.319-.45a41.69 41.69 0 0 1 5.33-.938 29.49 29.49 0 0 1 10.998 1.157 30.43 30.43 0 0 1 5.124 2.166c1.44.871 2.933 1.651 4.469 2.338a33.04 33.04 0 0 0 9.499 2.67c1.633.233 3.284.306 4.931.218l.964.064c.107.007.228-.2.121-.207s-.207-.121-.2-.228l-.535-.036-2.263-1.547c-1.617-.992-3.161-2.1-4.619-3.315-1.549-1.239-2.97-2.629-4.241-4.151l-.529-1.755.636 1.762-3.399-3.88-.914-.813-.6-.684-.914-.813c-.182-.38-.3-.788-.35-1.206l.07-1.07a6.38 6.38 0 0 1-.122-1.406c-.211-1.931-.262-3.876-.153-5.816.046-.966.145-1.928.298-2.883l.092-1.391-.214-.015-.671.386-1.113.572c-1.341.771-2.682 1.543-3.923 2.428l-1.919 1.379-.563.393c-.002.028-.015.054-.036.073s-.05.028-.078.027l.749.049 2.52.919 4.925 1.938a41.93 41.93 0 0 1 4.989 2.587l-3.373 3.863c-1.963-1.827-4.354-3.131-6.952-3.792-1.367-.506-2.787-.853-4.233-1.032l-2.234-.363-3.96-.262c-.42-.756-.799-1.535-1.136-2.332-.197-.386-.351-.793-.457-1.213l-.265-.878a16.06 16.06 0 0 1-.437-3.146 36.29 36.29 0 0 1-.039-5.916l.155-2.355-.214-.014-.449.293-.214-.014-.564.392-1.127.786-2.047 1.692a16.54 16.54 0 0 0-2.154 1.686c-.578.607-1.362 1.092-1.947 1.806a48.33 48.33 0 0 0-6.974 7.925c-5.447 7.596-8.732 16.625-10.539 26.074-1.778 9.509-1.283 19.304 1.445 28.586 2.693 9.532 7.386 18.382 13.766 25.959a70.47 70.47 0 0 0 23.41 18.318 62.12 62.12 0 0 0 14.31 4.708l3.718.676 1.913.341 1.82.121a60.22 60.22 0 0 0 7.607.395 68.23 68.23 0 0 0 29.274-6.99 66.73 66.73 0 0 0 12.897-8.071c3.996-3.132 7.653-6.674 10.912-10.568a63.94 63.94 0 0 0 13.064-26.874l-.022.321.015-.214a71.57 71.57 0 0 0 1.162-25.726c-.576-4.145-1.605-8.215-3.069-12.136-.471-.999-.729-1.983-1.208-2.875l-.657-1.441-.386-.671-.107-.007c.014-.214-.193-.335-.186-.442l-.2-.228-.107-.007c-.028-.002-.056.007-.077.026s-.035.045-.037.074l.179.549.258.985.215 1.627-.029.428a5.64 5.64 0 0 1 .015 1.398c-.259.928-.847 1.73-1.654 2.256a3.86 3.86 0 0 1-2.504.48c-.482-.04-.947-.192-1.36-.443a3.11 3.11 0 0 1-1.017-1.004l-.293-.45.014-.214-.193-.335-.379-.778-1.428-2.782c-1.901-3.781-3.908-7.569-6.03-11.257a53.34 53.34 0 0 0-3.2-5.264c-.491-.866-1.048-1.693-1.664-2.475l-1.857-2.811c-2.05-3.145-3.979-6.498-6-10.072l-2.986-5.25-2.886-5.136-.235.307c-.203.25-.366.529-.485.828-1.24 2.026-2.315 4.148-3.215 6.345a36.27 36.27 0 0 0-3.053 13.668c-.095 4.586.855 9.134 2.777 13.299a26.33 26.33 0 0 0 1.629 3.011l.764 1.448.986 1.355.992 1.248.493.678.793 1.02a34.91 34.91 0 0 1 3.621 5.399 3.65 3.65 0 0 1 .38 2.391 1.61 1.61 0 0 1-.157.742l-.613 1.142-1.02.793-.663.278-2.248-.148-.414-.242-.836-.378-1.77-.87-1.77-.869-1.463-.634-3.148-1.176-.642-.042.099-1.499.107.007c-.107-.007-.107-.007.007-.107l.107.007c-.813.914 1.055-1.328.82-1.021l.321.021.3.343.707.692 1.307 1.376a18.35 18.35 0 0 1 2.178 2.832 22.24 22.24 0 0 1 1.857 2.81c2.366 4.137 3.787 8.747 4.161 13.499a32.29 32.29 0 0 1-15.589 29.288c-2.722 1.557-5.66 2.703-8.718 3.402l-2.176.393-.977.151-1.071-.071-2.055.187-2.034-.135a33.68 33.68 0 0 1-13.567-2.938z" class="D"/></g></g><path d="M440.507 487.811l-142.66-65.538c-.351-.163-.741-.22-1.124-.163s-.739.223-1.028.481-.495.593-.595.966-.088.768.034 1.135l48.238 149.404a2.05 2.05 0 0 0 .688.89c.308.227.673.363 1.054.393s.762-.046 1.102-.221a2.05 2.05 0 0 0 .821-.768l20.82-38.634c.152-.281.369-.52.633-.699s.568-.29.884-.326.638.005.935.12.563.299.774.538l32.842 36.948a2.05 2.05 0 0 0 2.786.22l24.779-22.066a1.92 1.92 0 0 0 .499-.598 1.9 1.9 0 0 0 .218-.747c.021-.262-.013-.525-.098-.773s-.222-.475-.4-.668l-32.842-36.948c-.211-.243-.361-.533-.439-.845s-.082-.639-.011-.953.216-.607.421-.855.467-.444.762-.573l40.833-16.128c.374-.124.7-.36.934-.677s.364-.699.372-1.093a1.9 1.9 0 0 0-.327-1.106c-.221-.327-.537-.577-.905-.716z" fill="#2e3d3d"/><g class="B D"><path d="M435.008 491.843c1.1-.44 2.2-.733 3.153-1.026l1.392-.44h.734c.141-.098.255-.23.332-.384s.114-.324.107-.496a1.46 1.46 0 0 0-.22-.806c-.219-.367-.219-.587.367-.44.227.08.436.206.612.37a1.74 1.74 0 0 1 .414.583c.102.407.127.83.074 1.246a2.57 2.57 0 0 1-.733 1.393 5.49 5.49 0 0 1-.88.513l-.807.44-1.906.88-4.398 2.126-10.85 4.912-12.682 5.498-6.598 2.786-1.613.733h-.147c0 .073 0 .146.074.146h.073l.44.44.733.88 1.613 1.759 3.005 3.372 13.049 14.662 13.196 15.249c.496.575.832 1.271.973 2.017s.084 1.517-.166 2.235c-.229.719-.662 1.355-1.247 1.832l-1.173 1.027-3.812 3.299-7.551 6.524-7.624 6.598-3.739 3.226c-.439.366-1.686 1.759-3.079 1.979a3.96 3.96 0 0 1-2.017-.211c-.643-.244-1.211-.652-1.648-1.182l-11.876-13.489-11.803-13.342-5.938-6.671-2.639-2.933c-.079-.094-.182-.165-.299-.204a.66.66 0 0 0-.361-.016.59.59 0 0 0-.345.168c-.093.093-.153.215-.168.346l-11.73 21.772-5.938 11.07-1.466 2.713-.953 1.832a5.49 5.49 0 0 1-1.539 1.833c-.654.428-1.418.658-2.2.66a3.74 3.74 0 0 1-2.199-.733c-.644-.482-1.129-1.146-1.393-1.906l-.44-1.32-.293-.88-15.541-47.797-27.125-83.939-3.372-10.264-.807-2.566-.513-1.466c-.266-.707-.439-1.447-.513-2.199-.044-.7.094-1.4.403-2.03a4.03 4.03 0 0 1 1.357-1.562c.604-.361 1.279-.587 1.979-.66a5.49 5.49 0 0 1 2.126.44l52.636 24.265 32.549 15.029 31.45 14.222c28.297 13.415 31.743 18.254 13.855 11.143-13.635-5.425-44.132-19.867-61.506-27.858l-69.644-32.183c-.032-.027-.07-.047-.111-.058s-.084-.013-.126-.006a.3.3 0 0 0-.116.046c-.035.024-.065.055-.087.092l29.397 91.563 15.029 46.918 1.906 5.865.806 2.492c0 .147.073.22.073.367l.294.146a.51.51 0 0 0 .346-.04c.107-.054.192-.143.24-.253l1.026-1.833 2.933-5.425 11.729-21.699 4.472-8.284a3.89 3.89 0 0 1 1.98-1.906c.831-.363 1.759-.44 2.639-.22.899.303 1.689.864 2.272 1.613l1.247 1.393 4.471 4.985 8.944 9.97 17.594 19.573c.032.066.088.118.155.145s.144.028.212.002h.147l.806-.733 3.812-3.446 7.698-6.891 6.377-5.645 3.153-2.859 1.613-1.392.366-.294c0-.073 0-.073.073-.146.004-.04-.001-.08-.014-.118s-.032-.072-.059-.102l-1.026-1.173-2.859-3.152-5.645-6.378-22.873-25.732a4.25 4.25 0 0 1-.879-4.472 4.02 4.02 0 0 1 1.393-1.906c.294-.286.643-.51 1.026-.66l.586-.22.514-.22 5.058-1.979c12.096-4.838 22.872-8.797 30.203-11.143z" stroke-width="3"/><path d="M70.729 28.807a1.8 1.8 0 0 1-.423 1.646 4.51 4.51 0 0 1-2.409.581c-3.399.13-7.134-.054-10.87-.237a16.77 16.77 0 0 0-6.761 1.236 15.88 15.88 0 0 0-5.037 3.941c-.703 1.053-1.311 2.167-1.818 3.329a24 24 0 0 0-1.482 3.642c-.66 2.472-1.106 4.998-1.333 7.548a10.48 10.48 0 0 0-.044 3.098c.031.814-.106 1.471-.093 1.796s-.76 1.333-1.588.875c-.999-.564-1.777-1.454-2.204-2.523-1.637-4.664-.547-10.083 1.383-14.72 1.52-4.062 4.282-7.533 7.888-9.916a24.68 24.68 0 0 1 12.184-3.562 19.18 19.18 0 0 1 7.807.68c2.471 1.047 3.941 1.316 4.8 2.587zm486.697 153.846c-.259.053-.526.041-.779-.035a1.59 1.59 0 0 1-.669-.397c-.344-.666-.494-1.414-.434-2.16 0-3.024.289-6.335.579-9.647a14.91 14.91 0 0 0-.869-6.047c-.785-1.744-1.917-3.312-3.329-4.608a19.15 19.15 0 0 0-2.895-1.728c-1.02-.566-2.086-1.047-3.185-1.439-2.174-.671-4.402-1.153-6.659-1.44-.904-.184-1.831-.233-2.75-.144-.724 0-1.303-.144-1.593-.144s-1.158-.72-.724-1.44a4.48 4.48 0 0 1 2.317-1.872c4.198-1.296 8.975-.144 13.028 1.728a18.22 18.22 0 0 1 8.541 7.343c1.856 3.349 2.803 7.12 2.75 10.943.189 2.339-.106 4.691-.869 6.911-1.013 2.16-1.302 3.456-2.46 4.176z"/></g><defs><clipPath id="A"><path transform="matrix(.996443 .08427 -.08427 .996443 50.1714 36)" d="M0 0h285.4v227.5H0z" class="C"/></clipPath><clipPath id="B"><rect x="111.252" y="95" width="147.651" height="146.507" rx="73.253" transform="rotate(6.369 111.252 95)" class="C"/></clipPath><clipPath id="C"><rect x="339.645" y="239.8" width="140" height="140" rx="70" transform="rotate(355.43 339.645 239.8)" class="C"/></clipPath><clipPath id="D"><path transform="matrix(.996495 -.083653 .083653 .996495 263.17 187.839)" d="M0 0h285.4v227.5H0z" class="C"/></clipPath><clipPath id="E"><rect x="337" y="227" width="155.5" height="154.1" rx="77.05" class="C"/></clipPath><clipPath id="F"><path transform="matrix(.998666 .051626 -.051626 .998666 68.8315 291.085)" d="M0 0h285.4v227.5H0z" class="C"/></clipPath><clipPath id="G"><path transform="matrix(.997825 .065921 -.065921 .997825 135.974 351.384)" d="M0 0h146.646v150.294H0z" class="C"/></clipPath><path id="H" d="M230.189 216.699c-.418-.268-.792-.421-.577-.842.079-.213.331-.462.852-.626.467-.171 1.258-.249 2.222.136.478.22.951.495 1.399.99s.767 1.141.902 1.934.087 1.731-.404 2.621c-.012.109-.135.207-.209.365-.012.11-.134.207-.196.256l-.202.311-.473.724-1.067 1.548-1.307 1.687c-.46.615-1.024 1.163-1.601 1.821l-1.84 1.961c-.816.797-4.043 3.159-6.233 4.747-6.35 4.79-12.989 8.16-19.34 10.45-3.202 1.142-6.264 2.023-9.363 2.732-3.086.6-6.032.938-8.793 1.129-2.81.131-5.443.17-8.094-.125-2.595-.29-4.884-.823-7.001-1.393-4.29-1.145-7.818-2.595-10.74-3.976-9.757-4.755-16.263-11.091-20.456-18.614-4.076-7.564-5.888-16.376-4.977-27.05l.19-1.701.178-1.591c.11-.987.325-1.908.466-2.669.349-1.628.656-2.871.938-3.895.57-2.103 1.036-3.273 1.447-4.449.466-1.17.877-2.346 1.827-4.35.945-1.95 2.208-4.753 5.116-8.761 1.975-2.668 3.932-4.671 5.84-6.236s3.779-2.799 5.731-3.748l1.478-.724c.528-.219 1-.444 1.577-.601.35-.128.638-.207.988-.334.466-.171.927-.286 1.442-.395.969-.169 1.945-.394 2.915-.563l.398-.067.332.037c.233-.085.46-.115.742-.139.509-.054.957-.06 1.467-.114.221.024.509-.054.73-.03s.442.05.669.019c.442.05.951-.005 1.454-.004 1.006.001 2.007.057 3.068.065 1.117.013 2.283.088 3.565.12l.718.08.056.006.276.031.11.012.166.019.331.037.332.037.165.018.276.031 1.271.142.994.111c.497.055.883.099 1.221.081l-6.062 2.711-3.951 1.837-.945.45-.473.225-.233.085c-.055-.006-.178.091-.178.091-.3.189-.601.377-.847.572-.546.383-1.147.761-1.693 1.144-.374.347-.693.7-1.067 1.047-.19.201-.375.347-.509.554s-.32.354-.454.561-.326.408-.461.615c-.128.152-.202.311-.337.518-.822 1.352-1.417 2.674-1.736 4.027-.036.33-.183.646-.22.976l-.11.987c-.08.713-.154 1.372-.178 2.091-.018.665-.043 1.384-.006 2.055s.019 1.335.111 2.012c.203 2.688.787 5.475 1.849 8.482.123.403.307.756.43 1.159.178.409.307.756.485 1.165.418.769.768 1.641 1.234 2.471.878 1.653 2.02 3.447 3.444 5.216 6.058 7.842 14.987 13.505 24.524 16.235 3.031.894 6.093 1.514 9.125 1.908 3.025.448 5.909.659 8.812.705 5.694.081 11.131-.535 16.04-1.431 1.883-.345 2.43.271 2.166 1.131-.27.914-1.356 2.126-2.669 2.868-2.258 1.192-5.491 2.109-8.952 2.556s-7.087.375-10.137.146c-6.818-.539-13.789-2.206-20.349-5.049-3.252-1.418-6.419-3.105-9.439-5.108a59.55 59.55 0 0 1-8.304-6.759c-2.166-2.131-3.885-4.267-5.333-6.317-.332-.537-.725-1.025-1.056-1.562s-.614-1.013-.952-1.495c-.558-1.006-1.123-1.958-1.571-2.952-.51-.946-.847-1.928-1.247-2.861l-.515-1.391c-.172-.464-.344-.927-.461-1.384s-.288-.921-.405-1.379-.234-.915-.301-1.311c-.24-.86-.363-1.762-.492-2.61s-.196-1.744-.325-2.591c-.013-.89-.142-1.738-.099-2.622s-.025-1.78.073-2.658l.153-1.371c.055-.494.11-.988.214-1.421.38-1.901 1.049-3.882 2.159-5.813.276-.469.558-.993.883-1.401.068-.104.197-.256.264-.36l.196-.255a4.94 4.94 0 0 1 .945-.95c.246-.195.736-.585 1.497-.889l.117-.042-.166-.019-.331-.037c-.221-.024-.497-.055-.786.024-.276-.031-.564.048-.846.072-.277-.031-.565.048-.853.127l-1.031.218-.755.249a7.23 7.23 0 0 0-1.172.48c-1.583.657-3.123 1.429-4.522 2.439a28.17 28.17 0 0 0-3.945 3.282c-1.202 1.254-2.355 2.569-3.349 3.958-2.049 2.827-3.687 5.976-5.005 9.273s-2.263 6.746-2.931 10.226c-.257 1.305-.392 2.512-.521 3.664s-.189 2.2-.238 3.139c-.055.494-.104.933-.043 1.384-.049.439.013.89-.03 1.274s-.037.829-.025 1.22c-.042.384.031.725.044 1.115a68.75 68.75 0 0 0 .117 1.957c.043.616.147 1.183.196 1.744s.16 1.074.216 1.58c.11.512.172.963.282 1.475s.172.964.283 1.476.282.976.387 1.543c.27 1.085.706 2.189 1.117 3.513 1.056 2.562 2.468 5.941 5.765 9.975 2.412 2.935 4.56 4.73 6.254 6.086.871.708 1.651 1.239 2.375 1.765l2.136 1.405c1.417.824 2.89 1.655 4.909 2.603a64.38 64.38 0 0 0 8.383 3.046c2.117.57 3.7.913 5.13 1.128 1.375.209 2.485.278 3.596.346 2.289.033 4.645-.037 8.904-.617.626-.097 3.172-.368 5.706-1.029l1.841-.461c.577-.158 1.16-.371 1.675-.48 1.037-.273 1.798-.577 2.141-.65 1.099-.321 4.302-1.464 7.363-2.844s5.939-3.114 6.903-3.728c.239-.14.846-.572 1.632-1.096s1.822-1.296 2.926-2.173c2.264-1.747 4.982-4.054 7.491-6.495.626-.597 1.252-1.194 1.822-1.797s1.196-1.199 1.761-1.747 1.073-1.102 1.576-1.602c.129-.152.252-.249.375-.347l.012-.109.11.012.111.012c.116-.042.19-.201.153-.372.019-.164-.074-.341-.166-.518-.184-.354-.601-.623-.607-1.068v-.5z"/><path id="I" d="M157.724 237.217c-.135-.293-.166-.519-.147-.683l-.166-.019.012-.109.166.018-.166-.018.012-.11c-.055-.006.589.232.319.147l.111.012c.172-.037.448-.006.828.092.332.037.81.257 1.289.477l1.921.826 6.155 2.464c2.639.906 5.947 1.831 10.089 2.293.718.08 2.307.369 4.197.468s4.062.176 5.768-.078c.675-.036 1.362-.181 1.878-.29s.908-.121.969-.17l1.087 5.287c-10.817 2.237-21.243 1.962-30.374.109-9.125-1.907-17.078-5.294-23.565-9.296-3.247-1.973-6.199-4.08-8.807-6.259s-4.935-4.384-6.985-6.557c-4.094-4.4-7.028-8.672-9.293-12.424-1.927-3.27-3.579-6.509-4.85-9.65-.362-.763-.608-1.568-.908-2.379s-.608-1.568-.854-2.373l-.743-2.36c-.252-.75-.442-1.549-.639-2.293-1.609-6.123-2.346-12.038-2.415-17.933.122-3.097.231-6.084.562-9.047l.257-2.304c.086-.768.288-1.579.485-2.334s.398-1.567.649-2.316.454-1.56.761-2.304c1.128-3.095 2.692-6.087 4.588-9.041 1.95-2.949 4.275-5.744 7.042-8.49a51.13 51.13 0 0 1 6.712-5.528c1.939-1.339 3.558-2.324 4.921-3.005 2.736-1.472 4.485-2.11 6.178-2.754l2.786-.912c1.043-.327 2.252-.637 3.743-.97 1.54-.273 3.374-.679 5.798-.853 2.369-.18 5.283-.243 8.757.2 1.159.129 2.203.301 3.252.419l1.546.172c.497.056.988.166 1.479.276 1.915.381 3.676.633 5.302 1.092l2.394.6c.76.196 1.515.447 2.221.637.755.251 1.46.441 2.16.686s1.393.544 2.093.789c.693.299 1.399.489 2.086.844.694.299 1.381.654 2.075.953.374.153.693.3 1.061.508s.681.409 1.05.617c.681.409 1.479.776 2.209 1.246s1.454.996 2.234 1.527 1.485 1.221 2.252 1.862c.412.324.761.696 1.166 1.075s.755.75 1.16 1.129.743.86 1.142 1.294c.344.427.798.866 1.13 1.403 2.578 3.454 4.131 7.071 4.985 10.444s1.118 6.512 1.076 9.396-.392 5.511-.888 7.955c-.252 1.249-.552 2.438-.908 3.62-.178.591-.355 1.182-.588 1.767-.086.268-.178.591-.319.853l-.16.427-.024.219c-.055-.006-.129.153.006-.054l.049-.439-5.302-.592c.208-1.865.036-3.829-.529-5.78s-1.584-3.843-3.069-5.564-3.548-3.284-6.07-4.233c-1.289-.477-2.706-.802-4.198-.968s-3.019-.004-4.681.366c-.804.188-1.614.431-2.43.729-.761.304-1.632.595-2.455.948-1.644.705-3.184 1.477-4.742 2.414-3.056 1.825-5.866 3.956-8.326 6.458s-4.668 5.256-6.404 8.284c-.896 1.511-1.632 3.095-2.368 4.679-.625 1.597-1.257 3.248-1.723 4.918-1.201 4.254-1.685 8.588-1.654 12.813.044 2.115.259 4.195.536 6.225.332 2.037.786 3.976 1.351 5.928.571 1.896 1.259 3.751 2.063 5.562.81 1.757 1.676 3.52 2.615 5.125 1.873 3.264 4.058 6.229 6.507 8.835.896.989 1.381 1.654 1.442 2.105s-.245.695-.81.743c-1.129.096-3.227-.638-4.927-1.938-1.449-1.051-2.959-2.552-4.444-4.273s-2.873-3.82-4.027-6.004c-1.215-2.136-2.234-4.527-3.039-6.838s-1.326-4.648-1.701-6.8c-.455-2.439-.627-4.903-.689-7.353-.056-2.506.054-4.994.44-7.45.723-4.974 2.164-9.868 4.409-14.449 1.091-2.267 2.404-4.509 3.864-6.568s3.135-4.038 4.902-5.84a40.92 40.92 0 0 1 2.809-2.631l1.479-1.223c.491-.39 1.037-.773 1.528-1.163 2.067-1.491 4.233-2.86 6.485-3.997 2.368-1.18 4.712-2.14 7.031-2.881s4.762-1.08 6.983-.943c4.498.28 8.272 2.034 11.151 4.3a20.07 20.07 0 0 1 3.602 3.79 19.04 19.04 0 0 1 2.321 4.259c1.13 2.903 1.517 5.946 1.248 8.859l-3.369-.376c.018-.164.043-.384.171-.536l.019-.165.135-.207.165-.481c.092-.323.239-.64.331-.963l.558-1.993c.374-1.347.638-2.706.852-4.126.429-2.841.649-5.815.287-9.078-.068-.396-.08-.786-.142-1.237.025-.22-.067-.397-.098-.622s-.068-.397-.098-.622c-.068-.397-.185-.854-.252-1.25-.123-.403-.24-.86-.363-1.263-.184-.854-.54-1.671-.884-2.598-.172-.464-.405-.878-.583-1.287-.233-.415-.405-.879-.639-1.293l-.748-1.306c-.228-.47-.577-.842-.866-1.263-.571-.897-1.264-1.696-2.013-2.502-1.498-1.611-3.216-3.247-5.352-4.652-4.1-2.846-8.794-4.87-13.667-6.303s-9.972-2.335-15.102-2.963c-4.97-.555-10.063-.012-14.917 1.39s-9.418 3.726-13.547 6.653c-3.098 2.209-5.467 4.389-7.313 6.405-1.902 2.009-3.282 3.855-4.417 5.505-.595.823-1.018 1.609-1.497 2.388l-1.19 2.145c-.355.682-.656 1.371-.95 2.005-.147.316-.295.633-.448 1.005-.147.317-.239.64-.392 1.011-.485 1.335-.914 2.676-1.245 4.138-.098.378-.141.762-.239 1.14-.043.384-.147.817-.196 1.256l-.147 1.317-.166 1.481c-.226 2.03-.318 4.352-.292 7.132s.173 5.963.757 9.75c.841 5.482 1.978 9.33 2.929 12.325 1.063 3.006 1.934 5.214 3.033 7.392.277.531.498 1.056.768 1.641.276.531.607 1.068.878 1.653.595 1.178 1.362 2.319 2.16 3.685 1.713 2.691 3.978 5.943 7.771 10.033 1.105 1.123 2.001 2.112 2.916 2.936l1.264 1.196c.405.379.816.702 1.227 1.026s.768.641 1.124.959.718.58 1.08.842c.724.525 1.338 1.038 2.068 1.509l2.074 1.453c.731.47 1.516.947 2.406 1.491.896.488 1.841 1.038 2.891 1.655l1.743.917c.319.147.632.348.951.495s.693.3 1.012.446c.798.367 4.198 1.969 7.757 3.143 3.553 1.23 7.211 2.027 8.137 2.242.381.098.982.221 1.749.362.774.086 1.639.349 2.633.46s2.086.344 3.258.364l1.768.197c.607.068 1.166.075 1.779.088.608.067 1.221.08 1.78.087l1.73.027c1.172.019 2.24-.028 3.252-.082s1.915-.119 2.651-.204 1.356-.126 1.755-.193c.743-.139 3.074-.49 6.339-1.181l1.025 4.836c-3.153.704-7.228 1.138-11.499.827-4.222-.249-8.64-1.242-12.334-2.709s-6.72-3.417-8.555-5.01a41.29 41.29 0 0 0-1.216-1.136 5.87 5.87 0 0 1-.73-.97c-.325-.592-.393-.988-.092-1.177l-.172.037z"/><path id="J" d="M188.787 188.86c-.559.493-2.031 1.162-2.221 2.863s.621 2.957 2.204 4.301c7.285 6.367 22.338 7.27 22.393 7.276 5.909.66 11.83-.29 17.242-2.686 11.056-4.875 18.694-15.187 20.029-27.147 1.537-12.271-2.134-20.957-3.553-24.781-9.228-24.026-33.01-39.9-60.458-42.964-38.659-4.315-73.58 23.003-78.419 61.345 2.511-19.994 24.365-33.94 48.224-31.277s12.96 1.613 22.583 8.075c6.781 4.367 12.121 10.629 15.271 17.979 2.72 6.192 2.5 13.666 2.17 16.628s-2.306 7.13-5.527 10.437l.056.006.006-.055z"/><path id="K" d="M189.253 188.69c-.288.079-.515.109-.675.036l.35.372c.11.013.166.019.098.122l-.595-.677c-.203-.189-.215-.58.03-1.274s.748-1.694 1.411-3.12l1.006-2.498c.331-.963.619-2.042.741-3.139l.043-.384.055-.494c.037-.329.025-.719.006-1.055.025-.719 0-1.499-.074-2.341-.099-1.622-.289-3.42-.633-5.347l-.731-3.97c-.24-.86-.479-1.72-.885-2.598a14.5 14.5 0 0 0-.577-1.342c-.178-.409-.411-.824-.595-1.178-2.357-4.429-5.525-8.115-9.109-11.07-.46-.385-.927-.714-1.332-1.093l-1.399-.989c-.988-.666-1.927-1.271-2.872-1.82-1.939-1.161-3.903-2.103-5.941-2.885-4.013-1.615-8.088-2.681-11.991-3.283l-1.436-.16-1.436-.16c-.497-.056-.938-.105-1.442-.106-.497-.055-.945-.05-1.448-.05-1.896-.045-3.743-.029-5.498.164-7.112.594-13.278 2.739-18.107 5.421-4.883 2.677-8.436 5.946-10.957 8.998-2.012 2.497-3.533 5.104-4.545 7.657s-1.558 4.937-1.846 7.015l-5.633-.629c.625-5.095 1.704-9.752 3.151-14.201 1.441-4.393 3.299-8.519 5.538-12.546s4.907-7.895 8.067-11.652c3.214-3.752 6.981-7.442 11.503-10.881 5.429-4.059 9.282-6.018 11.945-7.331 1.356-.627 2.424-1.174 3.412-1.508.994-.389 1.761-.748 2.632-1.039l2.62-.93c.988-.334 2.141-.65 3.589-1.099 2.933-.728 7.032-1.881 13.812-2.513 4.572-.379 8.315-.35 11.598-.205.828.092 1.602.179 2.381.21l1.16.129 1.104.124c1.491.166 2.927.326 4.351.596l4.326.817c.718.08 1.473.331 2.234.527l2.338.594 1.197.3c.429.159.81.257 1.239.416.865.263 1.725.582 2.645.851s1.829.648 2.792 1.034l3.05 1.229c7.291 3.313 12.6 6.85 16.914 10.275 4.253 3.474 7.506 6.892 10.459 10.499 2.829 3.704 5.469 7.609 7.882 12.544l1.682 3.965c.313.702.571 1.397.829 2.092l.81 2.257c1.05 3.117 1.996 6.666 2.445 10.66.467 3.829.419 7.767-.059 11.547-.435 3.895-1.538 7.771-3.17 11.366s-3.901 6.896-6.631 9.813c-2.724 2.862-5.902 5.285-9.362 7.231-4.405 2.397-9.32 3.848-14.168 4.196-1.184.09-2.417.118-3.589.099-.608-.068-1.166-.075-1.78-.088l-.884-.098-.773-.087c-2.319-.259-4.467-.554-6.596-1.014-4.259-.92-8.359-2.266-12.041-4.343l-1.362-.819c-.411-.323-.884-.598-1.295-.922-.209-.134-.411-.324-.614-.513l-.558-.507c-.412-.323-.761-.695-1.16-1.129-.743-.86-1.363-1.818-1.738-2.971-.159-.573-.202-1.189-.129-1.847s.251-1.25.589-1.768c.27-.414.527-.718.828-.907.245-.195.54-.329.718-.42.411-.176.748-.194.969-.169s.375.153.473.275c.092.177.123.402.037.67-.061.549-.423 1.286-.362 1.737-.024.22.117.458.215.58l.344.427c.196.244.491.61 1 1.056l.878.653c.368.208.675.464 1.092.733 1.516.947 3.376 1.821 5.364 2.543 3.97 1.499 8.548 2.565 12.341 3.155l.828.092.387.044.497.055 1.601.179c1.05.117 2.166.131 3.228.138 2.185-.034 4.338-.293 6.517-.772 4.307-1.019 8.504-3.05 12.111-5.814 1.779-1.412 3.411-3.007 4.896-4.786.767-.858 1.38-1.845 2.043-2.771l.889-1.456a46.83 46.83 0 0 0 .84-1.517c1.012-2.053 1.865-4.18 2.453-6.447.583-2.213.84-4.517 1.042-6.827.385-4.956-.186-9.352-1.046-13.17-.455-1.939-.983-3.72-1.579-5.397-.294-.866-.595-1.678-.896-2.489s-.663-1.574-.976-2.275a67.47 67.47 0 0 0-.933-2.159l-1.062-2.007c-.375-.653-.694-1.3-1.013-1.946-.375-.653-.761-1.196-1.142-1.794-.761-1.196-1.467-2.386-2.302-3.423-.387-.543-.829-1.093-1.215-1.636s-.774-1.086-1.277-1.586c-3.4-4.101-7.347-7.819-12.686-11.581s-12.195-7.471-21.86-10.55c-4.873-1.432-9.794-2.426-14.869-3.048-5.026-.561-10.051-.622-15.089-.073-10.008.993-19.874 4.224-28.452 9.432-1.613.931-3.067 1.935-4.399 2.842-1.282.968-2.497 1.832-3.546 2.715-.552.438-1.049.883-1.54 1.272s-.932.84-1.368 1.236l-1.245 1.139c-.38.401-.755.748-1.074 1.102-2.834 2.849-4.644 5.036-6.3 7.35-1.705 2.254-3.257 4.636-5.214 8.139a59.25 59.25 0 0 0-1.496 2.888c-.227.53-.51 1.054-.798 1.633s-.521 1.164-.76 1.804c-1.061 2.492-2.122 5.484-3.085 9.098-.662 2.425-1.066 4.547-1.361 6.18l-.447 3.005-3.811-.425c.441-3.45 1.294-6.077 2.214-8.307s1.969-4.113 3.244-6.026 2.773-3.8 4.908-5.895 4.908-4.396 8.853-6.677c2.865-1.624 5.215-2.64 7.203-3.417.988-.335 1.927-.73 2.847-.96.461-.115.872-.292 1.332-.407s.865-.237 1.27-.358c1.73-.474 3.448-.837 5.553-1.158s4.651-.591 7.946-.557c.448-.005 1.731.027 3.338.151.829.092 1.719.136 2.651.295a27.08 27.08 0 0 1 2.909.492c1.97.386 3.934.828 5.449 1.275 1.571.453 2.756.863 3.241 1.028.429.159 1.018.391 1.773.642.749.306 1.657.685 2.614 1.125s2.013 1.002 3.124 1.571a23.33 23.33 0 0 1 1.626.959l1.621 1.014c1.098.678 2.135 1.405 3.117 2.125.976.776 1.903 1.49 2.713 2.247 1.633 1.404 2.774 2.698 3.376 3.321.65.684 2.958 3.052 5.217 6.859.565.952 1.123 1.958 1.67 3.075.276.53.546 1.116.816 1.702s.535 1.226.743 1.86c.473 1.275.829 2.592 1.069 3.952.295 1.366.485 2.665.559 4.006.203 2.689.192 5.298-.194 7.754-.031.275-.08.714-.172 1.037a3.12 3.12 0 0 1-.276.969c-.184.646-.411 1.176-.644 1.761-.454 1.06-1.006 1.998-1.545 2.827-1.129 1.596-2.264 2.746-3.111 3.318-.908.621-1.478.724-1.712.309l-.098-.122z"/><path id="L" d="M171.54 436.302l-3.746-.248c.107.007-.215-.014-.207-.121-.215-.014 0 0 .007-.107l-.107-.007 4.731-.01c.749.049.421.135.421.135l-.321-.021c.1.114-.328.086-.336.193l-.428-.029-.014.215z"/><path id="M" d="M171.419 436.508l-2.206-.79-2.198-.898.949.278-.214-.015s.214.015.007-.107l.107.008c-.107-.008-.314-.129-.1-.115l4.404 1.689-.321-.021.307.235.107.007-.842-.271z"/></defs></svg>