<?xml version="1.0" encoding="utf-8"?>
<!-- Generator: Adobe Illustrator 24.3.0, SVG Export Plug-In . SVG Version: 6.00 Build 0)  -->
<svg version="1.1" id="Layer_1" xmlns="http://www.w3.org/2000/svg" xmlns:xlink="http://www.w3.org/1999/xlink" x="0px" y="0px"
	 viewBox="0 0 636 300" style="enable-background:new 0 0 636 300;" xml:space="preserve">
<style type="text/css">
	.st0{fill:#FBC977;}
	.st1{fill:#57AA9A;}
	.st2{fill:#F7B548;}
	.st3{fill:#6BA8F1;}
	.st4{fill:#BDD8F9;}
	.st5{fill:#8065E0;}
	.st6{fill:#FFFFFF;}
	.st7{fill:#1572E0;}
	.st8{fill:#B0D1F7;}
	.st9{fill:#FFD590;}
	.st10{fill:#7FD5CA;}
	.st11{fill:#D8E8FB;}
	.st12{fill:#C2E8E3;}
	.st13{fill:#FFECCD;}
	.st14{fill:#FEDEA7;}
	.st15{fill:#D1C5F4;}
	.st16{fill:#70D6E0;}
	.st17{fill:#25BACA;}
	.st18{fill:#1BA1B5;}
	.st19{fill:#8A6FE8;}
	.st20{fill:url(#SVGID_1_);}
	.st21{fill:#522CD5;}
	.st22{fill:url(#SVGID_2_);}
	.st23{fill:url(#SVGID_3_);}
	.st24{fill:url(#SVGID_4_);}
	.st25{fill:url(#SVGID_5_);}
	.st26{fill:#D8CFF7;}
	.st27{fill:#512BD4;}
	.st28{fill:url(#SVGID_6_);}
	.st29{fill:#A08BE8;}
	.st30{fill:url(#SVGID_7_);}
	.st31{fill:url(#SVGID_8_);}
	.st32{fill:url(#SVGID_9_);}
	.st33{fill:url(#SVGID_10_);}
	.st34{fill:url(#SVGID_11_);}
	.st35{fill:url(#SVGID_12_);}
	.st36{fill:#98C2F5;}
	.st37{fill:#0064DA;}
	.st38{fill:#3E8EED;}
	.st39{fill:#C7E0F4;}
	.st40{fill:#B3AFAB;}
	.st41{fill:#A7A4A0;}
	.st42{fill:#957EE6;}
	.st43{fill:#E5F0FC;}
	.st44{fill:#1DACCC;}
	.st45{fill:#76AFF2;}
	.st46{fill:#FCCF84;}
	.st47{fill:#8DBCF4;}
	.st48{fill:#E1DFDD;}
	.st49{fill:url(#SVGID_13_);}
	.st50{fill:url(#SVGID_14_);}
	.st51{fill:url(#SVGID_15_);}
	.st52{fill:url(#SVGID_16_);}
	.st53{fill:url(#SVGID_17_);}
	.st54{fill:url(#SVGID_18_);}
	.st55{fill:url(#SVGID_19_);}
	.st56{fill:url(#SVGID_20_);}
	.st57{fill:#C8C6C4;}
	.st58{fill:#605D5A;}
	.st59{fill:#797673;}
	.st60{fill:#64BFAF;}
	.st61{fill:#2CC7EA;}
	.st62{fill:url(#SVGID_21_);}
	.st63{fill:url(#SVGID_22_);}
	.st64{fill:url(#SVGID_23_);}
	.st65{fill:url(#SVGID_24_);}
	.st66{fill:url(#SVGID_25_);}
	.st67{fill:url(#SVGID_26_);}
	.st68{fill:#B6E3DE;}
	.st69{fill:#6FCFCE;}
	.st70{fill:#1FB1D1;}
	.st71{fill:url(#SVGID_27_);}
	.st72{fill:#FAC369;}
	.st73{fill:#E29E3B;}
	.st74{fill:#33D5F9;}
	.st75{fill:url(#SVGID_28_);}
	.st76{fill:url(#SVGID_29_);}
	.st77{fill:url(#SVGID_30_);}
	.st78{fill:url(#SVGID_31_);}
	.st79{fill:url(#SVGID_32_);}
	.st80{fill:url(#SVGID_33_);}
	.st81{fill:url(#SVGID_34_);}
	.st82{fill:url(#SVGID_35_);}
	.st83{fill:url(#SVGID_36_);}
	.st84{fill:url(#SVGID_37_);}
	.st85{fill:url(#SVGID_38_);}
	.st86{fill:#D0C5F3;}
	.st87{fill:url(#SVGID_39_);}
	.st88{fill:url(#SVGID_40_);}
	.st89{fill:url(#SVGID_41_);}
	.st90{fill:url(#SVGID_42_);}
	.st91{fill:#EEAB42;}
	.st92{fill:#E8A53F;}
	.st93{fill:#A3C9F6;}
	.st94{fill:url(#SVGID_43_);}
	.st95{fill:url(#SVGID_44_);}
	.st96{fill:url(#SVGID_45_);}
	.st97{fill:url(#SVGID_46_);}
	.st98{fill:url(#SVGID_47_);}
	.st99{fill:url(#SVGID_48_);}
	.st100{fill:url(#SVGID_49_);}
	.st101{fill:url(#SVGID_50_);}
	.st102{fill:#84817D;}
	.st103{fill:url(#SVGID_51_);}
	.st104{fill:url(#SVGID_52_);}
	.st105{fill:url(#SVGID_53_);}
	.st106{fill:url(#SVGID_54_);}
	.st107{fill:url(#SVGID_55_);}
	.st108{fill:url(#SVGID_56_);}
	.st109{fill:url(#SVGID_57_);}
	.st110{fill:url(#SVGID_58_);}
	.st111{fill:#BBACEF;}
	.st112{fill:url(#SVGID_59_);}
	.st113{fill:url(#SVGID_60_);}
	.st114{fill:url(#SVGID_61_);}
	.st115{fill:url(#SVGID_62_);}
	.st116{fill:url(#SVGID_63_);}
	.st117{fill:url(#SVGID_64_);}
	.st118{fill:url(#SVGID_65_);}
	.st119{fill:url(#SVGID_66_);}
	.st120{fill:url(#SVGID_67_);}
	.st121{fill:url(#SVGID_68_);}
	.st122{fill:url(#SVGID_69_);}
	.st123{fill:url(#SVGID_70_);}
	.st124{fill:url(#SVGID_71_);}
	.st125{fill:#CEDB59;}
	.st126{fill:#CCCAC7;}
	.st127{fill:#78881B;}
	.st128{fill:#9C9894;}
	.st129{fill:#EEF3C4;}
	.st130{fill:#B2C133;}
	.st131{fill:#D5E06D;}
	.st132{fill:#A4ECFC;}
	.st133{fill:#0B7891;}
	.st134{fill:#908D89;}
	.st135{fill:#DDDBDA;}
	.st136{fill:url(#SVGID_72_);}
	.st137{fill:url(#SVGID_73_);}
	.st138{fill:#56534F;}
	.st139{fill:#CAE0FA;}
	.st140{fill:#4995EE;}
	.st141{fill:#A7CBF6;}
	.st142{fill:#E86E58;}
	.st143{fill:#FAE969;}
	.st144{fill:#56A84F;}
	.st145{fill:none;stroke:#3085E9;stroke-width:2;stroke-miterlimit:10;}
	.st146{fill:#B2D5F8;}
	.st147{fill:#B2B2B2;}
	.st148{fill:url(#SVGID_74_);}
	.st149{fill:url(#SVGID_75_);}
	.st150{fill:url(#SVGID_76_);}
	.st151{fill:url(#SVGID_77_);}
	.st152{fill:url(#SVGID_78_);}
	.st153{fill:url(#SVGID_79_);}
	.st154{fill:url(#SVGID_80_);}
	.st155{fill:url(#SVGID_81_);}
	.st156{fill:url(#SVGID_82_);}
	.st157{fill:url(#SVGID_83_);}
	.st158{fill:url(#SVGID_84_);}
	.st159{fill:url(#SVGID_85_);}
	.st160{fill:url(#SVGID_86_);}
	.st161{fill:url(#SVGID_87_);}
	.st162{fill:url(#SVGID_88_);}
	.st163{fill:url(#SVGID_89_);}
	.st164{fill:#FFB900;}
	.st165{fill:#D5D3D0;}
	.st166{fill:none;stroke:#FF00FF;stroke-width:1.0976;stroke-miterlimit:10;}
	.st167{fill:url(#SVGID_90_);}
	.st168{fill:#EA7F6B;}
	.st169{fill:#22B2C3;}
	.st170{fill:#DF6551;}
	.st171{fill:#F8BB55;}
	.st172{fill:#F8B84F;}
	.st173{fill:#40C9D6;}
	.st174{fill:#CC5444;}
	.st175{fill:#CFEFEB;}
	.st176{fill:#D3E7F8;}
	.st177{fill:#81B5F3;}
	.st178{fill:#4D4D4D;}
	.st179{fill:url(#SVGID_91_);}
	.st180{fill:#2980E7;}
	.st181{fill:#CFF1F5;}
	.st182{fill:#58D0DB;}
	.st183{fill:#28C2D1;}
	.st184{fill:#9FE4EB;}
	.st185{fill:#3097D8;}
	.st186{fill:url(#SVGID_92_);}
	.st187{fill:#939393;}
	.st188{fill:url(#SVGID_93_);}
	.st189{fill:#FEDBA1;}
	.st190{fill:#FAC670;}
	.st191{fill:#625F5B;}
	.st192{fill:#D69521;}
	.st193{fill:#7F7F7F;}
	.st194{fill:#505050;}
	.st195{fill:#D2D2D2;}
	.st196{fill:#848484;}
	.st197{fill:url(#SVGID_94_);}
	.st198{fill:#444444;}
	.st199{fill:#737373;}
	.st200{fill:url(#SVGID_95_);}
	.st201{fill:#549BEF;}
	.st202{fill:#6D6A66;}
	.st203{fill:#38776B;}
	.st204{fill:#9FE0D7;}
	.st205{fill:#45897C;}
	.st206{fill:#CFECE9;}
	.st207{fill:url(#SVGID_96_);}
	.st208{fill:url(#SVGID_97_);}
	.st209{fill:url(#SVGID_98_);}
	.st210{fill:url(#SVGID_99_);}
	.st211{fill:url(#SVGID_100_);}
	.st212{fill:url(#SVGID_101_);}
	.st213{fill:url(#SVGID_102_);}
	.st214{fill:url(#SVGID_103_);}
	.st215{fill:url(#SVGID_104_);}
	.st216{fill:url(#SVGID_105_);}
	.st217{fill:url(#SVGID_106_);}
	.st218{fill:url(#SVGID_107_);}
	.st219{fill:#29C3E5;}
	.st220{fill:#60DEFA;}
	.st221{fill:#0F849E;}
	.st222{fill:#D2F6FE;}
	.st223{fill:#179BB8;}
	.st224{fill:#AFE5DE;}
	.st225{fill:#AE9CEB;}
	.st226{fill:url(#SVGID_108_);}
	.st227{fill:#D6CDF5;}
	.st228{fill:none;stroke:#D6CDF5;stroke-width:2;stroke-miterlimit:10;}
	.st229{fill:#7354DD;}
	.st230{fill:#A8B82F;}
	.st231{fill:#C9BDF2;}
	.st232{fill:#8970E2;}
	.st233{fill:url(#SVGID_109_);}
	.st234{fill:#72ACF1;}
	.st235{fill:#57CACF;}
	.st236{fill:#FAF9F8;}
	.st237{fill:#4A4844;}
	.st238{fill:#797672;}
	.st239{fill:none;stroke:#72ACF1;stroke-width:2;stroke-miterlimit:10;}
	.st240{fill:url(#SVGID_110_);}
	.st241{fill:url(#SVGID_111_);}
	.st242{fill:url(#SVGID_112_);}
	.st243{fill:#C5D43B;}
	.st244{fill:#3085E9;}
	.st245{fill:none;stroke:#FFFFFF;stroke-width:2;stroke-miterlimit:10;}
	.st246{fill:url(#SVGID_113_);}
	.st247{fill:#42403C;}
	.st248{fill:url(#SVGID_114_);stroke:#625F5B;stroke-width:3;stroke-miterlimit:10;}
	.st249{fill:#E6E4E3;}
	.st250{fill:url(#SVGID_115_);}
	.st251{fill:url(#SVGID_116_);}
	.st252{fill:#8EE8FC;}
	.st253{fill:#927BE5;}
	.st254{fill:url(#SVGID_117_);}
	.st255{fill:url(#SVGID_118_);}
	.st256{fill:url(#SVGID_119_);}
	.st257{fill:url(#SVGID_120_);}
	.st258{fill:url(#SVGID_121_);}
	.st259{fill:url(#SVGID_122_);}
	.st260{fill:url(#SVGID_123_);}
	.st261{fill:url(#SVGID_124_);}
	.st262{fill:url(#SVGID_125_);}
	.st263{fill:url(#SVGID_126_);}
	.st264{fill:url(#SVGID_127_);}
	.st265{fill:#22B5D6;}
	.st266{fill-rule:evenodd;clip-rule:evenodd;fill:#848484;}
	.st267{fill-rule:evenodd;clip-rule:evenodd;fill:#29C3E5;}
	.st268{fill-rule:evenodd;clip-rule:evenodd;fill:#0078D7;}
	.st269{fill:#BBB8B4;}
	.st270{fill:none;}
	.st271{fill:#FDC9B5;}
	.st272{fill:#EB8875;}
	.st273{fill:url(#SVGID_128_);}
	.st274{fill:url(#SVGID_129_);}
	.st275{fill:url(#SVGID_130_);}
	.st276{fill:url(#SVGID_131_);}
	.st277{fill:url(#SVGID_132_);}
	.st278{fill:url(#SVGID_133_);}
	.st279{fill:url(#SVGID_134_);}
	.st280{fill:url(#SVGID_135_);}
	.st281{fill:url(#SVGID_136_);}
	.st282{fill:url(#SVGID_137_);}
	.st283{fill:url(#SVGID_138_);}
	.st284{fill:url(#SVGID_139_);}
	.st285{fill:url(#SVGID_140_);}
	.st286{fill:url(#SVGID_141_);}
	.st287{fill:url(#SVGID_142_);}
	.st288{fill:none;stroke:#FFFFFF;stroke-width:2.2678;stroke-miterlimit:10;}
	.st289{fill:#FFEED0;}
	.st290{fill:#27BEE0;}
	.st291{fill:#BBF1FD;}
	.st292{fill:#24BADB;}
	.st293{fill:#77E3FB;}
	.st294{fill:#666666;}
	.st295{fill:#AACDF6;}
	.st296{fill:#E6E6E6;}
	.st297{fill:#7E62DF;}
	.st298{fill:url(#SVGID_143_);}
	.st299{fill:url(#SVGID_144_);}
	.st300{fill:#FCD18A;}
	.st301{fill:#D8E377;}
	.st302{fill:#DBE581;}
	.st303{fill:#81921F;}
	.st304{fill:#95A527;}
	.st305{fill-rule:evenodd;clip-rule:evenodd;fill:#A7A4A0;}
	.st306{fill:url(#SVGID_145_);}
	.st307{fill:url(#SVGID_146_);}
	.st308{fill:url(#SVGID_147_);}
	.st309{fill:#FDD490;}
	.st310{fill:#B3B3B3;}
	.st311{fill:#F09250;}
	.st312{fill:url(#SVGID_148_);}
	.st313{fill:url(#SVGID_149_);}
	.st314{fill:url(#SVGID_150_);}
	.st315{fill:url(#SVGID_151_);}
	.st316{fill:url(#SVGID_152_);}
	.st317{fill:#F2A694;}
	.st318{fill:#DC624F;}
	.st319{fill:#FDFDFD;}
	.st320{fill:#D0EDFD;}
	.st321{fill:none;stroke:#8065E0;stroke-width:3.5361;stroke-miterlimit:10;}
	.st322{fill:url(#SVGID_153_);}
	.st323{fill:url(#SVGID_154_);}
	.st324{fill:url(#SVGID_155_);}
	.st325{fill:url(#SVGID_156_);}
	.st326{fill:url(#SVGID_157_);}
	.st327{fill:url(#SVGID_158_);}
	.st328{fill:url(#SVGID_159_);}
	.st329{fill:url(#SVGID_160_);}
	.st330{fill:none;stroke:#C8C6C4;stroke-width:0.1949;stroke-miterlimit:10;}
	.st331{fill:url(#SVGID_161_);}
	.st332{fill:url(#SVGID_162_);}
	.st333{fill:url(#SVGID_163_);}
	.st334{fill:url(#SVGID_164_);}
	.st335{fill:url(#SVGID_165_);}
	.st336{fill:url(#SVGID_166_);}
	.st337{fill:url(#SVGID_167_);}
	.st338{fill:url(#SVGID_168_);}
	.st339{fill:url(#SVGID_169_);}
	.st340{fill:url(#SVGID_170_);}
	.st341{fill:url(#SVGID_171_);}
	.st342{fill:url(#SVGID_172_);}
	.st343{fill:url(#SVGID_173_);}
	.st344{fill:#0769DC;}
	.st345{fill:#60A2F0;}
	.st346{fill:#B5D5EA;}
	.st347{fill:#FFE5B9;}
	.st348{fill:#88DDE5;}
	.st349{fill:#1189A5;}
	.st350{fill:#222222;}
	.st351{fill:#00D8FF;}
	.st352{fill:url(#SVGID_174_);}
	.st353{fill:#F2F7FE;}
	.st354{fill:#DD0031;}
	.st355{fill:#C3002F;}
	.st356{fill:#EBA841;}
	.st357{fill:#ED9583;}
	.st358{fill:url(#SVGID_175_);}
	.st359{fill:#106EBE;}
	.st360{fill:url(#SVGID_176_);}
	.st361{fill:url(#SVGID_177_);}
	.st362{fill:#2B579A;}
	.st363{fill:url(#SVGID_178_);}
	.st364{fill:url(#SVGID_179_);}
	.st365{fill:url(#SVGID_180_);}
	.st366{fill:url(#SVGID_181_);}
	.st367{fill:url(#SVGID_182_);}
	.st368{fill:url(#SVGID_183_);}
	.st369{fill:url(#SVGID_184_);}
	.st370{fill:url(#SVGID_185_);}
	.st371{fill:url(#SVGID_186_);}
	.st372{fill:url(#SVGID_187_);}
	.st373{fill:url(#SVGID_188_);}
	.st374{fill:url(#SVGID_189_);}
	.st375{fill:url(#SVGID_190_);}
	.st376{fill:url(#SVGID_191_);}
	.st377{fill:#52A898;}
	.st378{fill:#BADBF9;}
	.st379{fill:#E1EFF9;}
	.st380{fill:#6FD0C3;}
	.st381{fill:#EFFAF8;}
	.st382{fill:url(#SVGID_192_);}
	.st383{fill:url(#SVGID_193_);}
	.st384{fill:url(#SVGID_194_);}
	.st385{fill:url(#SVGID_195_);}
	.st386{fill:url(#SVGID_196_);}
	.st387{fill:url(#SVGID_197_);}
	.st388{fill:url(#SVGID_198_);}
	.st389{fill:url(#SVGID_199_);}
	.st390{fill:url(#SVGID_200_);}
	.st391{fill:url(#SVGID_201_);}
	.st392{fill:url(#SVGID_202_);}
	.st393{fill:url(#SVGID_203_);}
	.st394{fill:url(#SVGID_204_);}
	.st395{fill:#C4C1BE;}
	.st396{fill:#9B86E7;}
	.st397{fill:#DF9B39;}
	.st398{fill:none;stroke:#FFFFFF;stroke-width:4;stroke-miterlimit:10;}
	.st399{fill:none;stroke:#FFFFFF;stroke-width:4;stroke-miterlimit:10;stroke-dasharray:4.2217,6.3326;}
	.st400{fill:none;stroke:#FFFFFF;stroke-width:4;stroke-miterlimit:10;stroke-dasharray:4.1698,6.2547;}
	.st401{fill:none;stroke:#FFFFFF;stroke-width:4;stroke-miterlimit:10;stroke-dasharray:4.2266,6.3399;}
	.st402{fill:none;stroke:#FFFFFF;stroke-width:4;stroke-miterlimit:10;stroke-dasharray:4.459,6.6886;}
	.st403{fill:#4ADAFA;}
	.st404{fill:#EA7B66;}
	.st405{fill:#D8604D;}
	.st406{fill:#F6B29F;}
	.st407{fill:url(#SVGID_205_);}
	.st408{fill:#FFFFFF;stroke:#C5D43B;stroke-width:2;stroke-miterlimit:10;}
	.st409{fill-rule:evenodd;clip-rule:evenodd;fill:#BDD8F9;}
	.st410{fill-rule:evenodd;clip-rule:evenodd;fill:#76AFF2;}
	.st411{fill:url(#SVGID_206_);}
	.st412{fill:url(#SVGID_207_);}
	.st413{fill:url(#SVGID_208_);}
	.st414{fill:url(#SVGID_209_);}
	.st415{fill:url(#SVGID_210_);}
	.st416{fill:url(#SVGID_211_);}
	.st417{fill:url(#SVGID_212_);}
	.st418{fill:url(#SVGID_213_);}
	.st419{fill:url(#SVGID_214_);}
	.st420{fill:url(#SVGID_215_);}
	.st421{fill:url(#SVGID_216_);}
	.st422{fill:url(#SVGID_217_);}
	.st423{fill:url(#SVGID_218_);}
	.st424{fill:url(#SVGID_219_);}
	.st425{fill:url(#SVGID_220_);}
	.st426{fill:url(#SVGID_221_);}
	.st427{fill:#EC917E;}
	.st428{fill:#B53C33;}
	.st429{fill:url(#SVGID_222_);}
	.st430{fill:#F1A18E;}
	.st431{fill:url(#SVGID_223_);}
	.st432{fill:url(#SVGID_224_);}
	.st433{fill:url(#SVGID_225_);}
	.st434{fill:url(#SVGID_226_);}
	.st435{fill:url(#SVGID_227_);}
	.st436{fill:url(#SVGID_228_);}
	.st437{fill:url(#SVGID_229_);}
	.st438{fill:url(#SVGID_230_);}
	.st439{fill:url(#SVGID_231_);}
	.st440{fill:url(#SVGID_232_);}
	.st441{fill:url(#SVGID_233_);}
	.st442{fill:url(#SVGID_234_);}
	.st443{fill:url(#SVGID_235_);}
	.st444{fill:url(#SVGID_236_);}
	.st445{fill:url(#SVGID_237_);}
	.st446{fill:url(#SVGID_238_);}
	.st447{fill:url(#SVGID_239_);}
	.st448{fill:url(#SVGID_240_);}
	.st449{fill:url(#SVGID_241_);}
	.st450{fill:url(#SVGID_242_);}
	.st451{fill:url(#SVGID_243_);}
	.st452{fill:url(#SVGID_244_);}
	.st453{fill:url(#SVGID_245_);}
	.st454{fill:url(#SVGID_246_);}
	.st455{fill:url(#SVGID_247_);}
	.st456{fill:url(#SVGID_248_);}
	.st457{fill:url(#SVGID_249_);}
	.st458{fill:url(#SVGID_250_);}
	.st459{fill:url(#SVGID_251_);}
	.st460{fill:url(#SVGID_252_);}
	.st461{fill:#1BA6C5;}
	.st462{fill:url(#SVGID_253_);}
	.st463{fill-rule:evenodd;clip-rule:evenodd;fill:#BBF1FD;}
	.st464{fill:url(#SVGID_254_);}
	.st465{fill-rule:evenodd;clip-rule:evenodd;fill:#FFFFFF;}
	.st466{fill-rule:evenodd;clip-rule:evenodd;fill:#B2B2B2;}
	.st467{fill-rule:evenodd;clip-rule:evenodd;fill:#1DACCC;}
	.st468{fill:url(#SVGID_255_);}
	.st469{fill:url(#SVGID_256_);}
	.st470{fill:url(#SVGID_257_);}
	.st471{fill:url(#SVGID_258_);}
	.st472{fill:url(#SVGID_259_);}
	.st473{fill:url(#SVGID_260_);}
	.st474{fill:url(#SVGID_261_);}
	.st475{fill:url(#SVGID_262_);}
	.st476{fill:url(#SVGID_263_);}
	.st477{fill:url(#SVGID_264_);}
	.st478{fill:url(#SVGID_265_);}
	.st479{fill:url(#SVGID_266_);}
	.st480{fill:url(#SVGID_267_);}
	.st481{fill:url(#SVGID_268_);}
	.st482{fill:url(#SVGID_269_);}
	.st483{fill:#D55D4B;}
	.st484{fill:#FDD696;}
	.st485{fill:url(#SVGID_270_);}
	.st486{fill:url(#SVGID_271_);}
	.st487{fill:url(#SVGID_272_);}
	.st488{fill:url(#SVGID_273_);}
	.st489{fill:#5F5F5F;}
	.st490{fill:#F2F6D0;}
	.st491{fill:#227BE5;}
	.st492{fill:#E8FAFE;}
	.st493{fill:url(#SVGID_274_);}
	.st494{fill:url(#SVGID_275_);}
	.st495{fill:url(#SVGID_276_);}
	.st496{fill:url(#SVGID_277_);}
	.st497{fill:url(#SVGID_278_);}
	.st498{fill:url(#SVGID_279_);}
	.st499{fill:url(#SVGID_280_);}
	.st500{fill:url(#SVGID_281_);}
	.st501{fill:url(#SVGID_282_);}
	.st502{fill:url(#SVGID_283_);}
	.st503{fill:url(#SVGID_284_);}
	.st504{fill:url(#SVGID_285_);}
	.st505{fill:url(#SVGID_286_);}
	.st506{fill:url(#SVGID_287_);}
	.st507{fill:url(#SVGID_288_);}
	.st508{fill:url(#SVGID_289_);}
	.st509{fill:#0D7E98;}
	.st510{fill:#E56B56;}
	.st511{fill:#F9BE5C;}
	.st512{fill:#CB8930;}
	.st513{fill:none;stroke:#FFFFFF;stroke-width:2.8606;stroke-miterlimit:10;}
	.st514{fill:none;stroke:#B3AFAB;stroke-width:1.4303;stroke-linecap:round;stroke-linejoin:round;stroke-miterlimit:10;}
	.st515{fill-rule:evenodd;clip-rule:evenodd;fill:#F7B548;}
	.st516{fill:url(#SVGID_290_);}
	.st517{fill:url(#SVGID_291_);}
	.st518{fill:url(#SVGID_292_);}
	.st519{fill:url(#SVGID_293_);}
	.st520{fill:url(#SVGID_294_);}
	.st521{fill:url(#SVGID_295_);}
	.st522{fill:url(#SVGID_296_);}
	.st523{fill:url(#SVGID_297_);}
	.st524{fill:url(#SVGID_298_);}
	.st525{fill:url(#SVGID_299_);}
	.st526{fill:url(#SVGID_300_);}
	.st527{fill:url(#SVGID_301_);}
	.st528{fill:url(#SVGID_302_);}
	.st529{fill:url(#SVGID_303_);}
	.st530{fill:url(#SVGID_304_);}
	.st531{fill:url(#SVGID_305_);}
	.st532{fill:url(#SVGID_306_);}
	.st533{fill:url(#SVGID_307_);}
	.st534{fill:url(#SVGID_308_);}
	.st535{fill:url(#SVGID_309_);}
	.st536{fill:url(#SVGID_310_);}
	.st537{fill:url(#SVGID_311_);}
	.st538{fill:url(#SVGID_312_);}
	.st539{fill:url(#SVGID_313_);}
	.st540{fill:url(#SVGID_314_);}
	.st541{fill:url(#SVGID_315_);}
	.st542{fill:#138FAB;}
	.st543{fill:#B1E9EE;}
	.st544{fill:none;stroke:#FF00FF;stroke-width:37.7526;stroke-miterlimit:10;}
	.st545{clip-path:url(#SVGID_317_);fill:#8065E0;}
	.st546{clip-path:url(#SVGID_317_);fill:#7F64E0;}
	.st547{clip-path:url(#SVGID_317_);fill:#7F63E0;}
	.st548{clip-path:url(#SVGID_317_);fill:#7E63DF;}
	.st549{clip-path:url(#SVGID_317_);fill:#7D62DF;}
	.st550{clip-path:url(#SVGID_317_);fill:#7D61DF;}
	.st551{clip-path:url(#SVGID_317_);fill:#7C60DF;}
	.st552{clip-path:url(#SVGID_317_);fill:#7B5FDF;}
	.st553{clip-path:url(#SVGID_317_);fill:#7B5EDF;}
	.st554{clip-path:url(#SVGID_317_);fill:#7A5DDE;}
	.st555{clip-path:url(#SVGID_317_);fill:#795CDE;}
	.st556{clip-path:url(#SVGID_317_);fill:#785BDE;}
	.st557{clip-path:url(#SVGID_317_);fill:#775ADE;}
	.st558{clip-path:url(#SVGID_317_);fill:#7659DD;}
	.st559{clip-path:url(#SVGID_317_);fill:#7658DD;}
	.st560{clip-path:url(#SVGID_317_);fill:#7557DD;}
	.st561{clip-path:url(#SVGID_317_);fill:#7456DD;}
	.st562{clip-path:url(#SVGID_317_);fill:#7355DC;}
	.st563{clip-path:url(#SVGID_317_);fill:#7254DC;}
	.st564{clip-path:url(#SVGID_317_);fill:#7153DC;}
	.st565{clip-path:url(#SVGID_317_);fill:#7051DC;}
	.st566{clip-path:url(#SVGID_317_);fill:#6F50DB;}
	.st567{clip-path:url(#SVGID_317_);fill:#6E4FDB;}
	.st568{clip-path:url(#SVGID_317_);fill:#6D4EDB;}
	.st569{clip-path:url(#SVGID_317_);fill:#6C4DDB;}
	.st570{clip-path:url(#SVGID_317_);fill:#6B4BDA;}
	.st571{clip-path:url(#SVGID_317_);fill:#6A4ADA;}
	.st572{clip-path:url(#SVGID_317_);fill:#6949DA;}
	.st573{clip-path:url(#SVGID_317_);fill:#6848DA;}
	.st574{clip-path:url(#SVGID_317_);fill:#6746D9;}
	.st575{clip-path:url(#SVGID_317_);fill:#6645D9;}
	.st576{clip-path:url(#SVGID_317_);fill:#6544D9;}
	.st577{clip-path:url(#SVGID_317_);fill:#6443D9;}
	.st578{clip-path:url(#SVGID_317_);fill:#6442D8;}
	.st579{clip-path:url(#SVGID_317_);fill:#6341D8;}
	.st580{clip-path:url(#SVGID_317_);fill:#6240D8;}
	.st581{clip-path:url(#SVGID_317_);fill:#613FD8;}
	.st582{clip-path:url(#SVGID_317_);fill:#603ED8;}
	.st583{clip-path:url(#SVGID_317_);fill:#603DD7;}
	.st584{clip-path:url(#SVGID_317_);fill:#5F3CD7;}
	.st585{clip-path:url(#SVGID_317_);fill:#5E3BD7;}
	.st586{clip-path:url(#SVGID_317_);fill:#5D3AD7;}
	.st587{clip-path:url(#SVGID_317_);fill:#5C39D7;}
	.st588{clip-path:url(#SVGID_317_);fill:#5B38D6;}
	.st589{clip-path:url(#SVGID_317_);fill:#5A37D6;}
	.st590{clip-path:url(#SVGID_317_);fill:#5A36D6;}
	.st591{clip-path:url(#SVGID_317_);fill:#5935D6;}
	.st592{clip-path:url(#SVGID_317_);fill:#5834D6;}
	.st593{clip-path:url(#SVGID_317_);fill:#5732D5;}
	.st594{clip-path:url(#SVGID_317_);fill:#5631D5;}
	.st595{clip-path:url(#SVGID_317_);fill:#5530D5;}
	.st596{clip-path:url(#SVGID_317_);fill:#542FD5;}
	.st597{clip-path:url(#SVGID_317_);fill:#542ED5;}
	.st598{clip-path:url(#SVGID_317_);fill:#532DD4;}
	.st599{clip-path:url(#SVGID_317_);fill:#522CD4;}
	.st600{clip-path:url(#SVGID_317_);fill:#512BD4;}
	.st601{fill:#63D3DE;}
	.st602{fill:url(#SVGID_318_);}
	.st603{fill:url(#SVGID_319_);}
	.st604{fill:url(#SVGID_320_);}
	.st605{fill:none;stroke:#FF00FF;stroke-width:39.6641;stroke-miterlimit:10;}
	.st606{fill:url(#SVGID_321_);}
	.st607{fill:url(#SVGID_322_);}
	.st608{fill:url(#SVGID_323_);}
	.st609{fill:url(#SVGID_324_);}
	.st610{fill:url(#SVGID_325_);}
	.st611{fill:url(#SVGID_326_);}
	.st612{fill:url(#SVGID_327_);}
	.st613{fill:url(#SVGID_328_);}
	.st614{fill:url(#SVGID_329_);}
	.st615{fill:url(#SVGID_330_);}
	.st616{fill:url(#SVGID_331_);}
	.st617{fill:#9EAE2B;}
	.st618{fill:url(#SVGID_332_);}
	.st619{fill:url(#SVGID_333_);}
	.st620{fill:url(#SVGID_334_);}
	.st621{fill:url(#SVGID_335_);}
	.st622{fill:url(#SVGID_336_);}
	.st623{fill:url(#SVGID_337_);}
	.st624{fill:url(#SVGID_338_);}
	.st625{fill:url(#SVGID_339_);}
	.st626{fill:url(#SVGID_340_);}
	.st627{fill:url(#SVGID_341_);}
	.st628{fill:url(#SVGID_342_);}
	.st629{fill:url(#SVGID_343_);}
	.st630{fill:url(#SVGID_344_);}
	.st631{fill:url(#SVGID_345_);}
	.st632{fill:url(#SVGID_346_);}
	.st633{fill:url(#SVGID_347_);}
	.st634{fill:#D8F3FE;}
	.st635{fill:#085A7E;}
	.st636{fill:#E1EA95;}
	.st637{fill:#FEE0AD;}
	.st638{fill:#8E7A6F;}
	.st639{fill:#191717;}
	.st640{fill:#F0DB4F;}
	.st641{fill:#323330;}
	.st642{fill:url(#SVGID_348_);}
	.st643{fill:url(#SVGID_349_);}
	.st644{fill:url(#SVGID_350_);}
	.st645{fill:url(#SVGID_351_);}
	.st646{fill:url(#SVGID_352_);}
	.st647{fill:url(#SVGID_353_);}
	.st648{fill:url(#SVGID_354_);}
	.st649{fill:url(#SVGID_355_);}
	.st650{fill:url(#SVGID_356_);}
	.st651{fill:url(#SVGID_357_);}
	.st652{fill:url(#SVGID_358_);}
	.st653{fill:url(#SVGID_359_);}
	.st654{fill:#8577E5;}
	.st655{fill:url(#SVGID_360_);}
	.st656{fill:#263619;}
	.st657{fill:#6E7F17;}
	.st658{fill:#EEEDEC;}
	.st659{fill:#DEE88B;}
	.st660{fill:url(#SVGID_361_);}
	.st661{fill:none;stroke:#FFFFFF;stroke-width:3.0081;stroke-linecap:round;stroke-linejoin:round;stroke-miterlimit:10;}
	.st662{fill:none;stroke:#FFFFFF;stroke-width:3.567;stroke-linecap:round;stroke-linejoin:round;stroke-miterlimit:10;}
	.st663{fill:#F7F6F6;}
	.st664{fill:#CBD94F;}
	.st665{fill:#CF5746;}
	.st666{fill:#ED8422;}
	.st667{fill-rule:evenodd;clip-rule:evenodd;fill:#A3C9F6;}
	.st668{fill:url(#SVGID_362_);}
	.st669{fill-rule:evenodd;clip-rule:evenodd;fill:#549BEF;}
	.st670{fill:#FDD99C;}
	.st671{fill:#C4832D;}
	.st672{fill:#FFF2DC;}
	.st673{fill:#1595B2;}
	.st674{fill:url(#SVGID_363_);}
	.st675{fill:url(#SVGID_364_);}
	.st676{fill:url(#SVGID_365_);}
	.st677{fill:url(#SVGID_366_);}
	.st678{fill:url(#SVGID_367_);}
	.st679{fill:url(#SVGID_368_);}
	.st680{fill:url(#SVGID_369_);}
	.st681{fill:url(#SVGID_370_);}
	.st682{fill:url(#SVGID_371_);}
	.st683{fill:url(#SVGID_372_);}
	.st684{fill:url(#SVGID_373_);}
	.st685{fill:url(#SVGID_374_);}
	.st686{fill:url(#SVGID_375_);}
	.st687{fill:#EDF7F6;}
	.st688{fill:url(#SVGID_376_);}
	.st689{fill:url(#SVGID_377_);}
	.st690{fill:#E97762;}
	.st691{fill:url(#SVGID_378_);}
	.st692{fill:url(#SVGID_379_);}
	.st693{fill:url(#SVGID_380_);}
	.st694{fill:url(#SVGID_381_);}
	.st695{fill:url(#SVGID_382_);}
	.st696{fill:url(#SVGID_383_);}
	.st697{fill:url(#SVGID_384_);}
	.st698{fill:url(#SVGID_385_);}
	.st699{fill:url(#SVGID_386_);}
	.st700{fill:url(#SVGID_387_);}
	.st701{fill:url(#SVGID_388_);}
	.st702{fill:#A2AD6D;}
	.st703{fill:#E3646A;}
	.st704{fill:#889643;}
	.st705{fill:#EE8F94;}
	.st706{fill:url(#SVGID_389_);}
	.st707{fill:url(#SVGID_390_);}
	.st708{fill:#1C77E2;}
	.st709{fill:#D18F33;}
	.st710{fill:none;stroke:#C740B6;stroke-width:2.0654;stroke-miterlimit:10;}
	.st711{fill:#E26854;}
	.st712{fill:#F9BDAA;}
	.st713{fill:url(#SVGID_391_);}
	.st714{fill:url(#SVGID_392_);}
	.st715{fill:#519F90;}
	.st716{fill:#4E9A8B;}
	.st717{fill:none;stroke:#C2E8E3;stroke-width:1.5759;stroke-miterlimit:10;}
	.st718{fill:url(#SVGID_393_);}
	.st719{fill:url(#SVGID_394_);}
	.st720{fill:url(#SVGID_395_);}
	.st721{fill:url(#SVGID_396_);}
	.st722{fill:url(#SVGID_397_);}
	.st723{fill:none;stroke:#FF00FF;stroke-width:29.9084;stroke-miterlimit:10;}
	.st724{fill:url(#SVGID_398_);}
	.st725{fill:url(#SVGID_399_);}
	.st726{fill:url(#SVGID_400_);}
	.st727{fill:url(#SVGID_401_);}
	.st728{fill:url(#SVGID_402_);}
	.st729{fill:url(#SVGID_403_);}
	.st730{fill:url(#SVGID_404_);}
	.st731{fill:url(#SVGID_405_);}
	.st732{fill:url(#SVGID_406_);}
	.st733{fill:#2B88D8;}
	.st734{fill:url(#SVGID_407_);}
	.st735{fill:url(#SVGID_408_);}
	.st736{fill:url(#SVGID_409_);}
	.st737{fill:url(#SVGID_410_);}
	.st738{fill:url(#SVGID_411_);}
	.st739{fill:url(#SVGID_412_);}
	.st740{fill:url(#SVGID_413_);}
	.st741{fill:url(#SVGID_414_);}
	.st742{fill:url(#SVGID_415_);}
	.st743{fill:url(#SVGID_416_);}
	.st744{fill:url(#SVGID_417_);}
	.st745{fill:url(#SVGID_418_);}
	.st746{fill:url(#SVGID_419_);}
	.st747{fill:url(#SVGID_420_);}
	.st748{fill:url(#SVGID_421_);}
	.st749{fill:url(#SVGID_422_);}
	.st750{fill:url(#SVGID_423_);}
	.st751{fill:#F0AE00;}
	.st752{fill:#3F3C38;}
	.st753{fill:#BBCB37;}
	.st754{fill:url(#SVGID_424_);}
	.st755{fill:url(#SVGID_425_);}
	.st756{fill:url(#SVGID_426_);}
	.st757{fill:url(#SVGID_427_);}
	.st758{fill:url(#SVGID_428_);}
	.st759{fill:url(#SVGID_429_);}
	.st760{fill:url(#SVGID_430_);}
	.st761{fill:url(#SVGID_431_);}
	.st762{fill:url(#SVGID_432_);}
	.st763{fill:url(#SVGID_433_);}
	.st764{fill:url(#SVGID_434_);}
	.st765{fill:url(#SVGID_435_);}
	.st766{fill:url(#SVGID_436_);}
	.st767{fill:url(#SVGID_437_);}
	.st768{fill:url(#SVGID_438_);}
	.st769{fill:url(#SVGID_439_);}
	.st770{fill:#F4AC99;}
	.st771{fill:url(#SVGID_440_);}
	.st772{fill:url(#SVGID_441_);}
	.st773{fill:url(#SVGID_442_);}
	.st774{fill:url(#SVGID_443_);}
	.st775{fill:url(#SVGID_444_);}
	.st776{fill:url(#SVGID_445_);}
	.st777{clip-path:url(#SVGID_447_);fill:#8065E0;}
	.st778{clip-path:url(#SVGID_447_);fill:#7F64E0;}
	.st779{clip-path:url(#SVGID_447_);fill:#7F63E0;}
	.st780{clip-path:url(#SVGID_447_);fill:#7E63DF;}
	.st781{clip-path:url(#SVGID_447_);fill:#7D62DF;}
	.st782{clip-path:url(#SVGID_447_);fill:#7D61DF;}
	.st783{clip-path:url(#SVGID_447_);fill:#7C60DF;}
	.st784{clip-path:url(#SVGID_447_);fill:#7B5FDF;}
	.st785{clip-path:url(#SVGID_447_);fill:#7B5EDF;}
	.st786{clip-path:url(#SVGID_447_);fill:#7A5DDE;}
	.st787{clip-path:url(#SVGID_447_);fill:#795CDE;}
	.st788{clip-path:url(#SVGID_447_);fill:#785BDE;}
	.st789{clip-path:url(#SVGID_447_);fill:#775ADE;}
	.st790{clip-path:url(#SVGID_447_);fill:#7659DD;}
	.st791{clip-path:url(#SVGID_447_);fill:#7658DD;}
	.st792{clip-path:url(#SVGID_447_);fill:#7557DD;}
	.st793{clip-path:url(#SVGID_447_);fill:#7456DD;}
	.st794{clip-path:url(#SVGID_447_);fill:#7355DC;}
	.st795{clip-path:url(#SVGID_447_);fill:#7254DC;}
	.st796{clip-path:url(#SVGID_447_);fill:#7153DC;}
	.st797{clip-path:url(#SVGID_447_);fill:#7051DC;}
	.st798{clip-path:url(#SVGID_447_);fill:#6F50DB;}
	.st799{clip-path:url(#SVGID_447_);fill:#6E4FDB;}
	.st800{clip-path:url(#SVGID_447_);fill:#6D4EDB;}
	.st801{clip-path:url(#SVGID_447_);fill:#6C4DDB;}
	.st802{clip-path:url(#SVGID_447_);fill:#6B4BDA;}
	.st803{clip-path:url(#SVGID_447_);fill:#6A4ADA;}
	.st804{clip-path:url(#SVGID_447_);fill:#6949DA;}
	.st805{clip-path:url(#SVGID_447_);fill:#6848DA;}
	.st806{clip-path:url(#SVGID_447_);fill:#6746D9;}
	.st807{clip-path:url(#SVGID_447_);fill:#6645D9;}
	.st808{clip-path:url(#SVGID_447_);fill:#6544D9;}
	.st809{clip-path:url(#SVGID_447_);fill:#6443D9;}
	.st810{clip-path:url(#SVGID_447_);fill:#6442D8;}
	.st811{clip-path:url(#SVGID_447_);fill:#6341D8;}
	.st812{clip-path:url(#SVGID_447_);fill:#6240D8;}
	.st813{clip-path:url(#SVGID_447_);fill:#613FD8;}
	.st814{clip-path:url(#SVGID_447_);fill:#603ED8;}
	.st815{clip-path:url(#SVGID_447_);fill:#603DD7;}
	.st816{clip-path:url(#SVGID_447_);fill:#5F3CD7;}
	.st817{clip-path:url(#SVGID_447_);fill:#5E3BD7;}
	.st818{clip-path:url(#SVGID_447_);fill:#5D3AD7;}
	.st819{clip-path:url(#SVGID_447_);fill:#5C39D7;}
	.st820{clip-path:url(#SVGID_447_);fill:#5B38D6;}
	.st821{clip-path:url(#SVGID_447_);fill:#5A37D6;}
	.st822{clip-path:url(#SVGID_447_);fill:#5A36D6;}
	.st823{clip-path:url(#SVGID_447_);fill:#5935D6;}
	.st824{clip-path:url(#SVGID_447_);fill:#5834D6;}
	.st825{clip-path:url(#SVGID_447_);fill:#5732D5;}
	.st826{clip-path:url(#SVGID_447_);fill:#5631D5;}
	.st827{clip-path:url(#SVGID_447_);fill:#5530D5;}
	.st828{clip-path:url(#SVGID_447_);fill:#542FD5;}
	.st829{clip-path:url(#SVGID_447_);fill:#542ED5;}
	.st830{clip-path:url(#SVGID_447_);fill:#532DD4;}
	.st831{clip-path:url(#SVGID_447_);fill:#522CD4;}
	.st832{clip-path:url(#SVGID_447_);fill:#512BD4;}
	.st833{fill:url(#SVGID_448_);}
	.st834{clip-path:url(#SVGID_450_);fill:#8065E0;}
	.st835{clip-path:url(#SVGID_450_);fill:#7F64E0;}
	.st836{clip-path:url(#SVGID_450_);fill:#7F63E0;}
	.st837{clip-path:url(#SVGID_450_);fill:#7E63DF;}
	.st838{clip-path:url(#SVGID_450_);fill:#7D62DF;}
	.st839{clip-path:url(#SVGID_450_);fill:#7D61DF;}
	.st840{clip-path:url(#SVGID_450_);fill:#7C60DF;}
	.st841{clip-path:url(#SVGID_450_);fill:#7B5FDF;}
	.st842{clip-path:url(#SVGID_450_);fill:#7B5EDF;}
	.st843{clip-path:url(#SVGID_450_);fill:#7A5DDE;}
	.st844{clip-path:url(#SVGID_450_);fill:#795CDE;}
	.st845{clip-path:url(#SVGID_450_);fill:#785BDE;}
	.st846{clip-path:url(#SVGID_450_);fill:#775ADE;}
	.st847{clip-path:url(#SVGID_450_);fill:#7659DD;}
	.st848{clip-path:url(#SVGID_450_);fill:#7658DD;}
	.st849{clip-path:url(#SVGID_450_);fill:#7557DD;}
	.st850{clip-path:url(#SVGID_450_);fill:#7456DD;}
	.st851{clip-path:url(#SVGID_450_);fill:#7355DC;}
	.st852{clip-path:url(#SVGID_450_);fill:#7254DC;}
	.st853{clip-path:url(#SVGID_450_);fill:#7153DC;}
	.st854{clip-path:url(#SVGID_450_);fill:#7051DC;}
	.st855{clip-path:url(#SVGID_450_);fill:#6F50DB;}
	.st856{clip-path:url(#SVGID_450_);fill:#6E4FDB;}
	.st857{clip-path:url(#SVGID_450_);fill:#6D4EDB;}
	.st858{clip-path:url(#SVGID_450_);fill:#6C4DDB;}
	.st859{clip-path:url(#SVGID_450_);fill:#6B4BDA;}
	.st860{clip-path:url(#SVGID_450_);fill:#6A4ADA;}
	.st861{clip-path:url(#SVGID_450_);fill:#6949DA;}
	.st862{clip-path:url(#SVGID_450_);fill:#6848DA;}
	.st863{clip-path:url(#SVGID_450_);fill:#6746D9;}
	.st864{clip-path:url(#SVGID_450_);fill:#6645D9;}
	.st865{clip-path:url(#SVGID_450_);fill:#6544D9;}
	.st866{clip-path:url(#SVGID_450_);fill:#6443D9;}
	.st867{clip-path:url(#SVGID_450_);fill:#6442D8;}
	.st868{clip-path:url(#SVGID_450_);fill:#6341D8;}
	.st869{clip-path:url(#SVGID_450_);fill:#6240D8;}
	.st870{clip-path:url(#SVGID_450_);fill:#613FD8;}
	.st871{clip-path:url(#SVGID_450_);fill:#603ED8;}
	.st872{clip-path:url(#SVGID_450_);fill:#603DD7;}
	.st873{clip-path:url(#SVGID_450_);fill:#5F3CD7;}
	.st874{clip-path:url(#SVGID_450_);fill:#5E3BD7;}
	.st875{clip-path:url(#SVGID_450_);fill:#5D3AD7;}
	.st876{clip-path:url(#SVGID_450_);fill:#5C39D7;}
	.st877{clip-path:url(#SVGID_450_);fill:#5B38D6;}
	.st878{clip-path:url(#SVGID_450_);fill:#5A37D6;}
	.st879{clip-path:url(#SVGID_450_);fill:#5A36D6;}
	.st880{clip-path:url(#SVGID_450_);fill:#5935D6;}
	.st881{clip-path:url(#SVGID_450_);fill:#5834D6;}
	.st882{clip-path:url(#SVGID_450_);fill:#5732D5;}
	.st883{clip-path:url(#SVGID_450_);fill:#5631D5;}
	.st884{clip-path:url(#SVGID_450_);fill:#5530D5;}
	.st885{clip-path:url(#SVGID_450_);fill:#542FD5;}
	.st886{clip-path:url(#SVGID_450_);fill:#542ED5;}
	.st887{clip-path:url(#SVGID_450_);fill:#532DD4;}
	.st888{clip-path:url(#SVGID_450_);fill:#522CD4;}
	.st889{clip-path:url(#SVGID_450_);fill:#512BD4;}
	.st890{fill:url(#SVGID_451_);}
	.st891{fill:url(#SVGID_452_);}
	.st892{fill:url(#SVGID_453_);}
	.st893{fill:url(#SVGID_454_);}
	.st894{fill:url(#SVGID_455_);}
	.st895{fill:url(#SVGID_456_);}
	.st896{fill:url(#SVGID_457_);}
	.st897{fill:url(#SVGID_458_);}
	.st898{fill:url(#SVGID_459_);}
	.st899{fill:url(#SVGID_460_);}
	.st900{fill:url(#SVGID_461_);}
	.st901{fill:url(#SVGID_462_);}
	.st902{fill:url(#SVGID_463_);}
	.st903{fill:url(#SVGID_464_);}
	.st904{fill:url(#SVGID_465_);}
	.st905{fill:url(#SVGID_466_);}
	.st906{fill:url(#SVGID_467_);}
	.st907{fill:url(#SVGID_468_);}
	.st908{fill:url(#SVGID_469_);}
	.st909{fill:#EB8470;}
	.st910{fill:url(#SVGID_470_);}
	.st911{fill:url(#SVGID_471_);}
	.st912{fill:url(#SVGID_472_);}
	.st913{fill:url(#SVGID_473_);}
	.st914{fill:url(#SVGID_474_);}
	.st915{fill:url(#SVGID_475_);}
	.st916{fill:url(#SVGID_476_);}
	.st917{fill:url(#SVGID_477_);}
	.st918{fill:url(#SVGID_478_);}
	.st919{fill:url(#SVGID_479_);}
	.st920{fill:url(#SVGID_480_);}
	.st921{fill:url(#SVGID_481_);}
	.st922{fill:url(#SVGID_482_);}
	.st923{fill:url(#SVGID_483_);}
	.st924{fill:url(#SVGID_484_);}
	.st925{fill:url(#SVGID_485_);}
	.st926{fill:url(#SVGID_486_);}
	.st927{fill:url(#SVGID_487_);}
	.st928{fill:url(#SVGID_488_);}
	.st929{fill:url(#SVGID_489_);}
	.st930{fill:url(#SVGID_490_);}
	.st931{fill:url(#SVGID_491_);}
	.st932{fill:url(#SVGID_492_);}
	.st933{fill:url(#SVGID_493_);}
	.st934{fill:url(#SVGID_494_);}
	.st935{fill:url(#SVGID_495_);}
	.st936{fill:url(#SVGID_496_);}
	.st937{fill:url(#SVGID_497_);}
	.st938{fill:url(#SVGID_498_);}
	.st939{fill:url(#SVGID_499_);}
	.st940{fill:url(#SVGID_500_);}
	.st941{fill:url(#SVGID_501_);}
	.st942{fill:url(#SVGID_502_);}
	.st943{fill:url(#SVGID_503_);}
	.st944{fill:url(#SVGID_504_);}
	.st945{fill:url(#SVGID_505_);}
	.st946{fill:url(#SVGID_506_);}
	.st947{fill:url(#SVGID_507_);}
	.st948{fill:url(#SVGID_508_);}
	.st949{fill:url(#SVGID_509_);}
	.st950{fill:url(#SVGID_510_);}
	.st951{fill:url(#SVGID_511_);}
	.st952{fill:url(#SVGID_512_);}
	.st953{fill:url(#SVGID_513_);}
	.st954{fill:url(#SVGID_514_);}
	.st955{fill:url(#SVGID_515_);}
	.st956{fill:url(#SVGID_516_);}
	.st957{fill:url(#SVGID_517_);}
	.st958{fill:url(#SVGID_518_);}
	.st959{fill:url(#SVGID_519_);}
	.st960{fill:url(#SVGID_520_);}
	.st961{fill:url(#SVGID_521_);}
	.st962{fill:url(#SVGID_522_);}
	.st963{fill:url(#SVGID_523_);}
	.st964{fill:url(#SVGID_524_);}
	.st965{fill:url(#SVGID_525_);}
	.st966{fill:url(#SVGID_526_);}
	.st967{fill:url(#SVGID_527_);}
	.st968{fill:url(#SVGID_528_);}
	.st969{fill:url(#SVGID_529_);}
	.st970{fill:url(#SVGID_530_);}
	.st971{fill:url(#SVGID_531_);}
	.st972{fill:url(#SVGID_532_);}
	.st973{fill:url(#SVGID_533_);}
	.st974{fill:url(#SVGID_534_);}
	.st975{fill:url(#SVGID_535_);}
	.st976{fill:url(#SVGID_536_);}
	.st977{fill:url(#SVGID_537_);}
	.st978{fill:url(#SVGID_538_);}
	.st979{fill:url(#SVGID_539_);}
	.st980{fill:url(#SVGID_540_);}
	.st981{fill:url(#SVGID_541_);}
	.st982{fill:url(#SVGID_542_);}
	.st983{fill:#F9C163;}
	.st984{fill:url(#SVGID_543_);}
	.st985{fill:#E6F2FC;}
	.st986{fill:url(#SVGID_544_);}
	.st987{fill:url(#SVGID_545_);}
	.st988{fill:url(#SVGID_546_);}
	.st989{fill:url(#SVGID_547_);}
	.st990{fill:url(#SVGID_548_);}
	.st991{fill:url(#SVGID_549_);}
	.st992{fill:none;stroke:#908D89;stroke-width:2;stroke-miterlimit:10;}
	.st993{fill:url(#SVGID_550_);}
	.st994{fill:url(#SVGID_551_);}
	.st995{fill:url(#SVGID_552_);}
	.st996{fill:url(#SVGID_553_);}
	.st997{fill:url(#SVGID_554_);}
	.st998{fill:url(#SVGID_555_);}
	.st999{fill:url(#SVGID_556_);}
	.st1000{fill:url(#SVGID_557_);}
	.st1001{fill:url(#SVGID_558_);}
	.st1002{fill:url(#SVGID_559_);}
	.st1003{fill:url(#SVGID_560_);}
	.st1004{fill:url(#SVGID_561_);}
	.st1005{fill:url(#SVGID_562_);}
	.st1006{fill:url(#SVGID_563_);}
	.st1007{fill:url(#SVGID_564_);}
	.st1008{fill:url(#SVGID_565_);}
	.st1009{fill:#2ECCEF;}
	.st1010{fill:url(#SVGID_566_);}
	.st1011{fill:#DDF3FF;}
	.st1012{fill:#DF972B;}
	.st1013{fill:#F2F1F0;}
	.st1014{fill:#F4F3F2;}
	.st1015{fill:#6BAFE9;}
	.st1016{fill:#E96F5F;}
	.st1017{fill:#F2D850;}
	.st1018{fill:#8DE265;}
	.st1019{fill:url(#SVGID_567_);}
	.st1020{fill:url(#SVGID_570_);}
	.st1021{fill:url(#SVGID_573_);}
</style>
<g>
	
		<radialGradient id="SVGID_1_" cx="1303.8119" cy="1758.4091" r="3.0453" gradientTransform="matrix(47.3854 0 0 -47.3559 -61364.6836 83293.6641)" gradientUnits="userSpaceOnUse">
		<stop  offset="0" style="stop-color:#FFE3B3"/>
		<stop  offset="1" style="stop-color:#F7B548"/>
	</radialGradient>
	<path class="st20" d="M346.49,233.77l184.01,8.43c2.79,0.12,5.11-2.09,5.11-4.88l0.21-131.45c0-2.74-2.26-4.95-5-4.9l-184.03,3.67
		c-2.65,0.05-4.79,2.23-4.79,4.88l-0.19,119.34C341.82,231.49,343.86,233.66,346.49,233.77z"/>
	<path class="st238" d="M535.8,118.85l0.02-12.97c0-2.74-2.26-4.95-5-4.9l-184.03,3.67c-2.65,0.05-4.79,2.23-4.79,4.88l-0.02,10.67
		L535.8,118.85z"/>
	<path class="st135" d="M389.67,108.58l-15.9,0.09v6.18l15.9-0.09V108.58z"/>
	<path class="st135" d="M524.73,107.25l-104.74,1.05v6.18l104.74-1.07V107.25z"/>
	<path class="st1011" d="M361.39,150.4l-144.22-0.49c-2.86,0-5.16-2.32-5.16-5.18l0.19-112.32c0-2.72,2.14-5,4.86-5.16l144.22-9.09
		c2.98-0.19,5.51,2.18,5.51,5.18l-0.19,121.87C366.57,148.08,364.25,150.4,361.39,150.4z"/>
	<path class="st1012" d="M450.84,138.69c-6.51,0-12.95,1.44-18.84,4.23c-5.88,2.79-11.09,6.83-15.23,11.85
		c-0.67-1.49-1.26-3-1.72-4.55c-0.72-3.04-2.23-1.7-2.56,0.23c-0.26,1.46-0.79,8.9-1.19,12.73c-4.28,8.6-5.63,18.33-3.86,27.77
		c1.77,9.43,6.58,18.03,13.67,24.47c7.09,6.46,16.11,10.43,25.67,11.29c9.56,0.88,19.14-1.37,27.29-6.44
		c8.16-5.07,14.44-12.64,17.9-21.59c3.47-8.95,3.91-18.77,1.28-28c-2.63-9.22-8.21-17.33-15.86-23.12
		C469.76,141.8,460.42,138.69,450.84,138.69z M450.84,141.6c7.51,0,14.88,2.04,21.3,5.95c-2.84-0.33-6.72-0.63-8.88-0.79
		c-0.09,0-0.16,0.02-0.23,0.07c-0.07,0.05-0.12,0.12-0.14,0.21c-0.02,0.07-0.02,0.16,0.02,0.23c0.02,0.07,0.09,0.14,0.16,0.19
		l7.16,4.04c0.12,0.07,0.21,0.16,0.26,0.26c0.07,0.12,0.09,0.23,0.09,0.37c0,0.12-0.05,0.26-0.12,0.35
		c-0.07,0.12-0.16,0.19-0.28,0.26l-2.3,1.12c-0.14,0.07-0.26,0.16-0.33,0.28c-0.07,0.12-0.12,0.28-0.12,0.42
		c0,0.14,0.05,0.3,0.12,0.42c0.07,0.12,0.19,0.23,0.33,0.28c3.49,1.6,11.93,6.04,14.72,12.55c0.02,0.09,0.05,0.16,0.05,0.26
		c0,0.09-0.05,0.16-0.09,0.26c-0.05,0.07-0.12,0.14-0.19,0.19c-0.07,0.05-0.16,0.07-0.26,0.07c-0.86,0-1.72,0-2.32,0
		c-0.09,0-0.19,0.02-0.28,0.05c-0.09,0.05-0.16,0.09-0.23,0.16c-0.07,0.07-0.12,0.16-0.14,0.26c-0.02,0.09-0.02,0.19-0.02,0.28
		c0.7,4.46,0.72,8.99,0.05,13.45c-0.02,0.09-0.07,0.19-0.12,0.26c-0.07,0.07-0.14,0.12-0.23,0.16c-0.09,0.02-0.19,0.05-0.28,0.02
		c-0.09-0.02-0.19-0.05-0.26-0.09c-0.51-0.35-1.02-0.7-1.44-0.95c-0.07-0.05-0.16-0.07-0.28-0.09c-0.09,0-0.19,0.02-0.28,0.05
		c-0.09,0.05-0.16,0.09-0.21,0.19c-0.05,0.07-0.09,0.16-0.09,0.26c-0.51,4.07-3.79,20.87-23.76,21.19
		c-10.55,0.16-13.95-5.34-13.95-5.34c3.05,0.23,6.11,0,9.09-0.65c3-0.81,8.19-4.93,10.63-6.55c0.26-0.16,0.44-0.44,0.51-0.74
		c0.07-0.3,0.02-0.63-0.14-0.88c-0.95-1.6-3.26-4.39-7.28-2.86c-3.02,1.16-6.33,3.53-11.93,2.44c-4.49-0.88-6.7-5.2-6.97-7.88
		c-0.02-0.26,0-0.53,0.07-0.77c0.07-0.26,0.21-0.49,0.39-0.67c0.16-0.21,0.4-0.35,0.63-0.46c0.23-0.12,0.49-0.16,0.77-0.19
		l3.74-0.16c0.23,0,0.44-0.07,0.65-0.16c0.21-0.09,0.39-0.23,0.53-0.42c0.14-0.16,0.26-0.37,0.33-0.6c0.07-0.21,0.09-0.44,0.05-0.67
		l-0.19-1.51c-0.07-0.58,0-1.18,0.21-1.74c0.21-0.56,0.54-1.05,0.98-1.44l8.88-8.16c0.12-0.12,0.21-0.26,0.23-0.42
		c0.05-0.16,0.02-0.33-0.05-0.46c-0.07-0.14-0.16-0.28-0.3-0.37c-0.14-0.09-0.3-0.14-0.47-0.14c-2.63,0.07-5.72,0.33-8.6,0.44
		c-2.46,0.09-2.07-0.44-3.21-2.07c-1.14-1.63-0.4-3.37,1.7-5.97c2.12-2.6,0.63-3.3-1.09-2.51c-2.56,1.18-6.86,5.14-8.88,4.69
		c-3.19-0.49-6.39-0.74-9.6-0.79c3.86-4.72,8.72-8.53,14.23-11.15C438.7,142.97,444.73,141.6,450.84,141.6z"/>
	<path class="st128" d="M366.76,33.71l0.02-10.36c0-3-2.51-5.37-5.51-5.18l-144.22,9.06c-2.72,0.16-4.86,2.42-4.86,5.16l-0.02,8.95
		L366.76,33.71z"/>
	<path class="st1013" d="M222.09,36.45c-1.16,0-2.14-0.95-2.14-2.14c0-1.16,0.95-2.14,2.14-2.14c1.16,0,2.14,0.95,2.14,2.14
		C224.23,35.5,223.28,36.45,222.09,36.45z"/>
	<path class="st1013" d="M229.67,36.13c-1.16,0-2.14-0.95-2.14-2.14c0-1.16,0.95-2.14,2.14-2.14c1.16,0,2.14,0.95,2.14,2.14
		C231.79,35.17,230.84,36.13,229.67,36.13z"/>
	<path class="st1013" d="M249.13,30.23l-11.74,0.63v4.51l11.74-0.63V30.23z"/>
	<path class="st1013" d="M343.16,24.9l-76.56,4.18v4.51l76.56-4.18V24.9z"/>
	<path class="st1013" d="M352.04,24.32v4.51l5.51-0.3v-4.51L352.04,24.32z"/>
	<path class="st58" d="M379.72,273.13c-21.2,1.84-50.71,0.65-66.61-3.95c-3.16-0.91-4.23-1.91-4.23-4.04l0.23-128.82
		c0-2.23,2.02-4.04,4.51-4.04l66.61-0.09c2.51,0,4.53,1.81,4.53,4.07l-0.23,132.86C384.53,271.44,383.95,272.67,379.72,273.13z"/>
	<path class="st36" d="M377.82,259.98l-62.31-3.69c-0.58-0.02-1.05-0.46-1.05-1l0.21-107.12c0-0.56,0.49-1,1.12-1l62.31-0.09
		c0.6,0,1.12,0.44,1.12,1L379,258.98C379,259.56,378.47,260.01,377.82,259.98z"/>
	<path class="st134" d="M347.33,140.22c0.98,0,1.77-0.65,1.77-1.44c0-0.8-0.79-1.44-1.77-1.44s-1.77,0.64-1.77,1.44
		C345.57,139.58,346.36,140.22,347.33,140.22z"/>
	<path class="st134" d="M321.85,140.22c0.98,0,1.77-0.65,1.77-1.44c0-0.8-0.79-1.44-1.77-1.44c-0.98,0-1.77,0.64-1.77,1.44
		C320.08,139.58,320.88,140.22,321.85,140.22z"/>
	<path class="st6" d="M347.29,222.46c14.92,0,27.02-12.37,27.02-27.63c0-15.26-12.1-27.63-27.02-27.63s-27.02,12.37-27.02,27.63
		C320.27,210.09,332.37,222.46,347.29,222.46z"/>
	<path class="st634" d="M347.29,203.91c4.91,0,8.88-4.07,8.88-9.09c0-5.02-3.98-9.09-8.88-9.09c-4.91,0-8.88,4.07-8.88,9.09
		C338.41,199.85,342.38,203.91,347.29,203.91z"/>
	<path class="st703" d="M322.85,197.18l-0.09-6.23l7.02,3.18L322.85,197.18z"/>
	<path class="st703" d="M371.77,198.15l0.09-6.25l-7.02,3.21L371.77,198.15z"/>
	<path class="st703" d="M344.38,169.69l6.25-0.09l-3.21,7.02L344.38,169.69z"/>
	<path class="st703" d="M343.8,219.95l6.25,0.09l-3.21-7.02L343.8,219.95z"/>
	<path class="st128" d="M327.9,207.75l21.74-9.62l16.23-17.61l-21.53,10.36L327.9,207.75z"/>
	<path class="st1014" d="M239.62,198.24l-140.25-3.86c-2.51-0.07-4.51-2.14-4.51-4.65l0.16-107.77c0-2.49,1.98-4.53,4.44-4.62
		l140.27-5.48c2.63-0.09,4.81,2,4.81,4.62l-0.19,117.11C244.38,196.22,242.22,198.31,239.62,198.24z"/>
	<path class="st3" d="M244.55,90.87l0.02-14.38c0-2.63-2.19-4.74-4.81-4.62L99.49,77.37c-2.49,0.09-4.44,2.14-4.46,4.62L95,94.45
		L244.55,90.87z"/>
	<path class="st93" d="M103.18,89.89c-1.42,0-2.6-1.16-2.6-2.6c0-1.42,1.16-2.6,2.6-2.6c1.42,0,2.6,1.16,2.6,2.6
		C105.79,88.73,104.63,89.89,103.18,89.89z"/>
	<path class="st93" d="M112.41,89.73c-1.42,0-2.6-1.16-2.6-2.6c0-1.42,1.16-2.6,2.6-2.6c1.42,0,2.6,1.16,2.6,2.6
		C115,88.57,113.83,89.73,112.41,89.73z"/>
	<path class="st93" d="M121.78,89.47c-1.42,0-2.6-1.16-2.6-2.6c0-1.42,1.16-2.6,2.6-2.6c1.42,0,2.6,1.16,2.6,2.6
		C124.39,88.31,123.23,89.47,121.78,89.47z"/>
	<path class="st6" d="M214.62,81.11l-82.4,2.67v5.34l82.4-2.7V81.11z"/>
	<path class="st93" d="M235.5,85.99l-7.46,0.16v-5.44l7.46-0.16V85.99z"/>
	<path class="st1015" d="M169.66,155.21c7,0,12.65-5.37,12.65-11.97c0-6.62-5.67-11.97-12.65-11.97c-6.97,0-12.65,5.37-12.65,11.97
		C156.99,149.84,162.66,155.21,169.66,155.21z"/>
	<path class="st1016" d="M152.94,140.59c0.58-3.81,2.58-7.27,5.65-9.78c3.07-2.51,7-3.9,11.04-3.9c0.53,0,31.6,0.07,31.6,0.07
		c-2.81-5-6.91-9.25-11.88-12.36c-5-3.11-10.74-5-16.69-5.48c-5.95-0.46-11.95,0.46-17.44,2.74c-5.49,2.28-10.25,5.83-13.9,10.29
		L152.94,140.59z"/>
	<path class="st1017" d="M180.61,131.18c1.84,1.51,3.32,3.37,4.35,5.46c1.02,2.09,1.56,4.37,1.56,6.67c0.02,2.86-0.77,5.69-2.3,8.16
		l-18.18,25.51c1.19,0.12,2.39,0.16,3.6,0.16c5.79,0,11.51-1.32,16.65-3.88c5.14-2.56,9.53-6.25,12.83-10.76
		c3.3-4.51,5.37-9.71,6.07-15.17c0.7-5.44-0.02-10.97-2.09-16.1L180.61,131.18z"/>
	<path class="st1018" d="M174.33,158.32c-1.51,0.42-3.09,0.63-4.67,0.63c-6.28,0-11.44-3.09-14.65-8.04l-16.18-25.12
		c-2.86,4.58-4.53,9.74-4.88,15.06c-0.35,5.32,0.63,10.62,2.84,15.52c2.23,4.88,5.63,9.2,9.95,12.62c4.32,3.42,9.44,5.81,14.9,6.99
		L174.33,158.32z"/>
	<g>
		<linearGradient id="SVGID_2_" gradientUnits="userSpaceOnUse" x1="267.1589" y1="105.8677" x2="318.192" y2="105.8677">
			<stop  offset="1" style="stop-color:#0C59A4"/>
			<stop  offset="1" style="stop-color:#114A8B"/>
		</linearGradient>
		<path class="st22" d="M316.48,109.73c-0.96,0.5-1.97,0.96-3.01,1.35c-3.14,1.18-6.61,1.85-10.27,1.85
			c-13.54,0-25.34-9.32-25.34-21.27c0-3.36,1.94-6.27,4.7-7.81c-12.25,0.51-15.39,13.28-15.39,20.76
			c0,21.14,19.48,23.29,23.68,23.29c2.26,0,5.68-0.66,7.74-1.3c0.13-0.04,0.25-0.08,0.38-0.13c7.94-2.74,14.65-8.13,19.06-15.12
			C318.64,110.34,317.53,109.18,316.48,109.73z"/>
		<g>
			<defs>
				<path id="SVGID_568_" d="M316.48,109.73c-0.96,0.5-1.97,0.96-3.01,1.35c-3.14,1.18-6.61,1.85-10.27,1.85
					c-13.54,0-25.34-9.32-25.34-21.27c0-3.36,1.94-6.27,4.7-7.81c-12.25,0.51-15.39,13.28-15.39,20.76
					c0,21.14,19.48,23.29,23.68,23.29c2.26,0,5.68-0.66,7.74-1.3c0.13-0.04,0.25-0.08,0.38-0.13c7.94-2.74,14.65-8.13,19.06-15.12
					C318.64,110.34,317.53,109.18,316.48,109.73z"/>
			</defs>
			<clipPath id="SVGID_3_">
				<use xlink:href="#SVGID_568_"  style="overflow:visible;"/>
			</clipPath>
		</g>
		<linearGradient id="SVGID_4_" gradientUnits="userSpaceOnUse" x1="294.0641" y1="83.7281" x2="262.1867" y2="118.45">
			<stop  offset="0" style="stop-color:#1B9DE2"/>
			<stop  offset="0.1616" style="stop-color:#1595DF"/>
			<stop  offset="0.6675" style="stop-color:#0680D7"/>
			<stop  offset="1" style="stop-color:#0078D4"/>
		</linearGradient>
		<path class="st24" d="M280.61,124.29c-2.55-1.58-4.75-3.66-6.51-6.12c-2.71-3.8-4.33-8.48-4.33-13.57c0-7.48,3.48-14.1,8.85-18.3
			c1.22-0.95,2.78-1.91,3.93-2.46c0.89-0.42,2.42-1.18,4.45-1.16c3.36,0.05,5.9,1.76,7.35,3.71c1.11,1.5,1.8,3.34,1.82,5.34
			c0-0.06,7-22.78-22.91-22.78c-12.56,0-22.9,11.92-22.9,22.38c0,6.63,1.54,11.93,3.47,16.03c4.29,9.14,12.25,16.22,21.99,19.34
			c3.53,1.13,7.28,1.74,11.18,1.74c4.05,0,7.94-0.67,11.58-1.88c-2.06,0.65-4.24,1-6.5,1C287.88,127.58,283.96,126.36,280.61,124.29
			z"/>
		<g>
			<defs>
				<path id="SVGID_571_" d="M280.61,124.29c-2.55-1.58-4.75-3.66-6.51-6.12c-2.71-3.8-4.33-8.48-4.33-13.57
					c0-7.48,3.48-14.1,8.85-18.3c1.22-0.95,2.78-1.91,3.93-2.46c0.89-0.42,2.42-1.18,4.45-1.16c3.36,0.05,5.9,1.76,7.35,3.71
					c1.11,1.5,1.8,3.34,1.82,5.34c0-0.06,7-22.78-22.91-22.78c-12.56,0-22.9,11.92-22.9,22.38c0,6.63,1.54,11.93,3.47,16.03
					c4.29,9.14,12.25,16.22,21.99,19.34c3.53,1.13,7.28,1.74,11.18,1.74c4.05,0,7.94-0.67,11.58-1.88c-2.06,0.65-4.24,1-6.5,1
					C287.88,127.58,283.96,126.36,280.61,124.29z"/>
			</defs>
			<clipPath id="SVGID_5_">
				<use xlink:href="#SVGID_571_"  style="overflow:visible;"/>
			</clipPath>
		</g>
		<linearGradient id="SVGID_6_" gradientUnits="userSpaceOnUse" x1="250.3618" y1="79.5964" x2="323.6182" y2="79.5964">
			<stop  offset="0.4198" style="stop-color:#66C1EF"/>
			<stop  offset="0.6431" style="stop-color:#74CCAF"/>
			<stop  offset="0.8853" style="stop-color:#82D76F"/>
			<stop  offset="1" style="stop-color:#88DB56"/>
		</linearGradient>
		<path class="st28" d="M293.95,97.8c-0.23,0.3-0.95,0.71-0.95,1.62c0,0.75,0.49,1.46,1.35,2.07c4.12,2.87,11.87,2.48,11.89,2.48
			c3.2-0.01,6.08-0.89,8.66-2.4c1.17-0.69,2.26-1.5,3.24-2.43c3.36-3.19,5.41-7.7,5.47-12.7c0.07-6.41-2.28-10.68-3.24-12.57
			c-6.06-11.85-19.16-18.67-33.39-18.67c-20.06,0-36.35,16.12-36.62,36.11c0.14-10.46,10.53-18.9,22.88-18.9
			c1,0,6.71,0.1,12.02,2.88c4.67,2.45,7.12,5.42,8.83,8.36c1.77,3.05,2.08,6.91,2.08,8.45S295.4,95.92,293.95,97.8z"/>
	</g>
</g>
</svg>
