<svg id="b8a8cea9-eba7-451e-8e51-0ee45ca3d7f6" data-name="Layer 1" xmlns="http://www.w3.org/2000/svg" viewBox="0 0 100 100"><polyline points="33.76 81.51 10 81.51 10 66.24" fill="none" stroke="#4949e4" stroke-miterlimit="10" stroke-width="2" fill-rule="evenodd"/><polyline points="90 66.24 90 81.51 66.24 81.51" fill="none" stroke="#4949e4" stroke-miterlimit="10" stroke-width="2" fill-rule="evenodd"/><polyline points="66.24 18.48 90 18.48 90 33.76" fill="none" stroke="#4949e4" stroke-miterlimit="10" stroke-width="2" fill-rule="evenodd"/><polyline points="10 33.76 10 18.48 33.76 18.48" fill="none" stroke="#4949e4" stroke-miterlimit="10" stroke-width="2" fill-rule="evenodd"/><rect width="100" height="100" fill="none"/><path d="M54.55,74.48a24.9,24.9,0,1,1,19.93-29A24.93,24.93,0,0,1,54.55,74.48ZM46.44,30.83A19.5,19.5,0,1,0,69.17,46.44,19.52,19.52,0,0,0,46.44,30.83Z" fill="#ffa300"/><path d="M91.74,87.83a3.07,3.07,0,0,1-2.28-.67L65.08,67.61A3.11,3.11,0,1,1,69,62.76L93.35,82.31a3.1,3.1,0,0,1,.48,4.37A3.13,3.13,0,0,1,91.74,87.83Z" fill="#ffa300"/><circle id="e491e089-7546-43df-ac28-3e485fa39060" data-name="Oval-Copy" cx="50.25" cy="50" r="3.52" fill="#4949e4"/><rect id="b46f9ec5-733e-4f9d-95e9-f2969b5236d8" data-name="Rectangle" x="57.17" y="46.98" width="6.04" height="6.04" fill="#ee4750"/><polyline id="bc249fa8-1442-4d33-b82b-a30c44346aac" data-name="Rectangle-Copy" points="40.31 46.98 36.79 53.02 43.83 53.02" fill="#39c1d8" fill-rule="evenodd"/></svg>