<svg id="a86823f5-70a7-4e07-a1a4-8491139d3ca4" data-name="Layer 1" xmlns="http://www.w3.org/2000/svg" viewBox="0 0 100 100"><rect width="100" height="100" fill="none"/><line x1="26.56" y1="49.9" x2="77.76" y2="49.9" fill="none" stroke="#9196ff" stroke-miterlimit="10"/><polyline points="81.38 25.73 67.85 25.73 67.85 74.07 77.76 74.07" fill="none" stroke="#9196ff" stroke-miterlimit="10"/><path id="a53f2083-f3a9-4de9-b109-cd589b32ed19" data-name="Stroke-5" d="M83.38,68.09A5.89,5.89,0,1,1,77.49,74,5.89,5.89,0,0,1,83.38,68.09Z" fill="#39c1d8"/><polygon id="b2399c1a-c9a8-43f0-82c5-504485f3d76d" data-name="Fill-14" points="77.79 49.81 83.68 43.92 89.57 49.81 83.68 55.7 77.79 49.81" fill="#ee4750" fill-rule="evenodd"/><path d="M10.43,49.8a24.71,24.71,0,0,0,18,23.8,24.79,24.79,0,0,0,13.31,0A24.7,24.7,0,1,0,10.43,49.8Z" fill="#9196ff" fill-rule="evenodd"/><path d="M36.52,66.56H33.73a1.91,1.91,0,0,1-1.86-1.46l-.6-2.36a.37.37,0,0,0-.24-.26,12.87,12.87,0,0,1-2-.82.39.39,0,0,0-.35,0l-2.09,1.26a1.93,1.93,0,0,1-2.35-.29l-2-2A1.92,1.92,0,0,1,22,58.32l1.25-2.08a.38.38,0,0,0,0-.36,13,13,0,0,1-.82-2,.37.37,0,0,0-.26-.24l-2.36-.59a1.93,1.93,0,0,1-1.46-1.87V48.42a1.93,1.93,0,0,1,1.46-1.87L22.19,46a.37.37,0,0,0,.26-.24,13.23,13.23,0,0,1,.82-2,.36.36,0,0,0,0-.35L22,41.3A1.92,1.92,0,0,1,22.29,39l2-2a1.91,1.91,0,0,1,2.35-.29l2.09,1.25a.34.34,0,0,0,.35,0,14.58,14.58,0,0,1,2-.82.35.35,0,0,0,.24-.26l.59-2.36a1.92,1.92,0,0,1,1.87-1.45h2.78a1.91,1.91,0,0,1,1.86,1.45L39,36.88a.36.36,0,0,0,.24.25,14.36,14.36,0,0,1,2,.82.36.36,0,0,0,.36,0l2.08-1.25A1.91,1.91,0,0,1,46,37l2,2a1.92,1.92,0,0,1,.29,2.34L47,43.38a.36.36,0,0,0,0,.35,13,13,0,0,1,.82,2,.37.37,0,0,0,.26.24l2.36.59h0a1.93,1.93,0,0,1,1.46,1.87V51.2a1.93,1.93,0,0,1-1.46,1.87l-2.37.59a.37.37,0,0,0-.25.24,14.14,14.14,0,0,1-.82,2,.36.36,0,0,0,0,.35l1.25,2.09A1.91,1.91,0,0,1,48,60.68l-2,2a1.91,1.91,0,0,1-2.35.29l-2.09-1.25a.34.34,0,0,0-.35,0,13.94,13.94,0,0,1-2,.82.35.35,0,0,0-.25.25l-.59,2.37A1.92,1.92,0,0,1,36.52,66.56Z" fill="#4949e4"/><path d="M35.13,56.23a6.42,6.42,0,1,1,6.42-6.42A6.43,6.43,0,0,1,35.13,56.23Z" fill="#9196ff"/><path d="M35.13,45A4.86,4.86,0,1,0,40,49.81,4.87,4.87,0,0,0,35.13,45Z" fill="#fff"/><polygon id="b9019566-2bb1-4534-9622-662550787a6c" data-name="Rectangle-Copy" points="83.68 20.13 89.57 30.23 77.79 30.23 83.68 20.13" fill="#ffa300" fill-rule="evenodd"/></svg>