<svg id="e175e91e-c0f1-4398-b576-5da70dbf9de8" data-name="Layer 1" xmlns="http://www.w3.org/2000/svg" viewBox="0 0 100 100"><rect width="100" height="100" fill="none"/><path d="M50,89.59a1.6,1.6,0,0,1-.76-.2l-37-20.91a1.83,1.83,0,0,1-.88-1.62,1.78,1.78,0,0,1,.94-1.57l37-19a1.57,1.57,0,0,1,1.4,0l37,19a1.78,1.78,0,0,1,.94,1.57,1.83,1.83,0,0,1-.88,1.62l-37,20.91A1.6,1.6,0,0,1,50,89.59Z" fill="#39c1d8"/><path d="M50,71.73a1.49,1.49,0,0,1-.76-.2l-37-20.91A1.81,1.81,0,0,1,11.35,49a1.78,1.78,0,0,1,.94-1.58l37-19a1.51,1.51,0,0,1,1.4,0l37,19A1.78,1.78,0,0,1,88.65,49a1.81,1.81,0,0,1-.88,1.61l-37,20.91A1.49,1.49,0,0,1,50,71.73Z" fill="#4949e4"/><path d="M50,53.88a1.6,1.6,0,0,1-.76-.2l-37-20.92a1.8,1.8,0,0,1-.88-1.61,1.78,1.78,0,0,1,.94-1.57l37-19a1.51,1.51,0,0,1,1.4,0l37,19a1.78,1.78,0,0,1,.94,1.57,1.8,1.8,0,0,1-.88,1.61l-37,20.92A1.6,1.6,0,0,1,50,53.88Z" fill="#ffa300"/></svg>