<svg xmlns="http://www.w3.org/2000/svg" xmlns:xlink="http://www.w3.org/1999/xlink" viewBox="0 0 268.01 195.55"><defs><linearGradient id="d" x1="-3607.31" y1="-1124.46" x2="-3580.03" y2="-1124.46" gradientTransform="translate(-3671.35 -345.77) rotate(-156.83) scale(1.03 -.97) skewX(-1.33)" gradientUnits="userSpaceOnUse"><stop offset="0" stop-color="#444b8c"></stop><stop offset="1" stop-color="#26264f"></stop></linearGradient><linearGradient id="e" x1="-3553.54" y1="-1125.1" x2="-3526.61" y2="-1125.1" xlink:href="#d"></linearGradient><linearGradient id="f" x1="-3607.29" y1="-1126.39" x2="-3580.01" y2="-1126.39" gradientTransform="translate(-3671.35 -345.77) rotate(-156.83) scale(1.03 -.97) skewX(-1.33)" gradientUnits="userSpaceOnUse"><stop offset="0" stop-color="#aa80f9"></stop><stop offset="1" stop-color="#6165d7"></stop></linearGradient><linearGradient id="g" x1="599.7" y1="43.6" x2="647.03" y2="19.45" gradientTransform="translate(-529.89 113.92) rotate(-7.9) skewX(3.43)" xlink:href="#f"></linearGradient><linearGradient id="h" x1="-3582.54" y1="-1144.68" x2="-3523.62" y2="-1206.69" gradientTransform="translate(-3671.35 -345.77) rotate(-156.83) scale(1.03 -.97) skewX(-1.33)" gradientUnits="userSpaceOnUse"><stop offset="0" stop-color="#ffc444"></stop><stop offset="1" stop-color="#f36f56"></stop></linearGradient><linearGradient id="i" x1="-3587.18" y1="-1149.11" x2="-3528.19" y2="-1211.19" xlink:href="#h"></linearGradient><linearGradient id="j" x1="-3590.07" y1="-1201.48" x2="-3542.25" y2="-1201.48" xlink:href="#f"></linearGradient><linearGradient id="k" x1="-3583.56" y1="-1192.52" x2="-3561.51" y2="-1215.72" xlink:href="#f"></linearGradient><linearGradient id="l" x1="-3585.66" y1="-1168.88" x2="-3547.11" y2="-1168.88" gradientTransform="translate(-1509.24 -3405.46) rotate(-97.96) scale(1.03 -.97) skewX(-1.33)" gradientUnits="userSpaceOnUse"><stop offset="0" stop-color="#ebeff2"></stop><stop offset="1" stop-color="#fff"></stop></linearGradient><linearGradient id="m" x1="-3585.66" y1="-1168.2" x2="-3547.26" y2="-1168.2" gradientTransform="translate(-3671.35 -345.77) rotate(-156.83) scale(1.03 -.97) skewX(-1.33)" xlink:href="#l"></linearGradient><linearGradient id="n" x1="-3560.29" y1="-1181.41" x2="-3569.92" y2="-1161.6" gradientTransform="translate(-1509.27 -3405.45) rotate(-97.96) scale(1.03 -.97) skewX(-1.33)" xlink:href="#l"></linearGradient><linearGradient id="o" x1="-3583.45" y1="-1143.97" x2="-3554.27" y2="-1186.56" gradientTransform="translate(-1509.27 -3405.45) rotate(-97.96) scale(1.03 -.97) skewX(-1.33)" xlink:href="#d"></linearGradient><linearGradient id="p" x1="-3567.93" y1="-1107.23" x2="-3566.71" y2="-1123.09" gradientTransform="translate(-1042.3 -3539.97) rotate(-90.87) scale(1.03 -.97) skewX(-1.33)" xlink:href="#h"></linearGradient><linearGradient id="q" x1="-3580.15" y1="-1118.52" x2="-3553.73" y2="-1118.52" xlink:href="#f"></linearGradient><linearGradient id="r" x1="-3565.15" y1="-1119.18" x2="-3571.8" y2="-1099.16" gradientTransform="translate(-1042.17 -3531.44) rotate(-90.95) scale(1.03 -.97) skewX(-1.33)" xlink:href="#f"></linearGradient><linearGradient id="s" x1="-3565.58" y1="-1117.88" x2="-3570.63" y2="-1102.67" xlink:href="#d"></linearGradient><linearGradient id="t" x1="-3585.22" y1="-1145.19" x2="-3556.04" y2="-1187.76" xlink:href="#d"></linearGradient><linearGradient id="u" x1="650.49" y1="12.02" x2="549.11" y2="154.93" gradientTransform="translate(-529.89 113.92) rotate(-7.9) skewX(3.43)" gradientUnits="userSpaceOnUse"><stop offset="0" stop-color="#f36f56"></stop><stop offset="1" stop-color="#ffc444"></stop></linearGradient><linearGradient id="v" x1="1929.46" y1="35.4" x2="1929.46" y2="250.37" gradientTransform="translate(2108.93) rotate(-180) scale(1 -1)" gradientUnits="userSpaceOnUse"><stop offset=".12" stop-color="#fff"></stop><stop offset="1" stop-color="#512da8"></stop></linearGradient><linearGradient id="w" x1="-292.87" y1="314.72" x2="-239.97" y2="314.72" gradientTransform="translate(358.25 -120.08) rotate(7.02) skewX(3.43)" xlink:href="#d"></linearGradient><linearGradient id="x" x1="-273.16" y1="276.03" x2="-215.23" y2="276.03" gradientTransform="translate(358.25 -120.08) rotate(7.02) skewX(3.43)" xlink:href="#d"></linearGradient><linearGradient id="y" x1="-223.67" y1="262.83" x2="-170.87" y2="262.83" gradientTransform="translate(358.25 -120.08) rotate(7.02) skewX(3.43)" xlink:href="#d"></linearGradient><linearGradient id="z" x1="-178.09" y1="270.81" x2="-127.03" y2="270.81" gradientTransform="translate(358.25 -120.08) rotate(7.02) skewX(3.43)" xlink:href="#d"></linearGradient><linearGradient id="aa" x1="-155.94" y1="300.97" x2="-109.3" y2="300.97" gradientTransform="translate(358.25 -120.08) rotate(7.02) skewX(3.43)" xlink:href="#d"></linearGradient><linearGradient id="ab" x1="5187.93" y1="-3221.79" x2="5207.53" y2="-3221.79" gradientTransform="translate(-7102.29 82.17) rotate(41.75) scale(.98 1.48) skewX(-6.66)" gradientUnits="userSpaceOnUse"><stop offset="0" stop-color="#311944"></stop><stop offset="1" stop-color="#893976"></stop></linearGradient><linearGradient id="ac" x1="-200.83" y1="299.69" x2="-175.52" y2="299.69" gradientTransform="translate(352.19 -105.29) rotate(.29) scale(1.04 .96) skewX(-2.46)" xlink:href="#ab"></linearGradient><linearGradient id="ad" x1="-204.8" y1="252.91" x2="-188.87" y2="252.91" gradientTransform="translate(354.35 -57.7) rotate(3.58)" xlink:href="#ab"></linearGradient><linearGradient id="ae" x1="-152.55" y1="330.26" x2="-271.62" y2="316.09" gradientTransform="translate(358.25 -120.08) rotate(7.02) skewX(3.43)" xlink:href="#u"></linearGradient><linearGradient id="af" x1="-337.73" y1="320.37" x2="-151.55" y2="192.9" gradientTransform="translate(352.19 -105.29) rotate(.29) scale(1.04 .96) skewX(-2.46)" xlink:href="#u"></linearGradient><linearGradient id="ag" x1="-188.44" y1="254.68" x2="-204.69" y2="516.75" gradientTransform="translate(352.19 -105.29) rotate(.29) scale(1.04 .96) skewX(-2.46)" gradientUnits="userSpaceOnUse"><stop offset="0" stop-color="#ff9085"></stop><stop offset="1" stop-color="#fb6fbb"></stop></linearGradient><linearGradient id="ah" x1="-155.42" y1="247.7" x2="43.69" y2="95.19" gradientTransform="translate(352.19 -105.29) rotate(.29) scale(1.04 .96) skewX(-2.46)" xlink:href="#f"></linearGradient><linearGradient id="ai" x1="16.46" y1="148.51" x2="-169.41" y2="337.91" gradientTransform="translate(352.19 -105.29) rotate(.29) scale(1.04 .96) skewX(-2.46)" xlink:href="#f"></linearGradient><linearGradient id="aj" x1="5189.21" y1="-3222.62" x2="5208.82" y2="-3222.62" gradientTransform="translate(-7102.29 82.17) rotate(41.75) scale(.98 1.48) skewX(-6.66)" xlink:href="#d"></linearGradient><linearGradient id="ak" x1="-199.08" y1="299.68" x2="-173.75" y2="299.68" gradientTransform="translate(352.19 -105.29) rotate(.29) scale(1.04 .96) skewX(-2.46)" xlink:href="#d"></linearGradient><linearGradient id="al" x1="41.72" y1="139.8" x2="41.72" y2="241.11" gradientTransform="matrix(1, 0, 0, 1, 0, 0)" xlink:href="#v"></linearGradient></defs><g style="isolation:isolate;"><g id="b"><g id="c"><g><g><g><g><path d="M126.62,73.51s15.6,10.23,12.46,33.84c-.29,2.2-2.9,3.08-4.66,1.59l-11.23-9.53c-1.8-1.53-2.92-3.71-3.09-6l-.84-11.76,7.37-8.14Z" style="fill:url(#d);"></path><path d="M94.49,59.34s-17.81-4.51-31.19,14.59c-1.25,1.78,.02,4.37,2.26,4.64l14.26,1.71c2.29,.27,4.52-.42,6.15-1.92l8.37-7.7,.15-11.32Z" style="fill:url(#e);"></path></g><g><path d="M127.3,71.77s15.6,10.23,12.46,33.84c-.29,2.2-2.9,3.08-4.66,1.59l-11.23-9.53c-1.8-1.53-2.92-3.71-3.09-6l-.84-11.76,7.37-8.14Z" style="fill:url(#f);"></path><path d="M95.16,57.59s-17.81-4.51-31.19,14.59c-1.25,1.78,.02,4.37,2.26,4.64l14.26,1.71c2.29,.27,4.52-.42,6.15-1.92l8.37-7.7,.15-11.32Z" style="fill:url(#g);"></path></g><path d="M96.76,21.44C107.66,.77,136.22-.03,136.24,0c.04,0,19.74,22.09,13.81,44.95-5.38,20.74-25.78,40-29.74,43.58-.43,.39-1.14,.95-1.59,.53-8.83-8-18.55-12-28.95-12.76-.58-.04-.69-.96-.73-1.54-.43-5.44-2.19-34.54,7.72-53.32Z" style="fill:url(#h);"></path><g style="mix-blend-mode:multiply; opacity:.3;"><path d="M115,43.87c6.12-11.49,15.76-9.87,21.95-20.1,2.26-3.74,4.25-9.36,3.63-18.06,5.44,8.03,13.56,23.45,9.47,39.24-5.38,20.74-25.78,40-29.74,43.58-.43,.39-1.14,.95-1.59,.53-4.46-4.04-9.15-7.06-14.04-9.16,2.75-2.91,4.46-5.83,5.57-8.48,4.48-10.69-.83-17.09,4.75-27.56Z" style="fill:url(#i);"></path></g><path d="M129.91,16.38c-7.78-3.43-16.84-6.02-24.12-5.71C116.94,1.81,131.68,.27,135.37,.04c.55-.03,1.09,.21,1.46,.64,2.46,2.95,11.89,15.15,13.94,29.83-4.26-5.15-13.09-10.7-20.86-14.14Z" style="fill:url(#j);"></path><path d="M140.58,5.72l.08,.11c.04,.06,.09,.13,.13,.19,.04,.06,.09,.13,.13,.2,.04,.06,.08,.12,.12,.19,.05,.07,.09,.14,.14,.21,.04,.06,.08,.12,.12,.18,.05,.07,.1,.15,.15,.23,.04,.06,.08,.12,.11,.18,.05,.08,.1,.16,.15,.24,.04,.06,.07,.11,.11,.17,.05,.08,.11,.17,.16,.26l.1,.17c.06,.09,.11,.18,.17,.27l.1,.16c.06,.09,.11,.19,.17,.28l.1,.16c.06,.1,.12,.2,.18,.3l.09,.16c.06,.1,.12,.21,.18,.31l.09,.15c.06,.11,.12,.21,.19,.32l.09,.15c.06,.11,.13,.22,.19,.33l.08,.15c.06,.11,.13,.23,.19,.35l.08,.14c.07,.12,.13,.24,.2,.36l.08,.14c.07,.12,.13,.25,.2,.37l.07,.14c.07,.13,.13,.25,.2,.38l.07,.13c.07,.13,.14,.26,.2,.39l.07,.13c.07,.13,.14,.27,.21,.4l.06,.12c.07,.14,.14,.28,.21,.42l.06,.12c.07,.14,.14,.28,.21,.43l.06,.12c.07,.15,.14,.29,.21,.44l.05,.11c.07,.15,.14,.3,.21,.45l.05,.11c.07,.15,.14,.31,.21,.46l.05,.11c.07,.16,.14,.31,.21,.47l.04,.1c.07,.16,.14,.32,.21,.48l.04,.1c.07,.16,.14,.33,.2,.49l.04,.09c.07,.17,.14,.34,.2,.5l.03,.09c.07,.17,.14,.34,.2,.52l.03,.08c.07,.17,.13,.35,.2,.53l.03,.08c.07,.18,.13,.36,.2,.54l.03,.07c.07,.18,.13,.37,.19,.55l.02,.06c.06,.19,.13,.37,.19,.56l.02,.06c.06,.19,.13,.38,.19,.57l.02,.05c.06,.2,.12,.39,.18,.59v.04c.07,.2,.13,.4,.19,.6v.03c.07,.21,.13,.41,.18,.62h0c.54,1.96,.97,3.97,1.26,6.03-2.72-3.29-7.31-6.75-12.3-9.71,1.53-3.59,2.58-8.44,2.11-15.09Z" style="fill:url(#k); mix-blend-mode:multiply; opacity:.3;"></path><ellipse cx="120.73" cy="40.11" rx="16.98" ry="19.88" transform="translate(23.98 122.72) rotate(-58.87)" style="fill:url(#l);"></ellipse><path d="M115,43.87c5-9.38,12.33-10.02,18.23-15.5,5.73,5.29,8.21,13.07,5.63,19.75-3.4,8.78-14.27,12.32-24.28,7.9-.82-.36-1.61-.77-2.36-1.21,.09-3.36,.6-6.84,2.79-10.94Z" style="fill:url(#m); mix-blend-mode:multiply;"></path><ellipse cx="120.73" cy="40.11" rx="15.57" ry="18.22" transform="translate(23.98 122.72) rotate(-58.87)" style="fill:url(#n);"></ellipse><ellipse cx="120.73" cy="40.11" rx="13.56" ry="15.87" transform="translate(23.98 122.72) rotate(-58.87)" style="fill:url(#o);"></ellipse><ellipse cx="104.18" cy="82.72" rx="4.65" ry="16.49" transform="translate(-13.8 144.18) rotate(-65.96)" style="fill:url(#p);"></ellipse><path d="M101.83,79.19l6.47,2.86c3.44,1.52,5.76,4.92,5.85,8.6l.09,3.49c.03,1.28-1.25,2.11-2.45,1.58l-21.47-9.47c-1.2-.53-1.56-2.08-.69-2.96l2.37-2.41c2.5-2.54,6.38-3.2,9.83-1.68Z" style="fill:url(#q);"></path><ellipse cx="101.38" cy="90.14" rx="4.39" ry="13.61" transform="translate(-22.32 145.84) rotate(-65.89)" style="fill:url(#r);"></ellipse><path d="M91.92,85.97c-.66,1.72,3.03,4.98,8.26,7.29,5.22,2.3,10,2.78,10.66,1.06,.66-1.72-3.03-4.98-8.26-7.29-5.22-2.3-10-2.78-10.66-1.06Z" style="fill:url(#s);"></path><g style="mix-blend-mode:color-burn; opacity:.3;"><path d="M115,43.87c4.25-7.98,10.19-9.64,15.5-13.32,4.72,4.23,6.79,10.55,4.7,15.96-2.71,7.01-11.39,9.84-19.39,6.31-1.17-.52-2.26-1.14-3.26-1.85,.36-2.2,1.08-4.52,2.44-7.09Z" style="fill:url(#t);"></path></g></g><path d="M90.17,144.37c1.33,.74,2.67,1.49,4,2.23,.29-8.73,10.81-11.5,14.07-29.13,.5-2.71,3.18-18.51-3.8-25.3-.57-.56-1.98-1.9-4-2.44-6.89-1.84-10.9,8.24-19.57,15.36-11.34,9.32-17.68,3.07-27.64,10.51-7.59,5.67-18.98,35.41-20.63,44.05,15.92-1.14,42.14-21.49,57.57-15.28Z" style="fill:url(#u);"></path></g><path d="M90.93,116.35c0,17.52,14.2,31.71,31.71,31.71h119.2c.09,0,.17,0,.26,0,14.33-.14,25.9-11.8,25.9-26.16s-11.71-26.16-26.16-26.16c-3.06,0-6,.52-8.73,1.49,0-.06,0-.11,0-.17,0-14.16-11.48-25.64-25.64-25.64-6.34,0-12.13,2.29-16.6,6.1-2.62-14.88-15.6-26.19-31.23-26.19-17.52,0-31.71,14.2-31.71,31.71,0,.69,.02,1.36,.07,2.04-1.74-.3-3.53-.45-5.35-.45-17.52,0-31.71,14.2-31.71,31.71Z" style="fill:url(#v);"></path><g><g><path d="M65.64,132.57l1.76-.02,32.94,26.42c-5.73,7.88-9.31,17.06-9.86,27.82l-29.87-9.13-14.96,8.38c1.02-20.26,8.34-38.2,19.99-53.46Z" style="fill:url(#w);"></path><path d="M126.31,140.01c-8.4,2.78-14.83,8.32-20.8,14.76-.05,.05-.08,.18-.14,.18-1.41,.05-.91,.09-1.79,0l-.08-.06-34.53-26.22c12.29-14.13,28.51-24.7,46.59-29.59l1.8-.04,8.95,40.95Z" style="fill:url(#x);"></path><path d="M173.17,101.44l-12.43,38.72c-4.51-1.6-9.52-2.97-14.61-3.18-4.54-.19-10.56,1.03-14.84,1.99l-10.79-41.22c8.42-1.89,17.19-2.62,26.11-2.06,9.41,.59,18.32,2.59,26.57,5.75Z" style="fill:url(#y);"></path><path d="M214.99,135.08l-31.56,21.31,.22,1.15h-1.86c-4.66-6.67-10.97-11.93-18.4-15.44l14.24-38.78c1.29-.09,.69-.03,1.86-.05,.03,0,.06,.02,.09,.04,14.77,6.96,26.66,18.5,35.4,31.77Z" style="fill:url(#z);"></path><path d="M229.38,188.97l-38.74-.6c.54-10.22-1.81-19.07-6.27-26.87l33.09-22.36c1.9-.02,1.64-.09,1.9-.02,.32,.08-1.16,1.31-.99,1.6,7.86,14.11,11.95,30.48,11.02,48.24Z" style="fill:url(#aa);"></path></g><polygon points="136.93 172.96 189.12 133.55 150.63 186.41 136.93 172.96" style="fill:url(#ab);"></polygon><g><path d="M155.16,182.65c-.37,7.2-6.49,12.98-13.71,12.89-7.28-.08-12.91-6.07-12.53-13.37,.38-7.3,6.62-13.08,13.89-12.9,7.22,.18,12.73,6.17,12.35,13.37Z" style="fill:url(#ac);"></path><path d="M141.71,190.39c-4.41-.06-7.82-3.71-7.59-8.12,.23-4.42,4.01-7.93,8.42-7.84,4.39,.1,7.75,3.74,7.53,8.12-.23,4.38-3.97,7.9-8.35,7.84Zm.75-14.4c-3.54-.08-6.59,2.75-6.77,6.31-.18,3.55,2.56,6.49,6.11,6.54,3.53,.05,6.55-2.78,6.73-6.31,.18-3.53-2.53-6.46-6.06-6.54Z" style="fill:url(#ad);"></path></g><g><g><path d="M67.39,132.72l34.74,26.32c-5.74,7.88-9.31,17.02-9.86,27.79l-44.88-.69c1.02-20.27,8.36-38.49,20.01-53.42Z" style="fill:url(#ae);"></path><path d="M128.12,139.93c-8.79,2.91-16.64,8.14-22.76,15.01l-34.63-26.34c12.3-14.13,28.53-24.56,46.63-29.65l10.75,40.98Z" style="fill:url(#af);"></path><path d="M175.03,101.4l-14.29,38.76c-4.51-1.6-9.37-2.56-14.47-2.77-4.54-.19-9,.23-13.28,1.19l-10.69-40.87c8.43-1.89,17.21-2.62,26.13-2.06,9.42,.59,18.34,2.59,26.59,5.75Z" style="fill:url(#ag);"></path><path d="M216.88,135.06l-33.22,22.36c-4.67-6.55-10.98-11.89-18.42-15.4l14.26-38.77c15.46,6.92,28.34,18.06,37.39,31.8Z" style="fill:url(#ah);"></path><path d="M231.29,188.97l-38.78-.6c.54-10.23-1.81-19.08-6.27-26.88l33.12-22.37c8.46,14.47,12.9,31.41,11.93,49.85Z" style="fill:url(#ai);"></path></g><polygon points="138.75 172.95 190.99 133.52 152.46 186.41 138.75 172.95" style="fill:url(#aj);"></polygon><g><path d="M156.99,182.65c-.37,7.21-6.5,12.98-13.73,12.9-7.28-.08-12.92-6.07-12.54-13.38,.38-7.31,6.62-13.08,13.9-12.9,7.23,.18,12.74,6.17,12.37,13.38Z" style="fill:url(#ak);"></path><path d="M143.53,190.39c-4.41-.06-7.83-3.71-7.6-8.13,.23-4.42,4.02-7.94,8.43-7.84,4.39,.1,7.76,3.74,7.53,8.13-.23,4.38-3.97,7.9-8.36,7.84Zm.75-14.41c-3.55-.08-6.59,2.75-6.78,6.31s2.56,6.49,6.11,6.54c3.54,.05,6.55-2.78,6.73-6.31,.18-3.53-2.53-6.47-6.07-6.54Z" style="fill:#d8dee8;"></path></g></g></g><path d="M83.45,177.95c0,8.25-6.69,14.95-14.95,14.95H12.33s-.08,0-.12,0c-6.75-.06-12.21-5.56-12.21-12.33s5.52-12.33,12.33-12.33c1.44,0,2.83,.25,4.11,.7,0-.03,0-.05,0-.08,0-6.67,5.41-12.08,12.08-12.08,2.99,0,5.72,1.08,7.82,2.87,1.23-7.01,7.35-12.34,14.72-12.34,8.25,0,14.95,6.69,14.95,14.95,0,.32,0,.64-.03,.96,.82-.14,1.66-.21,2.52-.21,8.25,0,14.95,6.69,14.95,14.95Z" style="fill:url(#al);"></path></g></g></g></g></svg>