<?xml version="1.0" encoding="utf-8"?>
<!-- Generator: Adobe Illustrator 22.1.0, SVG Export Plug-In . SVG Version: 6.00 Build 0)  -->
<svg version="1.1" id="Layer_5" xmlns="http://www.w3.org/2000/svg" xmlns:xlink="http://www.w3.org/1999/xlink" x="0px" y="0px"
	 viewBox="0 0 48.2 41.8" style="enable-background:new 0 0 48.2 41.8;" xml:space="preserve">
<style type="text/css">
	.st0{fill:#BAD1DA;}
	.st1{fill:#FFFFFF;}
	.st2{fill:#236B88;}
</style>
<polygon class="st0" points="0.7,2 0.7,7.3 47.4,7.3 47.4,2.2 46,0.6 2.3,0.6 "/>
<polygon class="st1" points="0.6,8.7 0.7,39.2 1.9,41 46.1,41 47.7,39.6 47.4,7.3 1.2,7.3 "/>
<path class="st0" d="M14.6,13.9c0,0,0.1,7.6,0,7.6c-0.1,0,1.1,4.9,1.1,4.9l3.6,5.8l5,4.3l6.4-6l2.7-7.1l0.5-7.7l-0.4-2.3
	c0,0-4.1,0.8-4.2,0.8s-5.1-2-5.1-2l-4.3,1.9L14.6,13.9z"/>
<g>
	<path class="st2" d="M33,12.6c-0.2,0-0.3,0-0.5,0.1c-2.5,0.8-5.4,0.4-7.4-1.1c-0.6-0.4-1.3-0.4-1.9,0c-2,1.5-4.9,2-7.4,1.1
		c-0.2-0.1-0.3-0.1-0.5-0.1c-0.9,0-1.6,0.7-1.6,1.7v4.8c0,6.9,3.4,13.3,9.2,17.4l0.4,0.2c0.3,0.2,0.6,0.3,0.9,0.3s0.6-0.1,0.9-0.3
		l0.4-0.2c5.8-4,9.2-10.5,9.2-17.4v-4.8C34.6,13.4,33.9,12.6,33,12.6z M33,19.1c0,6.3-3.2,12.3-8.5,16.1l-0.3,0.2l-0.3-0.2
		c-5.3-3.7-8.5-9.7-8.5-16.1l0-4.8c3,1,6.5,0.5,8.9-1.4c1.6,1.2,3.7,1.9,5.8,1.9c1.1,0,2.1-0.2,3.1-0.5V19.1L33,19.1z"/>
	<path class="st2" d="M45.8,0H2.4C1.1,0,0,1.1,0,2.4v37c0,1.3,1.1,2.4,2.4,2.4h43.4c1.3,0,2.4-1.1,2.4-2.4v-37
		C48.2,1.1,47.2,0,45.8,0z M2.4,1.6h43.4c0.4,0,0.8,0.4,0.8,0.8v4h-45v-4C1.6,2,2,1.6,2.4,1.6z M45.8,40.2H2.4
		c-0.4,0-0.8-0.4-0.8-0.8V8h45v31.4C46.6,39.8,46.3,40.2,45.8,40.2z"/>
	<path class="st2" d="M4,4.8c0.2,0,0.4-0.1,0.6-0.2C4.7,4.4,4.8,4.2,4.8,4c0-0.2-0.1-0.4-0.2-0.6c-0.3-0.3-0.8-0.3-1.1,0
		C3.3,3.6,3.2,3.8,3.2,4c0,0.2,0.1,0.4,0.2,0.6C3.6,4.7,3.8,4.8,4,4.8z"/>
	<path class="st2" d="M7.2,4.8c0.2,0,0.4-0.1,0.6-0.2C8,4.4,8,4.2,8,4C8,3.8,8,3.6,7.8,3.4C7.5,3.2,7,3.2,6.7,3.4
		C6.5,3.6,6.4,3.8,6.4,4c0,0.2,0.1,0.4,0.2,0.6C6.8,4.7,7,4.8,7.2,4.8z"/>
	<path class="st2" d="M10.5,4.8c0.2,0,0.4-0.1,0.6-0.2c0.1-0.2,0.2-0.4,0.2-0.6c0-0.2-0.1-0.4-0.2-0.6c-0.3-0.3-0.9-0.3-1.1,0
		C9.7,3.6,9.6,3.8,9.6,4c0,0.2,0.1,0.4,0.2,0.6C10,4.7,10.2,4.8,10.5,4.8z"/>
	<path class="st2" d="M29.2,19.6l-5.9,6.6l-3.4-3.4c-0.3-0.3-0.8-0.3-1.1,0c-0.3,0.3-0.3,0.8,0,1.1l4,4c0.2,0.2,0.4,0.2,0.6,0.2
		c0,0,0,0,0,0c0.2,0,0.4-0.1,0.6-0.3l6.4-7.2c0.3-0.3,0.3-0.8-0.1-1.1C30,19.2,29.5,19.2,29.2,19.6z"/>
</g>
</svg>
