<?xml version="1.0" encoding="UTF-8" standalone="no"?>
<!-- Generator: Adobe Illustrator 16.0.4, SVG Export Plug-In . SVG Version: 6.00 Build 0)  -->
<!DOCTYPE svg  PUBLIC '-//W3C//DTD SVG 1.1//EN'  'http://www.w3.org/Graphics/SVG/1.1/DTD/svg11.dtd'>
<svg id="Layer_1" xmlns:sketch="http://www.bohemiancoding.com/sketch/ns" xmlns="http://www.w3.org/2000/svg" xml:space="preserve" height="21px" viewBox="0 0 21 21" width="21px" version="1.1" y="0px" x="0px" xmlns:xlink="http://www.w3.org/1999/xlink" enable-background="new 0 0 21 21">
<title>message-spinner-source</title>
<description>Created with Sketch (http://www.bohemiancoding.com/sketch)</description>
<g id="message-spinner-source" sketch:type="MSArtboardGroup">
	<path id="Oval-1-copy-2" d="m16.156 16.137c1.447-1.439 2.344-3.436 2.344-5.637 0-3.949-2.883-7.23-6.667-7.863v2.715c2.3 0.591 4 2.673 4 5.148 0 1.469-0.597 2.797-1.562 3.76l-2.438-2.432v6.646h6.667l-2.344-2.337zm-11.313-11.275c-1.448 1.442-2.343 3.437-2.343 5.638 0 3.949 2.883 7.23 6.667 7.863v-2.715c-2.3-0.59-4-2.672-4-5.148 0-1.468 0.597-2.796 1.562-3.759l2.438 2.43v-6.645h-6.667l2.343 2.336z" fill="#fff" sketch:type="MSShapeGroup"/>
</g>
</svg>
