<svg xmlns="http://www.w3.org/2000/svg" data-name="Layer 1" viewBox="0 0 100 100" class="featureSvg_GfXr" role="img"><path fill="none" stroke="#4949e4" stroke-miterlimit="10" stroke-width="2" d="M33.76 81.51H10V66.24M90 66.24v15.27H66.24M66.24 18.48H90v15.28M10 33.76V18.48h23.76"></path><path fill="none" d="M0 0h100v100H0z"></path><path fill="#ffa300" d="M54.55 74.48a24.9 24.9 0 1 1 19.93-29 24.93 24.93 0 0 1-19.93 29m-8.11-43.65a19.5 19.5 0 1 0 22.73 15.61 19.52 19.52 0 0 0-22.73-15.61"></path><path fill="#ffa300" d="M91.74 87.83a3.07 3.07 0 0 1-2.28-.67L65.08 67.61A3.11 3.11 0 1 1 69 62.76l24.35 19.55a3.1 3.1 0 0 1 .48 4.37 3.13 3.13 0 0 1-2.09 1.15"></path><circle cx="50.25" cy="50" r="3.52" fill="#4949e4" data-name="Oval-Copy"></circle><path fill="#ee4750" d="M57.17 46.98h6.04v6.04h-6.04z" data-name="Rectangle"></path><path fill="#39c1d8" fill-rule="evenodd" d="m40.31 46.98-3.52 6.04h7.04" data-name="Rectangle-Copy"></path></svg>